<?xml version="1.0" encoding="utf-8"?>
<!-- Generator: Adobe Illustrator 22.1.0, SVG Export Plug-In . SVG Version: 6.00 Build 0)  -->
<svg version="1.1" xmlns="http://www.w3.org/2000/svg" xmlns:xlink="http://www.w3.org/1999/xlink" x="0px" y="0px"
	 viewBox="0 0 1455 1455" style="enable-background:new 0 0 1455 1455;" xml:space="preserve">
<style type="text/css">
	.st0{fill:#F7941D;}
	.st1{fill:#DABCAA;}
	.st2{fill:#00A9BB;}
	.st3{fill:#0098A8;}
	.st4{fill:#00A79D;}
	.st5{fill:#FFF200;}
	.st6{fill:#F5E0CD;}
	.st7{fill:#008C84;}
	.st8{fill:#C1B2A5;}
	.st9{fill:#F0D0B4;}
	.st10{fill:#543E36;}
	.st11{fill:#6A330D;}
	.st12{fill:#72594B;}
	.st13{fill:#A8916D;}
	.st14{fill:#F0BEB4;}
	.st15{fill:#754C29;}
	.st16{fill:#FFD883;}
	.st17{fill:#F15A29;}
	.st18{fill:none;stroke:#000000;stroke-width:6;stroke-linecap:round;stroke-miterlimit:10;}
	.st19{fill:none;stroke:#000000;stroke-width:7;stroke-linecap:round;stroke-miterlimit:10;}
	.st20{fill:none;stroke:#000000;stroke-width:8;stroke-linecap:round;stroke-miterlimit:10;}
	.st21{fill:none;stroke:#000000;stroke-width:3;stroke-linecap:round;stroke-miterlimit:10;}
	.st22{fill:#DAC8B9;}
	.st23{fill:#BBA294;}
	.st24{fill:#EF4136;}
	.st25{fill:#FEFEFE;}
	.st26{fill:#FBCF9E;}
	.st27{fill:#594A42;}
	.st28{fill:#BE1E2D;}
	.st29{fill:#FFFFFF;}
	.st30{fill:#808285;}
	.st31{fill:#48484A;}
	.st32{fill:#58595B;}
	.st33{fill:#666666;}
	.st34{fill:#4F7793;}
	.st35{fill:#C3DA60;}
	.st36{fill:#9FCD5A;}
	.st37{fill:#F282AC;}
	.st38{fill:#E6E7E8;}
	.st39{fill:#FBB040;}
	.st40{fill:#907C5D;}
	.st41{fill:#603913;}
	.st42{fill:#00AEEF;}
	.st43{fill:#AFB9D2;}
	.st44{fill:#969CB3;}
	.st45{fill:#D8DEEC;}
	.st46{fill:#F0F3FA;}
	.st47{fill:#FFD782;}
	.st48{fill:#FEC46F;}
	.st49{fill:#F16465;}
	.st50{fill:#D3555B;}
	.st51{fill:#41C7F2;}
	.st52{fill:#36BBED;}
	.st53{fill:#C4DC7B;}
	.st54{fill:#A6D16F;}
	.st55{fill:#A2D8CB;}
	.st56{fill:#7CCBBB;}
	.st57{fill:#D1D3D4;}
	.st58{fill:#ED1C24;}
	.st59{fill:#5B2A02;}
	.st60{fill:#F1CF9C;}
	.st61{fill:#262262;}
	.st62{fill:#D2B693;}
	.st63{opacity:0.38;fill:#27AAE1;}
	.st64{fill:#2B3990;}
	.st65{fill:#A7A9AC;}
	.st66{fill:#6D6E71;}
	.st67{fill:#343B6F;}
	.st68{fill:#F1F0F0;}
	.st69{fill:#F1AE5B;}
	.st70{fill:#F9DF74;}
	.st71{fill:#5A98D1;}
	.st72{fill:#494C80;}
	.st73{fill:#EF487D;}
	.st74{fill:#39B54A;}
	.st75{fill:#FBB15F;}
	.st76{fill:#79684D;}
	.st77{fill:#BCE6FB;}
	.st78{fill:#94D9F8;}
	.st79{fill:#DA1C5C;}
	.st80{fill:#48342C;}
	.st81{fill:#D8D9DA;}
	.st82{fill:#414042;}
	.st83{fill:#000834;}
	.st84{fill:#D9EEE5;}
	.st85{fill:#FDDB42;}
	.st86{fill:#8DC63F;}
	.st87{fill:#9BD7D5;}
	.st88{fill:#C9B099;}
	.st89{fill:#EAC679;}
	.st90{fill:#C4D7CF;}
	.st91{fill:#1B75BC;}
	.st92{fill:#009444;}
	.st93{fill:none;stroke:#39B54A;stroke-width:17;stroke-miterlimit:10;}
	.st94{fill:none;stroke:#A8916D;stroke-width:74;stroke-miterlimit:10;}
	.st95{fill:none;stroke:#F1CF9C;stroke-width:75;stroke-miterlimit:10;}
	.st96{fill:none;stroke:#0098A8;stroke-width:74;stroke-miterlimit:10;}
	.st97{fill:none;stroke:#00A9BB;stroke-width:74;stroke-miterlimit:10;}
	.st98{fill:none;stroke:#F5E0CD;stroke-width:74;stroke-miterlimit:10;}
	.st99{fill:none;stroke:#F5E0CD;stroke-width:72;stroke-miterlimit:10;}
	.st100{fill:none;stroke:#594A42;stroke-width:8;stroke-linecap:round;stroke-miterlimit:10;}
	.st101{fill:none;stroke:#BE1E2D;stroke-width:8;stroke-linecap:round;stroke-miterlimit:10;}
	.st102{fill:none;stroke:#48484A;stroke-width:11;stroke-miterlimit:10;}
	.st103{fill:#FFFFFF;stroke:#BE1E2D;stroke-width:7;stroke-linecap:round;stroke-linejoin:round;stroke-miterlimit:10;}
	.st104{fill:none;stroke:#F15A29;stroke-width:18;stroke-miterlimit:10;}
	.st105{fill:#A8916D;stroke:#907C5D;stroke-width:3;stroke-linecap:round;stroke-linejoin:round;stroke-miterlimit:10;}
	.st106{fill:none;stroke:#907C5D;stroke-width:3;stroke-linecap:round;stroke-linejoin:round;stroke-miterlimit:10;}
	.st107{fill:#FFFFFF;stroke:#000000;stroke-width:7;stroke-linecap:round;stroke-linejoin:round;stroke-miterlimit:10;}
	.st108{fill:none;stroke:#2B3990;stroke-width:15;stroke-miterlimit:10;}
</style>
<g id="Layer_1">
</g>
<g id="heads">
	<g>
		<circle class="st42" cx="712.3" cy="757" r="577.4"/>
		<g>
			<path class="st43" d="M936.8,447.8L936.8,447.8c-7.9,0-14.4,6.4-14.4,14.4v43.1h28.7v-43.1C951.2,454.3,944.8,447.8,936.8,447.8z
				"/>
			<rect x="793.1" y="1065.7" class="st44" width="287.4" height="28.7"/>
			<g>
				<path class="st43" d="M721.5,1271.2l55.4-263h43.1l-55.2,262c-1.4,6.4-7,11-13.6,11h-21.6
					C724.3,1281.2,720.4,1276.4,721.5,1271.2z"/>
				<path class="st43" d="M1128.2,1157.5l-31.4-149.3h-43.1l38.6,183.5C1104.8,1180.8,1116.8,1169.4,1128.2,1157.5z"/>
			</g>
			<path class="st45" d="M1339.2,534H534.5c-7.9,0-14.4-6.4-14.4-14.4v-14.4c0-7.9,6.4-14.4,14.4-14.4h804.7
				c7.9,0,14.4,6.4,14.4,14.4v14.4C1353.5,527.6,1347.1,534,1339.2,534z"/>
			<path class="st46" d="M1339.2,534H534.5v459.8c0,15.9,12.9,28.7,28.7,28.7h747.2c15.9,0,28.7-12.9,28.7-28.7V534z"/>
			<path class="st47" d="M965.6,950.7h-57.5c-7.9,0-14.4-6.4-14.4-14.4V706.5c0-7.9,6.4-14.4,14.4-14.4h57.5
				c7.9,0,14.4,6.4,14.4,14.4v229.9C979.9,944.3,973.5,950.7,965.6,950.7z"/>
			<path class="st48" d="M965.6,950.7h-57.5c-7.9,0-14.4-6.4-14.4-14.4V778.3c0-7.9,6.4-14.4,14.4-14.4h57.5
				c7.9,0,14.4,6.4,14.4,14.4v158.1C979.9,944.3,973.5,950.7,965.6,950.7z"/>
			<path class="st49" d="M836.2,950.7h-57.5c-7.9,0-14.4-6.4-14.4-14.4V778.3c0-7.9,6.4-14.4,14.4-14.4h57.5
				c7.9,0,14.4,6.4,14.4,14.4v158.1C850.6,944.3,844.2,950.7,836.2,950.7z"/>
			<path class="st50" d="M836.2,950.7h-57.5c-7.9,0-14.4-6.4-14.4-14.4v-86.2c0-7.9,6.4-14.4,14.4-14.4h57.5
				c7.9,0,14.4,6.4,14.4,14.4v86.2C850.6,944.3,844.2,950.7,836.2,950.7z"/>
			<path class="st51" d="M706.9,950.7h-57.5c-7.9,0-14.4-6.4-14.4-14.4v-86.2c0-7.9,6.4-14.4,14.4-14.4h57.5
				c7.9,0,14.4,6.4,14.4,14.4v86.2C721.3,944.3,714.9,950.7,706.9,950.7z"/>
			<path class="st52" d="M706.9,950.7h-57.5c-7.9,0-14.4-6.4-14.4-14.4v-28.7c0-7.9,6.4-14.4,14.4-14.4h57.5
				c7.9,0,14.4,6.4,14.4,14.4v28.7C721.3,944.3,714.9,950.7,706.9,950.7z"/>
			<path class="st53" d="M1094.9,950.7h-57.5c-7.9,0-14.4-6.4-14.4-14.4V778.3c0-7.9,6.4-14.4,14.4-14.4h57.5
				c7.9,0,14.4,6.4,14.4,14.4v158.1C1109.3,944.3,1102.8,950.7,1094.9,950.7z"/>
			<path class="st54" d="M1094.9,950.7h-57.5c-7.9,0-14.4-6.4-14.4-14.4v-86.2c0-7.9,6.4-14.4,14.4-14.4h57.5
				c7.9,0,14.4,6.4,14.4,14.4v86.2C1109.3,944.3,1102.8,950.7,1094.9,950.7z"/>
			<path class="st55" d="M1224.2,950.7h-57.5c-7.9,0-14.4-6.4-14.4-14.4V620.3c0-7.9,6.4-14.4,14.4-14.4h57.5
				c7.9,0,14.4,6.4,14.4,14.4v316.1C1238.6,944.3,1232.1,950.7,1224.2,950.7z"/>
			<path class="st56" d="M1224.2,950.7h-57.5c-7.9,0-14.4-6.4-14.4-14.4V692.1c0-7.9,6.4-14.4,14.4-14.4h57.5
				c7.9,0,14.4,6.4,14.4,14.4v244.3C1238.6,944.3,1232.1,950.7,1224.2,950.7z"/>
			<path class="st43" d="M1267.3,965.1h-661c-7.9,0-14.4-6.4-14.4-14.4l0,0c0-7.9,6.4-14.4,14.4-14.4h661c7.9,0,14.4,6.4,14.4,14.4
				l0,0C1281.7,958.7,1275.2,965.1,1267.3,965.1z"/>
		</g>
		<polygon class="st29" points="470.6,953 546.2,1310.2 677.3,1359.7 729.6,1281.2 780.2,957.2 		"/>
		<path class="st57" d="M599.4,1323.4c10.3,2,20.7,3.8,31.2,5.3V952.2h-31.2V1323.4z"/>
		<path class="st38" d="M693.9,896.9c0,0,90.3,26.7,51.6,65.4c0,0-94.1,57-137.3-15.4C565,874.5,693.9,896.9,693.9,896.9z"/>
		<path class="st38" d="M531.8,902.2c0,0-90.3,26.7-51.6,65.4c0,0,94.1,57,137.3-15.4S531.8,902.2,531.8,902.2z"/>
		<path d="M423.4,229.4h23.7c8.9,0,17.1-4.8,21.5-12.6l12.9-23.2c5.3-9.5,16.3-14.4,26.9-12l60.8,13.9c5.1,1.2,10.5,0.7,15.3-1.4
			l64.6-28.2c13.7-6,29.6,1.6,33.5,16.1l8.9,33.2c2.4,8.8,9.4,15.6,18.3,17.6l114.4,25.7c14.4,3.2,22.7,18.3,17.7,32.2l-2.9,8.2
			c-3.1,8.8-1,18.6,5.5,25.3l69.3,71.6c5.9,6.1,8.3,14.9,6.1,23.2l-17.1,66.2c-1.6,6.4-0.7,13.1,2.7,18.8l41.7,69.5
			c9.8,16.4-2,37.2-21,37.2h0c-13,0-23.7,10.1-24.5,23L896,726c-0.8,12.9-11.5,23-24.5,23h-17.3c-11.8,0-21.9,8.4-24.1,19.9
			l-6.1,31.8c-2.5,13-14.9,21.7-27.9,19.6l-58.4-9.2c-1.3-0.2-2.6-0.3-3.8-0.3H431c-12.3,0-22.7-9.1-24.3-21.2l-6.2-45.7
			c-1.4-10.7-9.7-19.1-20.3-20.9l-40.9-6.8c-14.7-2.5-23.8-17.3-19.4-31.6l14.5-46.1c4.6-14.6-5.2-29.8-20.4-31.7l-0.3,0
			c-18.2-2.3-27.6-23-17.3-38.1l20.3-29.9c6.9-10.2,5.2-23.9-4-32.1L278.1,476c-17.4-15.5-5.4-44.3,17.9-42.8l26.7,1.7
			c17.7,1.1,30.8-16.4,24.6-33L327,347.2c-6.1-16.3,6.3-33.6,23.7-33.1l32.5,0.9c17,0.5,29.4-16.1,24-32.3l-7-21
			C394.9,245.8,406.7,229.4,423.4,229.4z"/>
		<polygon class="st11" points="703.2,902.2 617.5,952.2 531.8,902.2 531.8,772.6 703.2,772.6 		"/>
		<path class="st11" d="M825.3,530.4c0-114.8-93.1-207.8-207.8-207.8c-114.8,0-207.8,93.1-207.8,207.8c0,5.8,0,30.5,0,37.3
			c0,135.4,93.1,245.1,207.8,245.1c114.8,0,207.8-109.7,207.8-245.1C825.3,560.9,825.3,536.2,825.3,530.4z"/>
		<ellipse class="st11" cx="409.7" cy="571" rx="45.2" ry="68.9"/>
		<ellipse class="st11" cx="825.3" cy="580.5" rx="45.2" ry="68.9"/>
		<g>
			<path class="st58" d="M825.3,530.4c0-114.8-93.1-207.8-207.8-207.8s-207.8,93.1-207.8,207.8c0,5.8,0,30.5,0,37.3c0,0.5,0,1,0,1.5
				c0.7-114.2,93.5-206.6,207.8-206.6S824.7,455,825.3,569.2c0-0.5,0-1,0-1.5C825.3,560.9,825.3,536.2,825.3,530.4z"/>
		</g>
		<path class="st59" d="M531.8,822.4c26.1,14,55.1,21.7,85.7,21.7s59.6-7.8,85.7-21.7v-31.3c-26.1,14-55.1,21.7-85.7,21.7
			s-59.6-7.8-85.7-21.7V822.4z"/>
		<ellipse cx="701.4" cy="556.8" rx="9.3" ry="21"/>
		<ellipse cx="521.4" cy="561.9" rx="9.3" ry="21"/>
		<path d="M540.8,525.4c-1.2,0-2.3-0.5-3.1-1.5c-4.2-5.2-8.6-8-13.2-8.2c-5.1-0.2-10.6,2.5-16.2,8.3l-0.3,0.3
			c-1.6,1.6-4.1,1.6-5.7,0c-1.6-1.6-1.6-4.1,0-5.7l0.2-0.2c7.3-7.5,14.8-11.1,22.3-10.7c7,0.3,13.3,4.1,19,11.2
			c1.4,1.7,1.1,4.2-0.6,5.6C542.5,525.1,541.6,525.4,540.8,525.4z"/>
		<path d="M720.8,521.6c-1.2,0-2.3-0.5-3.1-1.5c-4.2-5.2-8.6-8-13.2-8.2c-5.1-0.3-10.6,2.5-16.2,8.3l-0.3,0.3
			c-1.6,1.6-4.1,1.6-5.7,0c-1.6-1.6-1.6-4.1,0-5.7l0.2-0.2c7.3-7.5,14.8-11.1,22.3-10.7c6.9,0.3,13.3,4.1,19,11.2
			c1.4,1.7,1.1,4.2-0.6,5.6C722.5,521.3,721.6,521.6,720.8,521.6z"/>
		<path class="st59" d="M593.3,654.7l22.5-67.4c1.7-5.2,8.9-6,11.7-1.2l39.9,67.4c2.5,4.3-0.6,9.7-5.5,9.7h-62.4
			C595,663.2,591.9,658.9,593.3,654.7z"/>
		<g>
			<path class="st29" d="M546.2,709.8c0,0,76.4,79,152.9-4.8L546.2,709.8z"/>
			<path class="st28" d="M622.8,747.1c-44.9,0-77.7-33.4-79.1-34.8c-1-1-1.2-2.5-0.7-3.7s1.8-2.1,3.1-2.2l152.9-4.8
				c1.4,0,2.7,0.8,3.3,2c0.6,1.3,0.4,2.8-0.6,3.8c-23.6,25.9-49.7,39.2-77.6,39.6C623.7,747.1,623.2,747.1,622.8,747.1z M555,713.1
				c11.5,9.5,37.5,27.5,69,27c23.5-0.4,45.9-10.9,66.5-31.2L555,713.1z M546.2,709.8L546.2,709.8L546.2,709.8z"/>
		</g>
		<path class="st37" d="M851.1,970c0,0,90.3,7.1,85.6,108.8s-73.3,9.9-73.3,9.9l-12.2-23.3V970z"/>
		<path class="st37" d="M374.6,970c0,0-90.3,8.5-85.6,131.3s73.3,11.9,73.3,11.9l12.2-28.1V970z"/>
		<path class="st37" d="M570.3,1316.9L470.6,953l-95.9,16v256.5C432.7,1267.4,498.9,1298.8,570.3,1316.9z"/>
		<path class="st37" d="M656.7,1331.8c18.3,1.7,36.8,2.7,55.6,2.7c47.9,0,94.3-5.8,138.8-16.8V969l-95.9-16L656.7,1331.8z"/>
		<path class="st11" d="M730,1127.6c17.4-8.1,30.9-15.2,45-20.6c17.6-6.7,30.2-11.2,39.6,16.3c7.9,23.1,14.1,45.5,18.6,69.3
			c3.6,19.3-3.5,29.2-18.8,36.6c-41.4,20.2-82.5,41.6-131.4,31.8c-9.7-2-18.3,3.5-26.7,7.4c-44.2,20.4-88.9,39.5-132.1,61.9
			c-21.6,11.2-33.2,2.8-44.7-12.9c-0.5-0.7-0.8-1.5-1.3-2.2c-25.5-41.8-23.7-51.1,21.2-68.7c42-16.5,83.7-33.7,124.7-52.6
			c12.1-5.6,22.5-11,24.3-26.3c1.1-9.4,6.7-17.6,13.7-24.1c23-21.1,39.4-46.7,52.9-74.6c3.5-7.2,6.3-18.7,16.6-15.8
			c8.9,2.5,7.6,13.7,9.3,22.1C744.2,1092.5,732.8,1106.2,730,1127.6z"/>
		<path class="st37" d="M336.3,1389.2c-9.8,0-18.8-0.8-27.4-2.4c-31.7-5.9-49.7-22.1-59.3-34.7c-16.3-21.5-20.5-51.7-13.7-97.7
			c4-26.9,12-60.2,23.8-99.2c19.5-64.5,42.8-122.6,43.7-125l91,36.5c-0.2,0.5-19.8,49.5-37.2,105c-22.5,71.5-26.3,105.3-26.5,119.3
			c13.8,1.2,52.2-1.2,139.1-38c65.4-27.7,122.9-60.2,123.5-60.5l48.3,85.3c-2.9,1.7-72.8,41.1-150.5,72.5
			c-47.5,19.1-88.4,31.4-121.7,36.3C357.6,1388.3,346.6,1389.2,336.3,1389.2z M331.3,1299.5L331.3,1299.5L331.3,1299.5z"/>
		<path class="st37" d="M982.3,1185.6c-21.4-82.4-51-156.9-52.3-160l-91,36.4c0.3,0.6,25.6,64.2,45.1,135.8
			c12.7,46.7,18.5,80.2,20.8,103.8c32.5-11.5,63.6-25.8,93.2-42.7C994.4,1236.6,989.1,1212.1,982.3,1185.6z"/>
	</g>
</g>
</svg>
