<?xml version="1.0" encoding="utf-8"?>
<!-- Generator: Adobe Illustrator 22.1.0, SVG Export Plug-In . SVG Version: 6.00 Build 0)  -->
<svg version="1.1" xmlns="http://www.w3.org/2000/svg" xmlns:xlink="http://www.w3.org/1999/xlink" x="0px" y="0px"
	 viewBox="0 0 1455 1455" style="enable-background:new 0 0 1455 1455;" xml:space="preserve">
<style type="text/css">
	.st0{fill:#F7941D;}
	.st1{fill:#DABCAA;}
	.st2{fill:#00A9BB;}
	.st3{fill:#0098A8;}
	.st4{fill:#00A79D;}
	.st5{fill:#FFF200;}
	.st6{fill:#F5E0CD;}
	.st7{fill:#008C84;}
	.st8{fill:#C1B2A5;}
	.st9{fill:#F0D0B4;}
	.st10{fill:#543E36;}
	.st11{fill:#6A330D;}
	.st12{fill:#72594B;}
	.st13{fill:#A8916D;}
	.st14{fill:#F0BEB4;}
	.st15{fill:#754C29;}
	.st16{fill:#FFD883;}
	.st17{fill:#F15A29;}
	.st18{fill:none;stroke:#000000;stroke-width:6;stroke-linecap:round;stroke-miterlimit:10;}
	.st19{fill:none;stroke:#000000;stroke-width:7;stroke-linecap:round;stroke-miterlimit:10;}
	.st20{fill:none;stroke:#000000;stroke-width:8;stroke-linecap:round;stroke-miterlimit:10;}
	.st21{fill:none;stroke:#000000;stroke-width:3;stroke-linecap:round;stroke-miterlimit:10;}
	.st22{fill:#DAC8B9;}
	.st23{fill:#BBA294;}
	.st24{fill:#EF4136;}
	.st25{fill:#FEFEFE;}
	.st26{fill:#FBCF9E;}
	.st27{fill:#594A42;}
	.st28{fill:#BE1E2D;}
	.st29{fill:#FFFFFF;}
	.st30{fill:#808285;}
	.st31{fill:#48484A;}
	.st32{fill:#58595B;}
	.st33{fill:#666666;}
	.st34{fill:#4F7793;}
	.st35{fill:#C3DA60;}
	.st36{fill:#9FCD5A;}
	.st37{fill:#F282AC;}
	.st38{fill:#E6E7E8;}
	.st39{fill:#FBB040;}
	.st40{fill:#907C5D;}
	.st41{fill:#603913;}
	.st42{fill:#00AEEF;}
	.st43{fill:#AFB9D2;}
	.st44{fill:#969CB3;}
	.st45{fill:#D8DEEC;}
	.st46{fill:#F0F3FA;}
	.st47{fill:#FFD782;}
	.st48{fill:#FEC46F;}
	.st49{fill:#F16465;}
	.st50{fill:#D3555B;}
	.st51{fill:#41C7F2;}
	.st52{fill:#36BBED;}
	.st53{fill:#C4DC7B;}
	.st54{fill:#A6D16F;}
	.st55{fill:#A2D8CB;}
	.st56{fill:#7CCBBB;}
	.st57{fill:#D1D3D4;}
	.st58{fill:#ED1C24;}
	.st59{fill:#5B2A02;}
	.st60{fill:#F1CF9C;}
	.st61{fill:#262262;}
	.st62{fill:#D2B693;}
	.st63{opacity:0.38;fill:#27AAE1;}
	.st64{fill:#2B3990;}
	.st65{fill:#A7A9AC;}
	.st66{fill:#6D6E71;}
	.st67{fill:#343B6F;}
	.st68{fill:#F1F0F0;}
	.st69{fill:#F1AE5B;}
	.st70{fill:#F9DF74;}
	.st71{fill:#5A98D1;}
	.st72{fill:#494C80;}
	.st73{fill:#EF487D;}
	.st74{fill:#39B54A;}
	.st75{fill:#FBB15F;}
	.st76{fill:#79684D;}
	.st77{fill:#BCE6FB;}
	.st78{fill:#94D9F8;}
	.st79{fill:#DA1C5C;}
	.st80{fill:#48342C;}
	.st81{fill:#D8D9DA;}
	.st82{fill:#414042;}
	.st83{fill:#000834;}
	.st84{fill:#D9EEE5;}
	.st85{fill:#FDDB42;}
	.st86{fill:#8DC63F;}
	.st87{fill:#9BD7D5;}
	.st88{fill:#C9B099;}
	.st89{fill:#EAC679;}
	.st90{fill:#C4D7CF;}
	.st91{fill:#1B75BC;}
	.st92{fill:#009444;}
	.st93{fill:none;stroke:#39B54A;stroke-width:17;stroke-miterlimit:10;}
	.st94{fill:none;stroke:#A8916D;stroke-width:74;stroke-miterlimit:10;}
	.st95{fill:none;stroke:#F1CF9C;stroke-width:75;stroke-miterlimit:10;}
	.st96{fill:none;stroke:#0098A8;stroke-width:74;stroke-miterlimit:10;}
	.st97{fill:none;stroke:#00A9BB;stroke-width:74;stroke-miterlimit:10;}
	.st98{fill:none;stroke:#F5E0CD;stroke-width:74;stroke-miterlimit:10;}
	.st99{fill:none;stroke:#F5E0CD;stroke-width:72;stroke-miterlimit:10;}
	.st100{fill:none;stroke:#594A42;stroke-width:8;stroke-linecap:round;stroke-miterlimit:10;}
	.st101{fill:none;stroke:#BE1E2D;stroke-width:8;stroke-linecap:round;stroke-miterlimit:10;}
	.st102{fill:none;stroke:#48484A;stroke-width:11;stroke-miterlimit:10;}
	.st103{fill:#FFFFFF;stroke:#BE1E2D;stroke-width:7;stroke-linecap:round;stroke-linejoin:round;stroke-miterlimit:10;}
	.st104{fill:none;stroke:#F15A29;stroke-width:18;stroke-miterlimit:10;}
	.st105{fill:#A8916D;stroke:#907C5D;stroke-width:3;stroke-linecap:round;stroke-linejoin:round;stroke-miterlimit:10;}
	.st106{fill:none;stroke:#907C5D;stroke-width:3;stroke-linecap:round;stroke-linejoin:round;stroke-miterlimit:10;}
	.st107{fill:#FFFFFF;stroke:#000000;stroke-width:7;stroke-linecap:round;stroke-linejoin:round;stroke-miterlimit:10;}
	.st108{fill:none;stroke:#2B3990;stroke-width:15;stroke-miterlimit:10;}
</style>
<g id="Layer_1">
</g>
<g id="heads">
	<g>
		<circle class="st39" cx="712.3" cy="757" r="577.4"/>
		<path class="st60" d="M325.9,1271.6c-18.3,0-34.2-1.2-47.6-3.6c-15.1-2.7-27.4-6.9-37.7-12.9c-19.6-11.4-27.3-26.9-30.3-37.8
			c-9.3-34.1,17-63.9,25.7-73.7c13.1-14.8,31.7-31.5,55.4-49.6c38.7-29.5,78.2-53.3,79.9-54.3l38.6,64.3c-0.3,0.2-31,18.7-63,42.1
			c-31.1,22.8-47.2,38.4-55.5,47.9c12.6,2.3,36.1,4.1,77.3,0.4c41.3-3.7,77.8-10.9,78.2-11l14.7,73.6c-2.1,0.4-51.5,10.2-103.5,13.5
			C346.6,1271.2,335.9,1271.6,325.9,1271.6z"/>
		<path class="st60" d="M953.6,1265.5c-3.5,0-5.7,0-6,0l1.1-75c0.4,0,39.8,0.5,82.7-3.6c48.5-4.7,72-12.3,82.6-17.2
			c-7.1-9-23.1-25.6-58.5-51.5c-32-23.5-62.7-42-63-42.1l38.6-64.3c1.7,1,41.2,24.7,79.9,54.3c23.7,18.1,42.3,34.8,55.4,49.6
			c8.7,9.8,35,39.7,25.7,73.7c-6.7,24.4-27.6,42.8-62.3,54.8c-20.4,7.1-46.9,12.5-78.8,16.1C1008.9,1265,968.6,1265.5,953.6,1265.5z
			"/>
		<path class="st60" d="M779.4,729.5H655.5v197.4h0.2c0.1,34,27.7,61.5,61.7,61.5s61.6-27.5,61.7-61.5h0.2V729.5z"/>
		<path class="st61" d="M886.8,874.9H779.4v51.9h-0.2c-0.1,34-27.7,61.5-61.7,61.5s-61.6-27.5-61.7-61.5h-0.2v-51.9h-19.4
			l-143.4,11.8c-27.7,2.3-52.9,16.9-68.6,39.8l-87.6,127.7l129.7,81.8l56.3-94.2l-21.4,252.7c65.4,25.7,136.6,39.8,211.2,39.8
			c81.2,0,158.5-16.8,228.5-47l-21.3-239.2l63.7,61.9l100.7-113L941.4,892.8C925.5,881.2,906.4,874.9,886.8,874.9z"/>
		
			<ellipse transform="matrix(0.9994 -3.505687e-02 3.505687e-02 0.9994 -18.344 18.191)" class="st60" cx="509.6" cy="532.2" rx="47.8" ry="72.8"/>
		<path class="st60" d="M925.3,467.1c0-114.8-93.1-207.8-207.8-207.8s-207.8,93.1-207.8,207.8c0,225,64,338.1,207.8,338.1
			C879.1,805.2,925.3,687.3,925.3,467.1z"/>
		<path class="st62" d="M655.5,826.8c18.7,5.6,39.3,8.4,61.9,8.4c22.9,0,43.5-2.4,61.9-7.1v-30c-18.5,4.7-39,7.1-61.9,7.1
			c-22.6,0-43.2-2.8-61.9-8.4V826.8z"/>
		<path class="st62" d="M785.6,597.5H771V468.9c0-11.8-9.6-21.4-21.4-21.4h0c-11.8,0-21.4,9.6-21.4,21.4v154.8l0,0v4.9
			c0,11.8,9.6,21.4,21.4,21.4h0c0.8,0,1.5,0,2.3-0.1c0.8,0.1,1.7,0.1,2.6,0.1h31.2c14.5,0,26.3-11.8,26.3-26.3l0,0
			C811.9,609.3,800.1,597.5,785.6,597.5z"/>
		<ellipse cx="835.4" cy="466.7" rx="9.3" ry="21"/>
		<path class="st27" d="M673.2,415.8c-1.2,0-2.3-0.5-3.1-1.5c-4.2-5.2-8.6-8-13.2-8.2c-5.1-0.2-10.6,2.5-16.2,8.3l-0.3,0.3
			c-1.6,1.6-4.1,1.6-5.7,0c-1.6-1.6-1.6-4.1,0-5.7l0.2-0.2c7.3-7.5,14.8-11.1,22.3-10.7c6.9,0.3,13.3,4.1,19,11.2
			c1.4,1.7,1.1,4.2-0.6,5.6C674.9,415.5,674.1,415.8,673.2,415.8z"/>
		<path class="st27" d="M853.2,412c-1.2,0-2.3-0.5-3.1-1.5c-4.2-5.2-8.6-8-13.2-8.2c-5.1-0.3-10.6,2.5-16.2,8.3l-0.3,0.3
			c-1.6,1.6-4.1,1.6-5.7,0c-1.6-1.6-1.6-4.1,0-5.7l0.2-0.2c7.3-7.5,14.8-11.1,22.3-10.7c6.9,0.3,13.3,4.1,19,11.2
			c1.4,1.7,1.1,4.2-0.6,5.6C854.9,411.8,854.1,412,853.2,412z"/>
		<path d="M747,690.9c-5.3,0-10.1-0.5-14.5-1.3c-20-3.6-33.7-13.2-34.3-13.6c-1.8-1.3-2.2-3.8-1-5.6c1.3-1.8,3.8-2.2,5.6-1l0,0
			c0.1,0.1,13.1,9.1,31.4,12.3c24.2,4.3,46.1-3.1,65.1-21.8c1.6-1.5,4.1-1.5,5.7,0c1.6,1.6,1.5,4.1,0,5.7
			C784.9,685.5,764,690.9,747,690.9z"/>
		<ellipse cx="655.4" cy="471.8" rx="9.3" ry="21"/>
		<path d="M921.9,428L921.9,428c-15,0.1-105.2-1.6-124.3,5.9c-10.3,4-21.2,8.9-31.6,9.3c-21.5,0.9-41.9-1.7-44.5-1.7
			c-5.5,0-21-6.5-22.4-6.8c-44.3-10.3-116.4-6.7-131.4-6.7h-33.3v22c0,0,5.2-1.1,6.4,0c6.8,6,5.9,19.3,7.7,27.4l7.5,34.3
			c4.2,19.1,22.1,25.4,30.7,28.4c15.2,5.4,28.5,7.8,43.2,7.8c14,0,29.4-2.2,49.9-7.1c20.7-4.9,32-20.7,35-42.3
			c1.2-9,2.3-29.2,6.2-34.5c15.4-20.7,34.1-14.7,45.7-4.2c9,8.1,9.8,29.5,12,39.9c4.5,21.3,15.2,36.2,35.9,41.2
			c20.5,4.9,35.9,7.1,49.9,7.1c0,0,0,0,0,0c14.7,0,28-2.4,43.2-7.8c8.6-3,26.5-9.4,30.7-28.4l7.5-34.3c1.8-8.1,0-21.2,6.5-27.4
			c1.3-1.3,7.2,0,7.2,0v-22H921.9z M709.7,474.1l-4.6,23.8c-1.4,11.5-7.1,26.9-27.8,31.8c-38.6,9.2-60.4,9-86.8-0.4
			c-10.7-3.8-20.9-8.8-23.4-20.1l-7.5-34.3c-2.9-13,0.3-31.5,13.3-32.9c29.5-3.1,68.8-6.8,120.4,2.8
			C705.6,447.1,712.1,461.5,709.7,474.1z M935,474.9l-7.5,34.3c-2.5,11.3-12.6,16.3-23.4,20.1c-26.4,9.3-48.1,9.6-86.8,0.4
			c-20.7-4.9-26.4-20.3-27.8-31.8l-4.6-23.8c-2.5-12.6,3.6-23.6,15.8-26.7c51.1-13,93.2-9.8,119.4-7.3
			C937.6,441.8,937.9,461.9,935,474.9z"/>
		<path d="M512.8,548.8c18.7,0,22-102.8,33-117.9c5.9-8.2,28.7-13.8,33.4-22.7c10.6-20.1-20.5-81.1,0-90.8
			c13.9,0.2,29.7,60.4,87.8,71.9c11.1-5.3-32.7-48.1-21-80.6c24.7-11.5,27.1,101.4,104.6,101.4c13.7,0-52.4-85.5-40.5-92.4
			c23.9-13.9,118.7,113.4,136.7,92.4c9.8-11.5-81.2-90.8-71.4-102.3c15.6-18.3,123.9,71.2,138.1,90.5
			c17.5,23.8-17.9,137.5,11.7,138.2c41.1,0.9,44.8-130.1,34.5-169.9c-19.7-76.1-51.1-166.3-249.6-166.3
			c-82.9,0-179.9,91.4-206.1,170C493.4,402.1,496.1,548.8,512.8,548.8z"/>
		<path class="st63" d="M709.7,474.1l-4.6,23.8c-1.4,11.5-7.1,26.9-27.8,31.8c-38.6,9.2-60.4,9-86.8-0.4
			c-10.7-3.8-20.9-8.8-23.4-20.1l-7.5-34.3c-2.9-13,0.3-31.5,13.3-32.9c29.5-3.1,68.8-6.8,120.4,2.8
			C705.6,447.1,712.1,461.5,709.7,474.1z"/>
		<path class="st63" d="M935,474.9l-7.5,34.3c-2.5,11.3-12.6,16.3-23.4,20.1c-26.4,9.3-48.1,9.6-86.8,0.4
			c-20.7-4.9-26.4-20.3-27.8-31.8l-4.6-23.8c-2.5-12.6,3.6-23.6,15.8-26.7c51.1-13,93.2-9.8,119.4-7.3
			C937.6,441.8,937.9,461.9,935,474.9z"/>
		<path class="st64" d="M716.5,995.8c-39.6,0-72.4-27-76.7-61.5H639v-59.4h15v44.4h0.3l0,7.5c0.1,29.8,28,54,62.2,54
			s62.1-24.2,62.2-54l0-7.5h0.3v-44.4h15v59.4h-0.8C788.9,968.8,756.1,995.8,716.5,995.8z"/>
		<path class="st57" d="M860.4,1273.1H407.5L381,971.8c-1.9-21.6,15.1-40.2,36.8-40.2h378.6c19.2,0,35.2,14.7,36.8,33.8
			L860.4,1273.1z"/>
		<path class="st65" d="M840.4,965.4c-1.7-19.1-17.7-33.8-36.8-33.8h-7c19.2,0,35.2,14.7,36.8,33.8l27,307.7h7L840.4,965.4z"/>
		<rect x="407.5" y="1273.1" class="st65" width="452.9" height="12.1"/>
		<rect x="860.4" y="1273.1" class="st66" width="107.2" height="12.1"/>
		<g>
			<path class="st29" d="M594.3,1137.4c-0.8-0.8-1.6-1.7-2.3-2.6l-23.3,23.3c-1.3,1.3-1.3,3.5,0,4.9c0,0,0,0,0,0h0
				c0.3,0.3,0.7,0.6,1.1,0.8s0.9,0.3,1.3,0.3c0.4,0,0.9-0.1,1.3-0.3c0.4-0.2,0.8-0.4,1.1-0.8l23.3-23.3c-0.3-0.3-0.7-0.6-1-0.9
				C595.3,1138.4,594.8,1137.9,594.3,1137.4z"/>
			<path class="st29" d="M673.5,1061.6c0-0.1,0-0.1,0-0.1c-0.1-1.8-1.5-3.2-3.3-3.3c-2.1-0.1-53.1-2.3-75.9,20.6
				c-7.8,7.8-12.1,18.2-12.1,29.3c0,9.9,3.5,19.3,9.8,26.8l11.1-11.1v-23c0-1.9,1.5-3.5,3.5-3.5c1.9,0,3.5,1.5,3.5,3.5v16.1
				l15.1-15.1v-23c0-1.9,1.5-3.5,3.5-3.5s3.5,1.5,3.5,3.5v16.1l16.1-16.1c1.3-1.4,3.5-1.4,4.9,0c0.7,0.7,1,1.6,1,2.4
				c0,0.9-0.3,1.8-1,2.4l-16.1,16.1h16.1c1.9,0,3.5,1.5,3.5,3.5s-1.5,3.5-3.5,3.5h-23l-15.1,15.1h16.1c1.9,0,3.5,1.5,3.5,3.5
				s-1.5,3.5-3.5,3.5h-23l-11.1,11.1c7.2,6.1,15.9,9.3,24.8,9.7c0.7,0,1.3,0,2,0c0.7,0,1.3,0,2,0c2.7-0.1,5.3-0.5,7.9-1.1
				c0.6-0.2,1.3-0.3,1.9-0.5c5.8-1.7,11.2-4.7,16-9c0.5-0.5,1-1,1.5-1.5c2.5-2.5,4.7-5.3,6.6-8.4c1.1-1.8,2.1-3.6,3.1-5.5
				s1.8-3.8,2.6-5.8c7.5-18.9,8.4-41.3,8.4-51.2C673.6,1063.9,673.5,1062.1,673.5,1061.6z"/>
		</g>
		<path class="st60" d="M770.9,1228.6c-6,2.6-8.1,13.5-15.9,10.2c-7.3-3.2-0.3-12.8-5.2-19.3c-3.3,1.4-6.9,2.9-10.4,4.4
			c-4.5,1.8-9.6,3.8-13.3-0.1c-4.2-4.4,0.4-9.1,2-13c18.4-46.4,61.1-74.7,110.7-75.8c17.4-0.4,29.2,9.7,42.8,16.8
			c3,1.6,6.1,3.3,8.5,5.5c45.5,42.8,93.1,32.8,156.9,30c12.9-0.6,25.2,0.5,38-0.6c0.7-0.1,1.4-0.2,2-0.1
			c11.5,1.8,18.8,28.4,16.3,56.8c-1.2,13.9-11.6,14.3-24.8,13.3c-110,19.2-121.4-1.8-183.5,9.3c-27.2,4.8-49.1-7.1-66.5-27.5
			c-7.8-9.2-13.7-15.1-25-2.1C793.7,1247.4,775.4,1242,770.9,1228.6z"/>
	</g>
</g>
</svg>
