<?xml version="1.0" encoding="utf-8"?>
<!-- Generator: Adobe Illustrator 22.1.0, SVG Export Plug-In . SVG Version: 6.00 Build 0)  -->
<svg version="1.1" xmlns="http://www.w3.org/2000/svg" xmlns:xlink="http://www.w3.org/1999/xlink" x="0px" y="0px"
	 viewBox="0 0 1455 1455" style="enable-background:new 0 0 1455 1455;" xml:space="preserve">
<style type="text/css">
	.st0{fill:#F7941D;}
	.st1{fill:#DABCAA;}
	.st2{fill:#00A9BB;}
	.st3{fill:#0098A8;}
	.st4{fill:#00A79D;}
	.st5{fill:#FFF200;}
	.st6{fill:#F5E0CD;}
	.st7{fill:#008C84;}
	.st8{fill:#C1B2A5;}
	.st9{fill:#F0D0B4;}
	.st10{fill:#543E36;}
	.st11{fill:#6A330D;}
	.st12{fill:#72594B;}
	.st13{fill:#A8916D;}
	.st14{fill:#F0BEB4;}
	.st15{fill:#754C29;}
	.st16{fill:#FFD883;}
	.st17{fill:#F15A29;}
	.st18{fill:none;stroke:#000000;stroke-width:6;stroke-linecap:round;stroke-miterlimit:10;}
	.st19{fill:none;stroke:#000000;stroke-width:7;stroke-linecap:round;stroke-miterlimit:10;}
	.st20{fill:none;stroke:#000000;stroke-width:8;stroke-linecap:round;stroke-miterlimit:10;}
	.st21{fill:none;stroke:#000000;stroke-width:3;stroke-linecap:round;stroke-miterlimit:10;}
	.st22{fill:#DAC8B9;}
	.st23{fill:#BBA294;}
	.st24{fill:#EF4136;}
	.st25{fill:#FEFEFE;}
	.st26{fill:#FBCF9E;}
	.st27{fill:#594A42;}
	.st28{fill:#BE1E2D;}
	.st29{fill:#FFFFFF;}
	.st30{fill:#808285;}
	.st31{fill:#48484A;}
	.st32{fill:#58595B;}
	.st33{fill:#666666;}
	.st34{fill:#4F7793;}
	.st35{fill:#C3DA60;}
	.st36{fill:#9FCD5A;}
	.st37{fill:#F282AC;}
	.st38{fill:#E6E7E8;}
	.st39{fill:#FBB040;}
	.st40{fill:#907C5D;}
	.st41{fill:#603913;}
	.st42{fill:#00AEEF;}
	.st43{fill:#AFB9D2;}
	.st44{fill:#969CB3;}
	.st45{fill:#D8DEEC;}
	.st46{fill:#F0F3FA;}
	.st47{fill:#FFD782;}
	.st48{fill:#FEC46F;}
	.st49{fill:#F16465;}
	.st50{fill:#D3555B;}
	.st51{fill:#41C7F2;}
	.st52{fill:#36BBED;}
	.st53{fill:#C4DC7B;}
	.st54{fill:#A6D16F;}
	.st55{fill:#A2D8CB;}
	.st56{fill:#7CCBBB;}
	.st57{fill:#D1D3D4;}
	.st58{fill:#ED1C24;}
	.st59{fill:#5B2A02;}
	.st60{fill:#F1CF9C;}
	.st61{fill:#262262;}
	.st62{fill:#D2B693;}
	.st63{opacity:0.38;fill:#27AAE1;}
	.st64{fill:#2B3990;}
	.st65{fill:#A7A9AC;}
	.st66{fill:#6D6E71;}
	.st67{fill:#343B6F;}
	.st68{fill:#F1F0F0;}
	.st69{fill:#F1AE5B;}
	.st70{fill:#F9DF74;}
	.st71{fill:#5A98D1;}
	.st72{fill:#494C80;}
	.st73{fill:#EF487D;}
	.st74{fill:#39B54A;}
	.st75{fill:#FBB15F;}
	.st76{fill:#79684D;}
	.st77{fill:#BCE6FB;}
	.st78{fill:#94D9F8;}
	.st79{fill:#DA1C5C;}
	.st80{fill:#48342C;}
	.st81{fill:#D8D9DA;}
	.st82{fill:#414042;}
	.st83{fill:#000834;}
	.st84{fill:#D9EEE5;}
	.st85{fill:#FDDB42;}
	.st86{fill:#8DC63F;}
	.st87{fill:#9BD7D5;}
	.st88{fill:#C9B099;}
	.st89{fill:#EAC679;}
	.st90{fill:#C4D7CF;}
	.st91{fill:#1B75BC;}
	.st92{fill:#009444;}
	.st93{fill:none;stroke:#39B54A;stroke-width:17;stroke-miterlimit:10;}
	.st94{fill:none;stroke:#A8916D;stroke-width:74;stroke-miterlimit:10;}
	.st95{fill:none;stroke:#F1CF9C;stroke-width:75;stroke-miterlimit:10;}
	.st96{fill:none;stroke:#0098A8;stroke-width:74;stroke-miterlimit:10;}
	.st97{fill:none;stroke:#00A9BB;stroke-width:74;stroke-miterlimit:10;}
	.st98{fill:none;stroke:#F5E0CD;stroke-width:74;stroke-miterlimit:10;}
	.st99{fill:none;stroke:#F5E0CD;stroke-width:72;stroke-miterlimit:10;}
	.st100{fill:none;stroke:#594A42;stroke-width:8;stroke-linecap:round;stroke-miterlimit:10;}
	.st101{fill:none;stroke:#BE1E2D;stroke-width:8;stroke-linecap:round;stroke-miterlimit:10;}
	.st102{fill:none;stroke:#48484A;stroke-width:11;stroke-miterlimit:10;}
	.st103{fill:#FFFFFF;stroke:#BE1E2D;stroke-width:7;stroke-linecap:round;stroke-linejoin:round;stroke-miterlimit:10;}
	.st104{fill:none;stroke:#F15A29;stroke-width:18;stroke-miterlimit:10;}
	.st105{fill:#A8916D;stroke:#907C5D;stroke-width:3;stroke-linecap:round;stroke-linejoin:round;stroke-miterlimit:10;}
	.st106{fill:none;stroke:#907C5D;stroke-width:3;stroke-linecap:round;stroke-linejoin:round;stroke-miterlimit:10;}
	.st107{fill:#FFFFFF;stroke:#000000;stroke-width:7;stroke-linecap:round;stroke-linejoin:round;stroke-miterlimit:10;}
	.st108{fill:none;stroke:#2B3990;stroke-width:15;stroke-miterlimit:10;}
</style>
<g id="Layer_1">
</g>
<g id="heads">
	<circle class="st5" cx="712.3" cy="757" r="577.4"/>
	<path class="st6" d="M1207.4,1346.1c-50.6,0-104.9-48.7-169.9-151.7c-45.4-72-79.1-144.3-80.5-147.3l67.1-31.2
		c0.3,0.7,33.4,71.5,76.3,139.6c24.4,38.7,47.1,68.8,67.3,89.3c17.6,17.9,29.7,24.6,36,26.6c5.2-8.5,17.1-35.4,25.1-111.4
		c5.6-53.6,6.1-102.8,6.1-103.3l74,0.6c0,2.6-0.6,63.8-8.4,127.1c-4.7,38.5-11.2,70-19.2,93.6c-5.6,16.4-12,29.4-19.6,39.6
		c-14.8,20-31.8,26.1-43.5,27.7C1214.6,1345.9,1211,1346.1,1207.4,1346.1z"/>
	<path class="st6" d="M203,1310.8c-2.5,0-5-0.2-7.5-0.5c-20.2-2.6-37.7-13.2-50.7-30.9c-15.4-20.9-24.8-51.8-28.6-94.6
		c-2.7-30.3-2.7-66.9,0-108.7c4.6-70.1,15.3-130.8,15.7-133.4l70.9,12.5c-0.1,0.7-12.1,69.2-15.7,141.2
		c-5.4,107.1,11.4,135.3,16.4,141.2c7.9-4.4,32.6-22.8,80.4-96.2c32-49.2,57.5-97.1,57.7-97.6l63.7,33.6
		c-1.2,2.3-30.5,57.6-67.3,112.8C282.2,1274.1,241.2,1310.8,203,1310.8z"/>
	<path class="st2" d="M980.2,906.2c-123.4-85.3-416.6-122.7-549.1-52.3C370.4,886.2,294.1,1082,294.1,1082l137.1,35.8l74.3-102.7
		c1.7-2.3,5.3-0.8,4.8,2l-40.6,264c73.8,34.2,156,53.3,242.7,53.3c59.5,0,116.9-9,170.9-25.7l26.6-224.5
		c1.4-12.1,16.8-16.3,24.2-6.7l65.3,84.8l95.1-39.8C1094.3,1122.5,1036.5,945.1,980.2,906.2z"/>
	<path class="st6" d="M789.2,723.7l-111.6-11.8l-16.9,159.3l1.6,0.2c-0.4,2.5-0.5,5.1-0.5,7.7c0,30.7,24.9,55.6,55.6,55.6
		s55.6-24.9,55.6-55.6c0-0.9,0-1.7-0.1-2.5L789.2,723.7z"/>
	<path d="M698.9,158.9c0,0-138.3-42.9-202.4,36.1c-21.6,26.6-47.4,61.9,0,134.1s-73.8,43.4-95,61.9c-20.1,17.5,12.7,80.3,0,103.2
		c-13.3,24-81.1,37.9-94.5,61.9c-11.4,20.6,9.5,71.4,0,92.8c-9,20.3-75.2,41.6-66.3,61.9c10.8,24.8,85.3-0.7,113.7,0
		c187.3,4.5,562.8,60.4,748.3,36.1c42.1-5.5,154.1-12,161-51.6c4.4-25-73.4-39.1-85.3-61.9c-9.7-18.5,10.5-64.4,0-82.5
		c-13.5-23.2-86.2-31.5-94.7-56.7c-7.6-22.5,45.4-65.1,37.9-87.7c-11.2-33.7-107.6-46.3-125.5-77.4c-15.6-27.2,21.2-100.2,0-123.8
		C947.5,151.2,698.9,158.9,698.9,158.9z"/>
	<path class="st6" d="M975.1,418.8c0-114.8-93.1-207.8-207.8-207.8S559.4,304,559.4,418.8c0,225,102.5,338.1,207.8,338.1
		C872.6,756.9,975.1,639,975.1,418.8z"/>
	<path class="st8" d="M676.1,726.5l-2.5,23.2c29,21.5,61.2,32.2,93.7,32.2c5.3,0,10.6-0.3,15.8-0.9l2.7-25.3
		c-6.2,0.8-12.3,1.2-18.5,1.2C735.7,756.9,704.4,746.8,676.1,726.5z"/>
	<path class="st22" d="M798.1,566.4h-30.8V419.3l24.9,11.2c8.6,3.9,15,12.2,17.4,22.5l16.4,71.3
		C830.9,545.5,817.1,566.4,798.1,566.4z"/>
	<ellipse cx="870" cy="419.3" rx="9.3" ry="21"/>
	<path class="st27" d="M707.8,368.4c-1.2,0-2.3-0.5-3.1-1.5c-4.2-5.2-8.6-8-13.2-8.2c-5.1-0.3-10.6,2.5-16.2,8.3l-0.3,0.3
		c-1.6,1.6-4.1,1.6-5.7,0c-1.6-1.6-1.6-4.1,0-5.7l0.2-0.2c7.3-7.5,14.8-11.1,22.3-10.7c6.9,0.3,13.3,4.1,19,11.2
		c1.4,1.7,1.1,4.2-0.6,5.6C709.5,368.1,708.6,368.4,707.8,368.4z"/>
	<path class="st27" d="M887.8,364.6c-1.2,0-2.3-0.5-3.1-1.5c-4.2-5.2-8.6-8-13.2-8.2c-5.1-0.3-10.6,2.5-16.2,8.3l-0.3,0.3
		c-1.6,1.6-4.1,1.6-5.7,0s-1.6-4.1,0-5.7l0.2-0.2c7.3-7.5,14.8-11.1,22.3-10.7c6.9,0.3,13.3,4.1,19,11.2c1.4,1.7,1.1,4.2-0.6,5.6
		C889.5,364.3,888.6,364.6,887.8,364.6z"/>
	<path class="st28" d="M781.5,643.5c-5.3,0-10.1-0.5-14.5-1.3c-20-3.6-33.7-13.2-34.3-13.6c-1.8-1.3-2.2-3.8-1-5.6
		c1.3-1.8,3.8-2.2,5.6-1l0,0c0.1,0.1,13.1,9.1,31.4,12.3c24.2,4.3,46.1-3.1,65.1-21.8c1.6-1.6,4.1-1.5,5.7,0s1.5,4.1,0,5.7
		C819.4,638,798.6,643.5,781.5,643.5z"/>
	<ellipse cx="690" cy="424.4" rx="9.3" ry="21"/>
	<path class="st6" d="M1261.2,888.1c11.6-11.8,4.8-20.8,5.3-29.1c1.5-24,2-48.1,8-71.7c2.1-8.3,2.5-18.3,13.8-16.6
		c11,1.6,9.2,11.9,9.2,20.1c-0.2,32.3-0.4,64.7-0.6,99.9c13.8-23.1,6.7-48.3,15.7-69.8c1.4-3.4,1-7.6,2.4-11
		c2.4-6,3.8-14.8,12.7-13.1c8.1,1.6,8.8,10.1,8.5,16.6c-0.7,13.5-2.8,26.9-4.4,40.4c-1.7,15.2-3.5,30.4-3.2,46
		c11.1-11.1,8.5-26.6,13.9-39.3c2.4-5.4,3.1-11.6,5-17.3c1.7-5.2,3.9-10.2,10.8-9.3c8.3,1.1,8.2,7.5,8,13.7
		c-1.2,33.3-10.3,65.4-17.7,97.5c-7.1,31.1-15.9,61-31.9,90.3c-14.3,26.2-21.2,62.1-19.3,93.6c1.4,23.4-2.8,46.7,0.7,69.9
		c1.1,7-10.7,12.2-16.7,14.3c-22.8,7.8-25.9,6.9-48.6-0.7c-11.2-3.7-3.6-13.1-1.6-22.4c10-46,0.6-93,4.9-139.5
		c0.4-4.4,1.1-11.3-1.3-13c-23.1-16.4-23.3-44.8-36.1-66.5c-8.1-13.8-17-26.5-29.7-36.6c-5.3-4.2-10.5-10.5-6-17.6
		c5.2-8.2,12.1-1.5,18.2,0.1c9.9,2.6,16.8,9.4,23.6,16.7c5.8,6.3,10.9,17.1,21.6,12.4c10.1-4.4,8-15.9,7.4-24.4
		c-2.2-33.7-5.8-67.3-8.3-101c-1-13.4-8.5-34.4,8.4-36.9c16.8-2.4,16.8,20.1,19.1,33.3C1256.9,839.2,1258.3,861.7,1261.2,888.1z"/>
	<path class="st6" d="M199.7,757.5c-9.9-13.3-1.9-21.2-1.2-29.5c1.8-24,4.6-48,1.9-72.2c-0.9-8.5,0-18.4-11.4-18.4
		c-11.1,0.1-10.8,10.6-11.9,18.7c-4.3,32.1-8.5,64.1-13.1,99c-10.5-24.8,0-48.8-5.9-71.3c-0.9-3.6,0.1-7.6-0.8-11.2
		c-1.6-6.3-1.7-15.2-10.7-14.7c-8.2,0.4-10.1,8.8-10.7,15.3c-1.2,13.5-0.9,27-1.2,40.6c-0.4,15.3-0.7,30.6-3.2,46
		c-9.5-12.6-4.7-27.5-8.4-40.9c-1.6-5.7-1.5-11.9-2.5-17.8c-0.9-5.3-2.5-10.7-9.4-10.7c-8.4,0-9.1,6.3-9.8,12.5
		c-3.4,33.2,1.2,66.2,4.1,99c2.8,31.8,7.4,62.6,19.2,93.8c10.6,28,6.8,64.5,0.6,95.4c-4.6,23,2,46.6-4.7,69.1
		c-2,6.8,9,13.6,14.6,16.4c21.5,10.9,24.7,10.4,48.3,6c11.6-2.2,5.3-12.5,4.6-22c-3.5-46.9,14.6-78.5,16.7-125.2
		c0.2-4.4-1.9-25,0.6-26.3c25.1-13,29.2-41.2,44.9-60.9c9.9-12.5,20.5-23.9,34.5-32.1c5.8-3.4,11.8-9,8.4-16.6
		c-4-8.8-11.8-3.2-18-2.4c-10.2,1.2-17.9,7-25.7,13.3c-6.7,5.4-13.2,15.4-23.1,9.3c-9.4-5.8-5.7-16.9-4-25.2
		c6.8-33.1,15-65.9,22.1-98.9c2.8-13.2,13.2-32.9-3.2-37.7c-16.3-4.7-19.4,17.6-23.5,30.3C210.7,709.7,206.2,731.8,199.7,757.5z"/>
	<g>
		<path class="st30" d="M767.3,196.5c112.6,0,204.3,89.5,207.7,201.3c0.1-4,0.1-7.9,0.1-12c0-114.8-93.1-207.8-207.8-207.8
			S559.4,271,559.4,385.8c0,4.1,0,8.1,0.1,12.1C563,286.1,654.7,196.5,767.3,196.5z"/>
	</g>
	<path class="st30" d="M542.9,526.5L542.9,526.5c9.2,0,16.7-7.5,16.7-16.7v-95.3c0-9.2-7.5-16.7-16.7-16.7h0
		c-9.2,0-16.7,7.5-16.7,16.7v95.3C526.2,519,533.7,526.5,542.9,526.5z"/>
	<path class="st30" d="M991.8,526.5L991.8,526.5c9.2,0,16.7-7.5,16.7-16.7v-95.3c0-9.2-7.5-16.7-16.7-16.7l0,0
		c-9.2,0-16.7,7.5-16.7,16.7v95.3C975.1,519,982.6,526.5,991.8,526.5z"/>
	<path class="st31" d="M680,680.6c-0.3,0-25.7-3.5-53.3-9.9c-37.9-8.8-61.9-18.8-71.3-29.7c-19.1-22.2-18.2-105.2-18-114.6l11,0.2
		c0,0.2-0.4,22.5,1.5,47.1c3.2,42,10,55.8,13.9,60.2c15.8,18.4,90.3,32.1,117.7,35.8L680,680.6z"/>
	<path class="st32" d="M732.2,661.1c1.7,3,2.7,6.4,2.7,10.1v0c0,11.2-9.1,20.3-20.3,20.3H694c-5.7,0-10.9-2.4-14.6-6.2
		c3.5,6.1,10.1,10.2,17.6,10.2h20.6c11.2,0,20.3-9.1,20.3-20.3v0C737.9,669.7,735.8,664.7,732.2,661.1z"/>
	<path class="st33" d="M694,691.5h20.6c11.2,0,20.3-9.1,20.3-20.3v0c0-3.7-1-7.1-2.7-10.1c-3.7-3.8-8.9-6.2-14.6-6.2H697
		c-11.2,0-20.3,9.1-20.3,20.3v0c0,3.7,1,7.1,2.7,10.1C683.1,689.1,688.3,691.5,694,691.5z"/>
</g>
</svg>
