<?xml version="1.0" encoding="utf-8"?>
<!-- Generator: Adobe Illustrator 22.1.0, SVG Export Plug-In . SVG Version: 6.00 Build 0)  -->
<svg version="1.1" xmlns="http://www.w3.org/2000/svg" xmlns:xlink="http://www.w3.org/1999/xlink" x="0px" y="0px"
	 viewBox="0 0 1455 1455" style="enable-background:new 0 0 1455 1455;" xml:space="preserve">
<style type="text/css">
	.st0{fill:#F7941D;}
	.st1{fill:#DABCAA;}
	.st2{fill:#00A9BB;}
	.st3{fill:#0098A8;}
	.st4{fill:#00A79D;}
	.st5{fill:#FFF200;}
	.st6{fill:#F5E0CD;}
	.st7{fill:#008C84;}
	.st8{fill:#C1B2A5;}
	.st9{fill:#F0D0B4;}
	.st10{fill:#543E36;}
	.st11{fill:#6A330D;}
	.st12{fill:#72594B;}
	.st13{fill:#A8916D;}
	.st14{fill:#F0BEB4;}
	.st15{fill:#754C29;}
	.st16{fill:#FFD883;}
	.st17{fill:#F15A29;}
	.st18{fill:none;stroke:#000000;stroke-width:6;stroke-linecap:round;stroke-miterlimit:10;}
	.st19{fill:none;stroke:#000000;stroke-width:7;stroke-linecap:round;stroke-miterlimit:10;}
	.st20{fill:none;stroke:#000000;stroke-width:8;stroke-linecap:round;stroke-miterlimit:10;}
	.st21{fill:none;stroke:#000000;stroke-width:3;stroke-linecap:round;stroke-miterlimit:10;}
	.st22{fill:#DAC8B9;}
	.st23{fill:#BBA294;}
	.st24{fill:#EF4136;}
	.st25{fill:#FEFEFE;}
	.st26{fill:#FBCF9E;}
	.st27{fill:#594A42;}
	.st28{fill:#BE1E2D;}
	.st29{fill:#FFFFFF;}
	.st30{fill:#808285;}
	.st31{fill:#48484A;}
	.st32{fill:#58595B;}
	.st33{fill:#666666;}
	.st34{fill:#4F7793;}
	.st35{fill:#C3DA60;}
	.st36{fill:#9FCD5A;}
	.st37{fill:#F282AC;}
	.st38{fill:#E6E7E8;}
	.st39{fill:#FBB040;}
	.st40{fill:#907C5D;}
	.st41{fill:#603913;}
	.st42{fill:#00AEEF;}
	.st43{fill:#AFB9D2;}
	.st44{fill:#969CB3;}
	.st45{fill:#D8DEEC;}
	.st46{fill:#F0F3FA;}
	.st47{fill:#FFD782;}
	.st48{fill:#FEC46F;}
	.st49{fill:#F16465;}
	.st50{fill:#D3555B;}
	.st51{fill:#41C7F2;}
	.st52{fill:#36BBED;}
	.st53{fill:#C4DC7B;}
	.st54{fill:#A6D16F;}
	.st55{fill:#A2D8CB;}
	.st56{fill:#7CCBBB;}
	.st57{fill:#D1D3D4;}
	.st58{fill:#ED1C24;}
	.st59{fill:#5B2A02;}
	.st60{fill:#F1CF9C;}
	.st61{fill:#262262;}
	.st62{fill:#D2B693;}
	.st63{opacity:0.38;fill:#27AAE1;}
	.st64{fill:#2B3990;}
	.st65{fill:#A7A9AC;}
	.st66{fill:#6D6E71;}
	.st67{fill:#343B6F;}
	.st68{fill:#F1F0F0;}
	.st69{fill:#F1AE5B;}
	.st70{fill:#F9DF74;}
	.st71{fill:#5A98D1;}
	.st72{fill:#494C80;}
	.st73{fill:#EF487D;}
	.st74{fill:#39B54A;}
	.st75{fill:#FBB15F;}
	.st76{fill:#79684D;}
	.st77{fill:#BCE6FB;}
	.st78{fill:#94D9F8;}
	.st79{fill:#DA1C5C;}
	.st80{fill:#48342C;}
	.st81{fill:#D8D9DA;}
	.st82{fill:#414042;}
	.st83{fill:#000834;}
	.st84{fill:#D9EEE5;}
	.st85{fill:#FDDB42;}
	.st86{fill:#8DC63F;}
	.st87{fill:#9BD7D5;}
	.st88{fill:#C9B099;}
	.st89{fill:#EAC679;}
	.st90{fill:#C4D7CF;}
	.st91{fill:#1B75BC;}
	.st92{fill:#009444;}
	.st93{fill:none;stroke:#39B54A;stroke-width:17;stroke-miterlimit:10;}
	.st94{fill:none;stroke:#A8916D;stroke-width:74;stroke-miterlimit:10;}
	.st95{fill:none;stroke:#F1CF9C;stroke-width:75;stroke-miterlimit:10;}
	.st96{fill:none;stroke:#0098A8;stroke-width:74;stroke-miterlimit:10;}
	.st97{fill:none;stroke:#00A9BB;stroke-width:74;stroke-miterlimit:10;}
	.st98{fill:none;stroke:#F5E0CD;stroke-width:74;stroke-miterlimit:10;}
	.st99{fill:none;stroke:#F5E0CD;stroke-width:72;stroke-miterlimit:10;}
	.st100{fill:none;stroke:#594A42;stroke-width:8;stroke-linecap:round;stroke-miterlimit:10;}
	.st101{fill:none;stroke:#BE1E2D;stroke-width:8;stroke-linecap:round;stroke-miterlimit:10;}
	.st102{fill:none;stroke:#48484A;stroke-width:11;stroke-miterlimit:10;}
	.st103{fill:#FFFFFF;stroke:#BE1E2D;stroke-width:7;stroke-linecap:round;stroke-linejoin:round;stroke-miterlimit:10;}
	.st104{fill:none;stroke:#F15A29;stroke-width:18;stroke-miterlimit:10;}
	.st105{fill:#A8916D;stroke:#907C5D;stroke-width:3;stroke-linecap:round;stroke-linejoin:round;stroke-miterlimit:10;}
	.st106{fill:none;stroke:#907C5D;stroke-width:3;stroke-linecap:round;stroke-linejoin:round;stroke-miterlimit:10;}
	.st107{fill:#FFFFFF;stroke:#000000;stroke-width:7;stroke-linecap:round;stroke-linejoin:round;stroke-miterlimit:10;}
	.st108{fill:none;stroke:#2B3990;stroke-width:15;stroke-miterlimit:10;}
</style>
<g id="Layer_1">
</g>
<g id="heads">
	<g>
		<circle class="st74" cx="712.3" cy="757" r="577.4"/>
		<path class="st13" d="M303,1322.2c-11,0-21.2-0.4-30.5-1.3c-40-3.8-66.8-16-82-37.2c-21.8-30.5-12.1-76.9,32.4-155.3
			c26.6-46.8,56.1-88,57.4-89.7l60,43.2l-30-21.6l30,21.6c-0.2,0.3-24.3,33.9-47.3,73c-31,52.8-37.8,77.5-39.3,86.9
			c9,3.8,36.9,10.9,110,2.3c53.6-6.3,102.4-17.8,102.9-18l17.1,72c-2.3,0.6-57.3,13.6-118,20.2
			C342.7,1320.9,321.7,1322.2,303,1322.2z"/>
		<path class="st13" d="M861.1,681.5H593.9c-41,0-74.3-33.2-74.3-74.3V427.8c0-94.9,77-171.9,171.9-171.9h71.9
			c94.9,0,171.9,77,171.9,171.9v179.5C935.3,648.3,902.1,681.5,861.1,681.5z"/>
		<rect x="638.2" y="635.9" class="st13" width="178.6" height="197.4"/>
		<path d="M924.3,412.7c-7.1,83.4-31.7,154.8-44.6,162.6c-3.5-0.5-30.2-14.1-42.4-19.4c-61.3-26.6-157.6-27.9-207.6-9.7
			c-52.8,19.2-43.2,23.9-46.7,24.4c-12.9-7.8-44.5-65.1-51.6-148.5l-11.9,5.7V614c0,0-5.7,48.7,36.3,67.5c12.1,39.2,27,50.5,68,50.5
			h197.2c41,0,58.7-11.2,70.4-50.5c52.5-10.9,43.9-67.5,43.9-67.5V427.8L924.3,412.7z"/>
		<g>
			<path class="st0" d="M507.1,247.8c0,0,37.2-136.3,224.7-124.5c0,0,176-8.9,197.3,98.9c0,0,38.9,57.5,24.2,118.2
				c-4.1,16.8-17.9,68.6-17.9,68.6l-236-145.4L507.1,247.8z"/>
			<path class="st39" d="M520.3,412.7c0,0-17.3-32.5-15.9-118.1c0,0-17.7-97.4,81.2-106.3c0,0,230.7,63.2,343.4,216.9L764,289
				l-138.5,45.4L520.3,412.7z"/>
			<path class="st75" d="M519.7,427.8l-2-42.4c0,0,40.8-121.5,209.3-126.7c0,0,136.7,29.6,211.9,137.2l-3.5,31.8
				c0,0-59.7-106.6-246.6-99C642.8,330.6,519.7,427.8,519.7,427.8z"/>
		</g>
		<path class="st13" d="M820,681.5H635c-9.6,0-17.3-7.8-17.3-17.3v-71.6c0-9.6,7.8-17.3,17.3-17.3h185c9.6,0,17.3,7.8,17.3,17.3
			v71.6C837.3,673.8,829.6,681.5,820,681.5z"/>
		<path class="st76" d="M757,504.5h-1v-89h-57v89h-1c-9.7,0-17.6,7.9-17.6,17.6v0c0,9.7,7.9,17.6,17.6,17.6h59
			c9.7,0,17.6-7.9,17.6-17.6v0C774.6,512.4,766.7,504.5,757,504.5z"/>
		<ellipse cx="817.5" cy="428.6" rx="9.3" ry="21"/>
		<path class="st27" d="M655.3,377.7c-1.2,0-2.3-0.5-3.1-1.5c-4.2-5.2-8.6-8-13.2-8.2c-5.1-0.3-10.6,2.5-16.2,8.3l-0.3,0.3
			c-1.6,1.6-4.1,1.6-5.7,0c-1.6-1.6-1.6-4.1,0-5.7l0.2-0.2c7.3-7.5,14.8-11.1,22.3-10.7c6.9,0.3,13.3,4.1,19,11.2
			c1.4,1.7,1.1,4.2-0.6,5.6C657,377.4,656.2,377.7,655.3,377.7z"/>
		<path class="st27" d="M835.3,374c-1.2,0-2.3-0.5-3.1-1.5c-4.2-5.2-8.6-8-13.2-8.2c-5.1-0.3-10.6,2.5-16.2,8.3l-0.3,0.3
			c-1.6,1.6-4.1,1.6-5.7,0s-1.6-4.1,0-5.7l0.2-0.2c7.3-7.5,14.8-11.1,22.3-10.7c6.9,0.3,13.3,4.1,19,11.2c1.4,1.7,1.1,4.2-0.6,5.6
			C837,373.7,836.2,374,835.3,374z"/>
		<ellipse cx="637.5" cy="433.7" rx="9.3" ry="21"/>
		<g>
			<path class="st29" d="M652.1,600.7c0,0,75.4,64.9,150.7-3.9L652.1,600.7z"/>
			<path d="M727.5,631.8c-10.8,0-20.7-1.6-29.1-3.9c-28.7-7.7-47.7-23.9-48.5-24.6c-1.1-0.9-1.5-2.5-1-3.8s1.8-2.3,3.2-2.3
				l150.7-3.9c1.5,0,2.8,0.8,3.3,2.2c0.5,1.4,0.2,2.9-0.9,3.9C777.9,624.3,750.5,631.8,727.5,631.8z M662.5,603.9
				c8,5.3,21.3,12.9,37.9,17.3c33.3,8.9,64.4,1.9,92.7-20.7L662.5,603.9z M652.1,600.7L652.1,600.7L652.1,600.7z"/>
		</g>
		<path class="st77" d="M712.3,1334.4c113.2,0,218.7-32.6,307.8-88.8l-4-232.2l129.3,107.5l61-141l-142-159.7
			c-26.2-17.6-56.5-28-87.9-30.3l-130.7-9.2l-116.5,52.5L612,793l-219.6,22c-34.1,3.4-65.5,20.3-87.1,47l-84.7,156.1l129.6,132.8
			l89.6-147.5l-1.5,262.1C519.9,1309.5,613.2,1334.4,712.3,1334.4z"/>
		<g>
			<polygon class="st78" points="879,845.8 765.6,896.6 732.9,828.3 846.3,777.5 			"/>
			<polygon class="st78" points="702.2,899.9 585.2,858.9 612.4,788 729.3,829.1 			"/>
		</g>
		<g>
			<path class="st67" d="M687.3,888.6c-5.7-16.6-23.9-25.5-40.5-19.8L381,960.3c-16.6,5.7-25.5,23.9-19.8,40.5l31.5,91.5
				c0,0,0,0,0,0l90.8,264c5.7,16.6,23.9,25.5,40.5,19.8l265.8-91.4c16.6-5.7,25.5-23.9,19.8-40.5l-31.5-91.5c0,0,0,0,0,0
				L687.3,888.6z"/>
			<path class="st68" d="M649.8,943.7l-225.2,77.5c-10.5,3.6-16.1,15-12.5,25.5l15.1,43.8l67.8,197.2l15.1,43.8
				c3.6,10.5,15,16.1,25.5,12.5l225.2-77.5c10.5-3.6,16.1-15,12.5-25.5l-15.1-43.8l-67.8-197.2l-15.1-43.8
				C671.8,945.7,660.3,940.1,649.8,943.7z"/>
			<path class="st69" d="M597.4,894.9l18.3,53.3c3.4,10-1.9,20.8-11.8,24.2l-125.3,43.1c-10,3.4-20.8-1.9-24.2-11.8L436,950.4
				c-3.4-10,1.9-20.8,11.8-24.2l31.6-10.9c1.8-13.4,10.9-25.3,24.5-30c2.1-0.7,4.3-1.3,6.4-1.6c10.1-1.6,20.2,1.2,28,7.3
				c0.1,0.1,0.2,0.1,0.3,0.2c0.7,0.6,1.5,1.2,2.2,1.9c0.3,0.3,0.6,0.6,0.8,0.8l31.6-10.9C583.1,879.6,593.9,884.9,597.4,894.9z"/>
			<path class="st70" d="M597.4,894.9l18.3,53.3c3.4,10-1.9,20.8-11.8,24.2L491,1011.3c-10,3.4-20.8-1.9-24.2-11.8l-18.3-53.3
				c-3.4-10,1.9-20.8,11.8-24.2l19.1-6.6c1.8-13.4,10.9-25.3,24.5-30c2.1-0.7,4.3-1.3,6.4-1.6c10.1-1.6,20.2,1.2,28,7.3
				c0.1,0.1,0.2,0.1,0.3,0.2c0.8,0.7,1.6,1.3,2.2,1.9c0.3,0.3,0.6,0.6,0.8,0.8l31.6-10.9C583.1,879.6,593.9,884.9,597.4,894.9z"/>
			<circle class="st67" cx="513.6" cy="913.7" r="12.7"/>
			<path class="st69" d="M576.8,952.2l-89.4,30.7c-4.8,1.7-10-0.9-11.7-5.7l0,0c-1.7-4.8,0.9-10,5.7-11.7l89.4-30.7
				c4.8-1.7,10,0.9,11.7,5.7l0,0C584.1,945.3,581.6,950.5,576.8,952.2z"/>
			<path class="st71" d="M523.8,1112.9l-52.1,17.9c-4.6,1.6-9.6-0.9-11.1-5.4l-17.9-52.1c-1.6-4.6,0.9-9.6,5.4-11.1l52.1-17.9
				c4.6-1.6,9.6,0.9,11.1,5.4l17.9,52.1C530.8,1106.4,528.4,1111.4,523.8,1112.9z M474.2,1111.5l35.6-12.2l-12.2-35.6l-35.6,12.2
				L474.2,1111.5z"/>
			<g>
				<path class="st72" d="M592.9,1042l-52.1,17.9c-4.6,1.6-9.6-0.9-11.1-5.4c-1.6-4.6,0.9-9.6,5.4-11.1l52.1-17.9
					c4.6-1.6,9.6,0.9,11.1,5.4S597.4,1040.4,592.9,1042z"/>
				<path class="st72" d="M668.5,1052l-116.7,40.1c-4.6,1.6-9.6-0.9-11.1-5.4c-1.6-4.6,0.9-9.6,5.4-11.1l116.7-40.1
					c4.6-1.6,9.6,0.9,11.1,5.4C675.5,1045.5,673.1,1050.5,668.5,1052z"/>
			</g>
			<path class="st71" d="M554.5,1202.3l-52.1,17.9c-4.6,1.6-9.6-0.9-11.1-5.4l-17.9-52.1c-1.6-4.6,0.9-9.6,5.4-11.1l52.1-17.9
				c4.6-1.6,9.6,0.9,11.1,5.4l17.9,52.1C561.5,1195.8,559.1,1200.7,554.5,1202.3z M505,1200.8l35.6-12.2l-12.2-35.6l-35.6,12.2
				L505,1200.8z"/>
			<g>
				<path class="st72" d="M623.6,1131.4l-52.1,17.9c-4.6,1.6-9.6-0.9-11.1-5.4c-1.6-4.6,0.9-9.6,5.4-11.1l52.1-17.9
					c4.6-1.6,9.6,0.9,11.1,5.4C630.6,1124.8,628.2,1129.8,623.6,1131.4z"/>
				<path class="st72" d="M699.3,1141.4l-116.7,40.1c-4.6,1.6-9.6-0.9-11.1-5.4c-1.6-4.6,0.9-9.6,5.4-11.1l116.7-40.1
					c4.6-1.6,9.6,0.9,11.1,5.4S703.8,1139.9,699.3,1141.4z"/>
			</g>
			<path class="st71" d="M561.6,1223l-52.1,17.9c-4.6,1.6-7,6.6-5.4,11.1l15,43.5c11.9,3.2,24.2,5.3,36.6,6.3l29.6-10.2
				c4.6-1.6,7-6.6,5.4-11.1l-17.9-52.1C571.2,1223.9,566.2,1221.4,561.6,1223z M571.3,1278l-35.6,12.2l-12.2-35.6l35.6-12.2
				L571.3,1278z"/>
			<g>
				<path class="st72" d="M654.4,1220.7l-52.1,17.9c-4.6,1.6-9.6-0.9-11.1-5.4c-1.6-4.6,0.9-9.6,5.4-11.1l52.1-17.9
					c4.6-1.6,9.6,0.9,11.1,5.4S658.9,1219.2,654.4,1220.7z"/>
				<path class="st72" d="M730,1230.8L613.3,1271c-4.6,1.6-9.6-0.9-11.1-5.4c-1.6-4.6,0.9-9.6,5.4-11.1l116.7-40.1
					c4.6-1.6,9.6,0.9,11.1,5.4C737,1224.3,734.6,1229.3,730,1230.8z"/>
			</g>
			<path class="st73" d="M525.5,1204c-2.8,0.9-5.8,0.5-8.2-1.3l-40.1-30.6c-3.8-2.9-4.6-8.4-1.7-12.3c2.9-3.8,8.4-4.6,12.3-1.7
				l27.9,21.2l6.5-57.8c0.5-4.8,4.9-8.3,9.7-7.7c4.8,0.5,8.3,4.9,7.7,9.7l-8.2,73.2c-0.3,3.1-2.4,5.8-5.3,7.1
				C525.9,1203.8,525.7,1203.9,525.5,1204z"/>
		</g>
		<path class="st13" d="M684,1197.6c13.2,8.9,19.1-0.2,26.4-1.7c21.1-4.2,42-9.5,63.9-9.2c7.7,0.1,16.4-1.9,17.9,9.9
			c1.5,11.5-7.9,12.2-15,14.1c-27.9,7.6-55.8,15.1-86.2,23.4c23.5,8.4,43.4-4.8,64.2-1c3.3,0.6,6.8-0.8,10.1-0.2
			c5.8,1,13.7,0.3,14.6,9.6c0.8,8.5-6.4,11.3-12.1,12.6c-11.8,2.5-23.9,3.6-35.9,5.3c-13.6,1.9-27.1,3.8-40.4,7.9
			c12.5,8.6,25.1,2.1,37.5,4.6c5.3,1.1,10.8,0.4,16.2,0.9c4.9,0.4,9.8,1.5,10.8,8.6c1.2,8.7-4.3,10-9.7,11.3
			c-29,6.8-59,5.4-88.6,5.7c-28.6,0.3-56.7-1.4-86.1-10.5c-26.3-8.1-51.8,2.2-85.6,9.1c-20.6,4.2-38.6,9.8-74.8,14.5
			c-6.4,0.8-6.9-5.1-10.2-10.6c-12.7-21.1-4.4-30.2-3.8-55c0.3-12.1-6.8-7.6,1.7-7.8c43.3-5.7,97.5-20.9,138.6-27.8
			c3.9-0.6,10-1.6,10.9-4.4c8.1-27.2,32.5-34.3,47.9-52.4c9.7-11.5,18.4-23.5,23.7-38.8c2.2-6.3,6.3-13.1,13.6-10.3
			c8.4,3.3,4.5,11.9,4.7,18.3c0.3,10.6-3.7,19.2-8.3,27.8c-3.9,7.4-11.9,15.1-5,24.8c6.4,9.1,15.8,4.2,22.9,1.6
			c28.5-10.3,56.5-22,84.9-32.7c11.3-4.3,27.4-16.9,34-0.4c6.5,16.3-12.9,21.7-23.7,27.3C725,1181.5,705.9,1188.3,684,1197.6z"/>
		<path class="st13" d="M1249.2,1285.5c-28.1,0-61-2.7-98.3-8.1c-86.2-12.5-166.8-34.9-170.2-35.9l20-71.3
			c0.7,0.2,75.2,20.9,154,32.9c113.6,17.2,147.5,3.6,155.9-1.7c-3.9-8.2-18.8-30.7-72.8-71.8c-39.2-29.7-78-53.1-78.4-53.4
			l38.1-63.4c2,1.2,50.3,30.3,96.6,66.8c28.3,22.3,50.2,43,65,61.5c25.4,31.7,32.8,60.8,22.2,86.7c-13.4,32.6-47.3,51.6-100.9,56.3
			C1270.7,1285,1260.3,1285.5,1249.2,1285.5z"/>
		<g>
			<path class="st34" d="M900.4,1242.6l-5.9,36.6c-0.7,4.1-6,5.3-8.3,1.8l-20.8-30.6L900.4,1242.6z M900.4,1242.6"/>
			<path class="st61" d="M902.9,1235.6l-43.3-194.5c-0.9-4.1-5-6.7-9.1-5.8l-27.8,6.2c-4.1,0.9-6.7,5-5.8,9.1l43.3,194.5
				c0.9,4.1,5,6.7,9.1,5.8l27.8-6.2C901.2,1243.8,903.8,1239.7,902.9,1235.6L902.9,1235.6z M902.9,1235.6"/>
			<path class="st64" d="M902.9,1235.6l-43.3-194.5c-0.9-4.1-5-6.7-9.1-5.8l-13.9,3.1l46.6,209.3l13.9-3.1
				C901.2,1243.8,903.8,1239.7,902.9,1235.6L902.9,1235.6z M902.9,1235.6"/>
			<path class="st37" d="M864.3,1062.2l-4.7-21.1c-0.9-4.1-5-6.7-9.1-5.8l-27.8,6.2c-4.1,0.9-6.7,5-5.8,9.1l4.7,21.1L864.3,1062.2z
				 M864.3,1062.2"/>
		</g>
		<path class="st13" d="M841.6,1146.1c-13.1,3.5-22.1,1.3-31.1-1.2c-8.1-2.2-15-0.5-17.4,7.9c-2.4,8.3,2.7,14,10.1,16.7
			c8.5,3,17.4,4.9,30.8,8.5c-16.3,4.8-36.2-5.4-37.5,12.2c-1.5,20.3,23.3,10.4,33.1,20.2c-1.7,4.9-6.8,3.7-10.7,4.7
			c-6.1,1.6-11.1,4.2-10.9,11.3c0.2,6.9,5.3,9.6,11.2,11.3c24.5,7.1,49.9,6.7,74.9,8.7c22.7,1.8,45.8,4,68.4-4.7
			c9.1-3.5,19.9-0.7,29.8,2.1c37.6,10.5,78.6,10.6,116,21.7c15.6,4.6,21.9,11.1,26.7-4.7c1-3.4,3.2-6.5,4.7-9.7
			c16.1-34.4,7.4-50.2-30-55.4c-36.4-5.1-72.9-14.9-108.4-24.5c-8.7-2.4-16.1-1.1-17.7-11.9c-1.4-9.4-9.3-14.6-16.2-19.5
			c-22.8-16.4-53.5-6.9-66.4-31.6c-2.7-5.3-4.4-14.7-12.5-12.2c-6.5,2-5.8,10.9-6.9,17.1c-2.2,12.7,7.7,21.2,12.2,31.6
			c2.8,6.4,21.8-16.7,15.9-10.5c-4.7,5-12.3,2.8-18.6,1c-36.9-10.5-69.1-23.5-72.5-24.1c-6.3-1-13.8-2.4-17.5,4.5
			c-4,7.5,2.4,11.9,7.2,16.1C821.7,1143.1,829.3,1140.2,841.6,1146.1z"/>
	</g>
</g>
</svg>
