<?xml version="1.0" encoding="utf-8"?>
<!-- Generator: Adobe Illustrator 22.1.0, SVG Export Plug-In . SVG Version: 6.00 Build 0)  -->
<svg version="1.1" xmlns="http://www.w3.org/2000/svg" xmlns:xlink="http://www.w3.org/1999/xlink" x="0px" y="0px"
	 viewBox="0 0 1455 1455" style="enable-background:new 0 0 1455 1455;" xml:space="preserve">
<style type="text/css">
	.st0{fill:#F7941D;}
	.st1{fill:#DABCAA;}
	.st2{fill:#00A9BB;}
	.st3{fill:#0098A8;}
	.st4{fill:#00A79D;}
	.st5{fill:#FFF200;}
	.st6{fill:#F5E0CD;}
	.st7{fill:#008C84;}
	.st8{fill:#C1B2A5;}
	.st9{fill:#F0D0B4;}
	.st10{fill:#543E36;}
	.st11{fill:#6A330D;}
	.st12{fill:#72594B;}
	.st13{fill:#A8916D;}
	.st14{fill:#F0BEB4;}
	.st15{fill:#754C29;}
	.st16{fill:#FFD883;}
	.st17{fill:#F15A29;}
	.st18{fill:none;stroke:#000000;stroke-width:6;stroke-linecap:round;stroke-miterlimit:10;}
	.st19{fill:none;stroke:#000000;stroke-width:7;stroke-linecap:round;stroke-miterlimit:10;}
	.st20{fill:none;stroke:#000000;stroke-width:8;stroke-linecap:round;stroke-miterlimit:10;}
	.st21{fill:none;stroke:#000000;stroke-width:3;stroke-linecap:round;stroke-miterlimit:10;}
	.st22{fill:#DAC8B9;}
	.st23{fill:#BBA294;}
	.st24{fill:#EF4136;}
	.st25{fill:#FEFEFE;}
	.st26{fill:#FBCF9E;}
	.st27{fill:#594A42;}
	.st28{fill:#BE1E2D;}
	.st29{fill:#FFFFFF;}
	.st30{fill:#808285;}
	.st31{fill:#48484A;}
	.st32{fill:#58595B;}
	.st33{fill:#666666;}
	.st34{fill:#4F7793;}
	.st35{fill:#C3DA60;}
	.st36{fill:#9FCD5A;}
	.st37{fill:#F282AC;}
	.st38{fill:#E6E7E8;}
	.st39{fill:#FBB040;}
	.st40{fill:#907C5D;}
	.st41{fill:#603913;}
	.st42{fill:#00AEEF;}
	.st43{fill:#AFB9D2;}
	.st44{fill:#969CB3;}
	.st45{fill:#D8DEEC;}
	.st46{fill:#F0F3FA;}
	.st47{fill:#FFD782;}
	.st48{fill:#FEC46F;}
	.st49{fill:#F16465;}
	.st50{fill:#D3555B;}
	.st51{fill:#41C7F2;}
	.st52{fill:#36BBED;}
	.st53{fill:#C4DC7B;}
	.st54{fill:#A6D16F;}
	.st55{fill:#A2D8CB;}
	.st56{fill:#7CCBBB;}
	.st57{fill:#D1D3D4;}
	.st58{fill:#ED1C24;}
	.st59{fill:#5B2A02;}
	.st60{fill:#F1CF9C;}
	.st61{fill:#262262;}
	.st62{fill:#D2B693;}
	.st63{opacity:0.38;fill:#27AAE1;}
	.st64{fill:#2B3990;}
	.st65{fill:#A7A9AC;}
	.st66{fill:#6D6E71;}
	.st67{fill:#343B6F;}
	.st68{fill:#F1F0F0;}
	.st69{fill:#F1AE5B;}
	.st70{fill:#F9DF74;}
	.st71{fill:#5A98D1;}
	.st72{fill:#494C80;}
	.st73{fill:#EF487D;}
	.st74{fill:#39B54A;}
	.st75{fill:#FBB15F;}
	.st76{fill:#79684D;}
	.st77{fill:#BCE6FB;}
	.st78{fill:#94D9F8;}
	.st79{fill:#DA1C5C;}
	.st80{fill:#48342C;}
	.st81{fill:#D8D9DA;}
	.st82{fill:#414042;}
	.st83{fill:#000834;}
	.st84{fill:#D9EEE5;}
	.st85{fill:#FDDB42;}
	.st86{fill:#8DC63F;}
	.st87{fill:#9BD7D5;}
	.st88{fill:#C9B099;}
	.st89{fill:#EAC679;}
	.st90{fill:#C4D7CF;}
	.st91{fill:#1B75BC;}
	.st92{fill:#009444;}
	.st93{fill:none;stroke:#39B54A;stroke-width:17;stroke-miterlimit:10;}
	.st94{fill:none;stroke:#A8916D;stroke-width:74;stroke-miterlimit:10;}
	.st95{fill:none;stroke:#F1CF9C;stroke-width:75;stroke-miterlimit:10;}
	.st96{fill:none;stroke:#0098A8;stroke-width:74;stroke-miterlimit:10;}
	.st97{fill:none;stroke:#00A9BB;stroke-width:74;stroke-miterlimit:10;}
	.st98{fill:none;stroke:#F5E0CD;stroke-width:74;stroke-miterlimit:10;}
	.st99{fill:none;stroke:#F5E0CD;stroke-width:72;stroke-miterlimit:10;}
	.st100{fill:none;stroke:#594A42;stroke-width:8;stroke-linecap:round;stroke-miterlimit:10;}
	.st101{fill:none;stroke:#BE1E2D;stroke-width:8;stroke-linecap:round;stroke-miterlimit:10;}
	.st102{fill:none;stroke:#48484A;stroke-width:11;stroke-miterlimit:10;}
	.st103{fill:#FFFFFF;stroke:#BE1E2D;stroke-width:7;stroke-linecap:round;stroke-linejoin:round;stroke-miterlimit:10;}
	.st104{fill:none;stroke:#F15A29;stroke-width:18;stroke-miterlimit:10;}
	.st105{fill:#A8916D;stroke:#907C5D;stroke-width:3;stroke-linecap:round;stroke-linejoin:round;stroke-miterlimit:10;}
	.st106{fill:none;stroke:#907C5D;stroke-width:3;stroke-linecap:round;stroke-linejoin:round;stroke-miterlimit:10;}
	.st107{fill:#FFFFFF;stroke:#000000;stroke-width:7;stroke-linecap:round;stroke-linejoin:round;stroke-miterlimit:10;}
	.st108{fill:none;stroke:#2B3990;stroke-width:15;stroke-miterlimit:10;}
</style>
<g id="Layer_1">
</g>
<g id="heads">
	<g>
		<g>
			<path class="st24" d="M427.2,1054.2c0,0-38.2,77.9-38.2,121.2c0,0,0,0,0,0.1c34,23,70.6,42.5,109.3,58l-29.9-188.7
				C467.1,1035.7,430.5,1045.8,427.2,1054.2z"/>
			<path class="st24" d="M1289.7,697c0-318.9-258.5-577.4-577.4-577.4S134.9,378.1,134.9,697c0,145.3,53.7,278,142.2,379.5
				c13.8-96.2,43.3-186.7,43.3-186.7c16.2-29.2,42.8-50,73.8-57.7L544,788.9l113.7,24.6l100.1-67l121.8-7.7
				c29.3-1.9,58.7,4.6,85.3,18.6l165.3,170.9l-48.9,116.5l-106.1-71c-11-7.3-24.7,2.3-22.5,15.9l14.4,225.7
				C1158.1,1121.3,1289.7,924.5,1289.7,697z"/>
			<path class="st84" d="M964.9,757.5c-26.6-14.1-56-20.5-85.3-18.6l-121.8,7.7l-100.1,67L544,788.9l-149.9,43.2
				c-31,7.8-57.5,28.6-73.8,57.7c0,0-29.6,90.5-43.3,186.7c-4.8,33.5-7.7,67.6-6.7,98.9c1,32.9,118.4,29.7,118.6,0.1c0,0,0,0,0-0.1
				c0-43.4,38.2-121.2,38.2-121.2c3.3-8.3,40-18.5,41.2-9.4l29.9,188.7c66.2,26.4,138.4,41,214.1,41c91.4,0,177.8-21.2,254.6-59
				l-14.4-225.7c-2.1-13.6,11.6-23.3,22.5-15.9l106.1,71l48.9-116.5L964.9,757.5z"/>
		</g>
		<g>
			<path class="st84" d="M975.1,973.8l106.1,71l48.9-116.5L964.9,757.5c-26.6-14.1-56-20.5-85.3-18.6l-121.8,7.7l-100.1,67
				L544,788.9l-149.9,43.2c-31,7.8-57.5,28.6-73.8,57.7c0,0-29.6,90.5-43.3,186.7c-4.8,33.5-7.7,67.6-6.7,98.9
				c1,32.9,118.4,29.7,118.6,0.1c0,0,0,0,0-0.1c0-43.4,38.2-121.2,38.2-121.2c3.3-8.3,40-18.5,41.2-9.4l29.9,188.7
				c66.2,26.4,138.4,41,214.1,41c91.4,0,177.8-21.2,254.6-59l-14.4-225.7C950.4,976.1,964.1,966.5,975.1,973.8z"/>
			<path class="st5" d="M1069.3,276.2l0.3-0.4l-0.3-0.3v-29.7h3.4c-5.6-4.5-11.3-8.8-17-13.1h-55.9c-1.9,0-3.4-1.5-3.4-3.4
				s1.5-3.4,3.4-3.4h46.7c-6.9-4.9-13.8-9.6-20.9-14.2h-25.8c-1.9,0-3.4-1.5-3.4-3.4c0-1.9,1.5-3.4,3.4-3.4h15.1
				c-11.7-7.2-23.6-14-35.9-20.4v91.5H1069.3z"/>
			<path class="st85" d="M1069.3,245.9v29.7l0.3,0.3l17.5-18.1c-4.7-4-9.5-8-14.4-11.9H1069.3z"/>
			<path d="M999.8,205.1c-1.9,0-3.4,1.5-3.4,3.4c0,1.9,1.5,3.4,3.4,3.4h25.8c-3.5-2.3-7.1-4.5-10.7-6.7H999.8z"/>
			<path d="M999.8,226c-1.9,0-3.4,1.5-3.4,3.4s1.5,3.4,3.4,3.4h55.9c-3.1-2.3-6.2-4.5-9.3-6.7H999.8z"/>
		</g>
		<g>
			<path class="st86" d="M1255.1,447.5V537l-0.3,0.3l-0.3-0.3h-28.6v29.7l0.3,0.3l-0.3,0.4h-90.3V447.5H1255.1z M1255.1,447.5"/>
			<path class="st85" d="M1254.7,537.4l-28.6,29.7l-0.3-0.3V537h28.6L1254.7,537.4z M1254.7,537.4"/>
			<path d="M1232.2,503h-75.9c-1.9,0-3.4-1.5-3.4-3.4c0-1.9,1.5-3.4,3.4-3.4h75.9c1.9,0,3.4,1.5,3.4,3.4
				C1235.6,501.5,1234.1,503,1232.2,503L1232.2,503z M1232.2,503"/>
			<path d="M1201.1,481.5h-44.8c-1.9,0-3.4-1.5-3.4-3.4c0-1.9,1.5-3.4,3.4-3.4h44.8c1.9,0,3.4,1.5,3.4,3.4
				C1204.5,480,1203,481.5,1201.1,481.5L1201.1,481.5z M1201.1,481.5"/>
			<path d="M1232.2,523.9h-75.9c-1.9,0-3.4-1.5-3.4-3.4c0-1.9,1.5-3.4,3.4-3.4h75.9c1.9,0,3.4,1.5,3.4,3.4
				C1235.6,522.4,1234.1,523.9,1232.2,523.9L1232.2,523.9z M1232.2,523.9"/>
		</g>
		
			<rect x="553" y="617.5" transform="matrix(0.9904 -0.1385 0.1385 0.9904 -93.0027 95.8539)" class="st9" width="178.6" height="197.4"/>
		<g>
			<path class="st84" d="M964.9,757.5c-26.6-14.1-56-20.5-85.3-18.6l-121.8,7.7l-100.1,67L544,788.9l-149.9,43.2
				c-31,7.8-57.5,28.6-73.8,57.7c0,0-29.6,90.5-43.3,186.7c-4.8,33.5-7.7,67.6-6.7,98.9c1,32.9,118.4,29.7,118.6,0.1c0,0,0,0,0-0.1
				c0-43.4,38.2-121.2,38.2-121.2c3.3-8.3,40-18.5,41.2-9.4l29.9,188.7c66.2,26.4,138.4,41,214.1,41c91.4,0,177.8-21.2,254.6-59
				l-14.4-225.7c-2.1-13.6,11.6-23.3,22.5-15.9l106.1,71l48.9-116.5L964.9,757.5z"/>
		</g>
		<path class="st9" d="M1218.1,409.4c5.4-14.9,3.8-25.7,1.8-36.5c-1.8-9.7,0.9-17.5,11-19.6c10-2,16.1,4.6,18.4,13.5
			c2.6,10.3,3.9,20.9,6.7,36.9c7.3-18.6-2.6-42.8,18.1-42.5c23.9,0.4,9.7,28.3,20.2,40.8c6-1.5,5.1-7.6,6.6-12
			c2.5-7,6-12.6,14.3-11.6c8.1,0.9,10.7,7.2,12.1,14.3c5.8,29.3,2.6,59,2.4,88.4c-0.2,26.7-0.1,53.9-12.6,79.4
			c-5,10.2-2.8,23.1-0.6,35c8.3,45,15.5,90.2,24.6,135c3.8,18.6-0.5,29.5-19.5,33.5c-4.1,0.9-7.9,3-11.8,4.5
			c-41.8,15.3-59.3,3.4-61.6-40.8c-2.2-43-5.7-85.9-13.3-128.4c-1.9-10.4-3.8-19.7-16.2-22.6c-10.9-2.6-16-12.4-21.1-20.9
			c-16.8-28.3-39.5-50.3-67-67.9c-5.9-3.7-16.7-6.7-13-15.9c3-7.4,13.4-5.6,20.7-6.2c15.1-1.3,24,11.1,35.6,17.5
			c7.2,3.9,15.2,10.9,23,4.6c6.3-5,4.5-14.1,3.1-21.6c-8.5-44.2-27.9-84.9-40-127.9c-1.1-4-3.7-7.9-4-11.9c-0.5-7.5-1.4-16.3,7.1-20
			c9.2-3.9,13.7,4,18.1,10.1c12.1,16.8,14.7,37.6,23.1,56C1209.1,383.2,1212.5,394.4,1218.1,409.4z"/>
		<g>
			<polygon class="st87" points="807.7,805.4 702.5,871.4 660.6,808.3 765.8,742.3 			"/>
			<polygon class="st87" points="640.1,883.5 518.6,859 535.7,785.1 657.2,809.5 			"/>
		</g>
		<path class="st9" d="M778.9,381.3C763,267.8,667,187.3,564.4,201.5C461.8,215.6,391.1,321.7,407,435.2l9.6,68.8
			c23.3,166.5,71,141.2,143.6,208.7c9.8,9.1,28.9,12.5,41.6,11.7c11.4-0.7,23-2,34.9-3.7c12.2-1.7,24.1-3.4,35.6-5.4
			c7.7-1.4,27-13.8,31.4-20.9c58-94.6,112.3-47.9,85.1-242.5C787.8,445.2,779.7,387,778.9,381.3z"/>
		<path class="st88" d="M725.2,664.6c-7,8.2-14.3,17.9-21.6,29.8c-4.4,7.1-23.7,19.6-31.4,20.9c-11.5,2-23.4,3.7-35.6,5.4
			c-11.9,1.7-23.5,3-34.9,3.7c-12.7,0.8-31.7-2.5-41.6-11.7c-3.3-3.1-6.5-5.9-9.7-8.7l3.7,26.7c3.2,2.7,6.4,5.6,9.7,8.7
			c9.8,9.1,28.9,12.5,41.6,11.7c11.4-0.7,23-2,34.9-3.7c12.2-1.7,24.1-3.4,35.6-5.4c7.7-1.4,27-13.8,31.4-20.9
			c7.3-11.9,14.5-21.6,21.6-29.8L725.2,664.6z"/>
		<path class="st88" d="M639.3,524.7l-30.5,4.3l-14.5-103.3l25.7,4.4c8.9,1.5,16.1,6.5,19.5,13.4l23.3,47.8
			C669.7,505.5,658.1,522.1,639.3,524.7z"/>
		<ellipse transform="matrix(0.9904 -0.1385 0.1385 0.9904 -50.2724 100.36)" cx="696" cy="411.4" rx="9.3" ry="21"/>
		<path class="st27" d="M492.5,388.4c-0.8,0-1.7-0.3-2.4-0.8c-1.8-1.3-2.1-3.8-0.8-5.6l0.2-0.3c6.2-8.4,13.1-13,20.6-13.7
			c6.9-0.6,13.8,2.2,20.4,8.5c1.6,1.5,1.7,4.1,0.1,5.7c-1.5,1.6-4.1,1.7-5.7,0.1c-4.9-4.6-9.6-6.7-14.2-6.3
			c-5.1,0.5-10.1,4-14.9,10.5l-0.2,0.3C495,387.9,493.7,388.4,492.5,388.4z"/>
		<path class="st27" d="M670.3,359.8c-0.8,0-1.7-0.3-2.4-0.8c-1.8-1.3-2.1-3.8-0.8-5.6l0.2-0.3c6.2-8.4,13.1-13,20.6-13.7
			c6.9-0.6,13.8,2.2,20.4,8.5c1.6,1.5,1.7,4.1,0.1,5.7c-1.5,1.6-4.1,1.7-5.7,0.1c-4.9-4.6-9.6-6.7-14.2-6.3
			c-5.1,0.5-10.1,4-14.9,10.5l-0.2,0.3C672.7,359.2,671.5,359.8,670.3,359.8z"/>
		<path d="M622.6,606.9c-1.1,0-2.2,0-3.3-0.1c-20.3-0.8-35.2-8.4-35.9-8.7c-2-1-2.7-3.4-1.7-5.4c1-2,3.4-2.7,5.4-1.7
			c0.3,0.1,14.3,7.2,32.8,7.8c24.6,0.9,45.3-9.4,61.5-30.6c1.3-1.8,3.9-2.1,5.6-0.7c1.8,1.3,2.1,3.9,0.7,5.6
			C666.7,600.7,641.3,606.9,622.6,606.9z"/>
		<ellipse transform="matrix(0.9904 -0.1385 0.1385 0.9904 -56.1366 76.0582)" cx="518.5" cy="441.4" rx="9.3" ry="21"/>
		
			<ellipse transform="matrix(0.9904 -0.1385 0.1385 0.9904 -59.9186 61.0033)" class="st9" cx="408.4" cy="461.1" rx="47.4" ry="64.2"/>
		<path class="st89" d="M488,223.5l-44.2,14.2c-36.8,11.9-59.6,48.6-54,86.8l16,78.7l24.1,3.4l-2.5-22.9c0,0,4.4-119,72.5-142.2"/>
		<path class="st16" d="M581,149.3c33.4-5.5,121.2,21.8,152,7.8c15.4-7,28.5-12.4,41.6-60.7c35.6,58.2-11.7,187.4-54.9,161.7
			c-136.6-81.3-205.9,8.2-245.2-1.6C433.3,246.1,365,185.1,581,149.3z"/>
		<g>
			<path class="st9" d="M772.2,919.8c-0.7,1.2,1.4,4.3,3.4,2.1c25.5-28.1,53.8-70.2,81.9-90.9c11.1-8.2,14.1,2.1,18.3,6.1
				c3.5,3.4,5.9,2.1-1.1,12.2c-17.6,25.2-51.5,57.9-75.3,82.4c-1.8,1.9,0.2,4.8,2.5,3.2c32.4-21.8,67-63.2,98.4-79.4
				c10.7-5.5,10.7-6.6,15.7-2.1c5.8,5.2,8.2,12.3,0.8,18.6c-25.5,21.4-55.3,46.5-81.8,67.1c-2.5,1.9-1.2,2.2-0.3,2.9
				c7.3,5.7,20.3-2.6,27.7,1.7c14.9,8.7,18.6,21.5,14.8,37c-3.2,13.3-9.5,24.8-12.6,38.1c-1.1,4.8-4.4,8.3-9.6,8
				c-5.9-0.4-10.9-4-11.1-10c-0.3-9.3,1.2-14,3.3-24.1c7.7-37-10.2-30.3-35.1-12.9c-9.6,6.7-28.3,13.3-23,29.6
				c4.6,14.2,21.7,11.5,34,12.6c2.7,0.2,6.1,0.6,8.4,1c11.2,1.9,31.1,5.4,30,19.3c-1.2,14.9-18.9,7.3-29.4,7.9
				c-26.2,1.5-54.7,2.9-81,4.3c-9.4,0.5-20.8,2.5-28.6-0.9c-20.2-9-22.4,2.2-31.6,19c-9.7,17.5-38.3,50.3-61.1,44.6
				c-5.6-1.4-14.9-10.3-18-13.2c-31.7-29.4-34.2-30.1-11.5-63.1c33.1-48.2,75.5-87.1,122.2-123.3c27.9-21.6,47.6-58.6,73.9-82.4
				c5.3-4.8,15.1-6.5,19.7,2.1C820.8,846,780.3,906.6,772.2,919.8z"/>
		</g>
		<path class="st84" d="M371.4,1357.2c-12.4,0-24.3-2-35.6-6c-13.7-4.8-33-15.9-47.2-41.3c-6.7-12-11.7-26.1-15.1-43
			c-4.6-22.5-6.6-49.8-6.1-83.5c0.8-52.8,7.6-102.7,7.9-104.8l60,8.3l59.9,8.3c0,0.3-4.6,33.4-6.2,71.5c-1.3,29.1-0.3,48.9,1.1,62
			c19.4-10.4,55.1-35.5,111.9-96c53.3-56.8,96.3-114.3,96.8-114.8l97,72.3c-2.2,2.9-53.6,71.7-117.2,137.6
			c-38.8,40.2-74.4,71.2-105.9,92.3c-21.6,14.4-41.4,24.4-60.4,30.4C398.1,1355,384.5,1357.2,371.4,1357.2z"/>
		<g>
			<path class="st90" d="M694.5,1092c-8.4,11.1-56.9,74.8-116,136c-38.8,40.2-74.4,71.2-105.9,92.3c-21.6,14.4-41.4,24.4-60.4,30.4
				c-14.1,4.4-27.7,6.6-40.7,6.6c-12.4,0-24.3-2-35.6-6c-7.5-2.7-16.8-7.2-25.9-15c12.1,14.2,25.6,21.4,35.9,25
				c11.3,4,23.2,6,35.6,6c13.1,0,26.7-2.2,40.7-6.6c19.1-6,38.8-15.9,60.4-30.4c31.4-21,67-52,105.9-92.3
				c63.6-65.9,115.1-134.7,117.2-137.6L694.5,1092z"/>
		</g>
		<path class="st84" d="M1217.6,1105.4c-16.6,0-34.7-4-54.2-12.1c-19.7-8.1-42.3-20.9-67.3-38c-39.8-27.2-73.4-57-74.8-58.2
			l40.1-45.3l40.1-45.3c0,0,0,0,0,0h0c0.9,0.8,23.2,20.4,50.8,40.4c27,19.5,44.6,29,54.8,33.5c9-17.6,24.9-66.5,22.7-190.9
			c-1.8-96.2-13.7-184.7-13.9-185.6l119.9-16.4c0.6,4.2,14,103.4,15.1,210.9c0.7,65.1-3.4,120.1-12,163.4
			c-13.7,68.6-39.7,112.2-79.6,133.5C1246.8,1102,1232.8,1105.4,1217.6,1105.4z M1201.3,989.2
			C1201.3,989.2,1201.3,989.2,1201.3,989.2C1201.3,989.2,1201.3,989.2,1201.3,989.2z"/>
		<g>
			<path class="st5" d="M957.1,156.3v89.6l-0.3,0.3l-0.3-0.3h-28.6v29.7l0.3,0.3l-0.3,0.4h-90.3V156.3H957.1z M957.1,156.3"/>
			<path class="st85" d="M956.8,246.2l-28.6,29.7l-0.3-0.3v-29.7h28.6L956.8,246.2z M956.8,246.2"/>
			<path d="M934.2,211.9h-75.9c-1.9,0-3.4-1.5-3.4-3.4s1.5-3.4,3.4-3.4h75.9c1.9,0,3.4,1.5,3.4,3.4S936.1,211.9,934.2,211.9
				L934.2,211.9z M934.2,211.9"/>
			<path d="M903.1,190.3h-44.8c-1.9,0-3.4-1.5-3.4-3.4c0-1.9,1.5-3.4,3.4-3.4h44.8c1.9,0,3.4,1.5,3.4,3.4
				C906.5,188.8,905,190.3,903.1,190.3L903.1,190.3z M903.1,190.3"/>
			<path d="M934.2,232.8h-75.9c-1.9,0-3.4-1.5-3.4-3.4s1.5-3.4,3.4-3.4h75.9c1.9,0,3.4,1.5,3.4,3.4S936.1,232.8,934.2,232.8
				L934.2,232.8z M934.2,232.8"/>
		</g>
		<g>
			<path class="st5" d="M956,1018v89.6l-0.3,0.3l-0.3-0.3h-28.6v29.7l0.3,0.3l-0.3,0.4h-90.3V1018H956z M956,1018"/>
			<path class="st85" d="M955.7,1107.9l-28.6,29.7l-0.3-0.3v-29.7h28.6L955.7,1107.9z M955.7,1107.9"/>
			<path d="M933.2,1073.6h-75.9c-1.9,0-3.4-1.5-3.4-3.4s1.5-3.4,3.4-3.4h75.9c1.9,0,3.4,1.5,3.4,3.4S935.1,1073.6,933.2,1073.6
				L933.2,1073.6z M933.2,1073.6"/>
			<path d="M902.1,1052h-44.8c-1.9,0-3.4-1.5-3.4-3.4c0-1.9,1.5-3.4,3.4-3.4h44.8c1.9,0,3.4,1.5,3.4,3.4
				C905.4,1050.5,903.9,1052,902.1,1052L902.1,1052z M902.1,1052"/>
			<path d="M933.2,1094.5h-75.9c-1.9,0-3.4-1.5-3.4-3.4c0-1.9,1.5-3.4,3.4-3.4h75.9c1.9,0,3.4,1.5,3.4,3.4
				C936.6,1093,935.1,1094.5,933.2,1094.5L933.2,1094.5z M933.2,1094.5"/>
		</g>
		<g>
			<path class="st42" d="M955,295.8v89.6l-0.3,0.3l-0.3-0.3h-28.6v29.7l0.3,0.3l-0.3,0.4h-90.3V295.8H955z M955,295.8"/>
			<path class="st91" d="M954.7,385.7l-28.6,29.7l-0.3-0.3v-29.7h28.6L954.7,385.7z M954.7,385.7"/>
			<path d="M932.2,351.4h-75.9c-1.9,0-3.4-1.5-3.4-3.4c0-1.9,1.5-3.4,3.4-3.4h75.9c1.9,0,3.4,1.5,3.4,3.4
				C935.5,349.9,934,351.4,932.2,351.4L932.2,351.4z M932.2,351.4"/>
			<path d="M901,329.9h-44.8c-1.9,0-3.4-1.5-3.4-3.4c0-1.9,1.5-3.4,3.4-3.4H901c1.9,0,3.4,1.5,3.4,3.4
				C904.4,328.3,902.9,329.9,901,329.9L901,329.9z M901,329.9"/>
			<path d="M932.2,372.3h-75.9c-1.9,0-3.4-1.5-3.4-3.4c0-1.9,1.5-3.4,3.4-3.4h75.9c1.9,0,3.4,1.5,3.4,3.4
				C935.5,370.8,934,372.3,932.2,372.3L932.2,372.3z M932.2,372.3"/>
		</g>
		<g>
			<path class="st42" d="M1095.6,303.9v89.6l-0.3,0.3l-0.3-0.3h-28.6v29.7l0.3,0.3l-0.3,0.4h-90.3V303.9H1095.6z M1095.6,303.9"/>
			<path class="st91" d="M1095.3,393.8l-28.6,29.7l-0.3-0.3v-29.7h28.6L1095.3,393.8z M1095.3,393.8"/>
			<path d="M1072.8,359.5h-75.9c-1.9,0-3.4-1.5-3.4-3.4c0-1.9,1.5-3.4,3.4-3.4h75.9c1.9,0,3.4,1.5,3.4,3.4
				C1076.2,358,1074.7,359.5,1072.8,359.5L1072.8,359.5z M1072.8,359.5"/>
			<path d="M1041.7,338h-44.8c-1.9,0-3.4-1.5-3.4-3.4c0-1.9,1.5-3.4,3.4-3.4h44.8c1.9,0,3.4,1.5,3.4,3.4
				C1045,336.5,1043.5,338,1041.7,338L1041.7,338z M1041.7,338"/>
			<path d="M1072.8,380.4h-75.9c-1.9,0-3.4-1.5-3.4-3.4c0-1.9,1.5-3.4,3.4-3.4h75.9c1.9,0,3.4,1.5,3.4,3.4
				C1076.2,378.9,1074.7,380.4,1072.8,380.4L1072.8,380.4z M1072.8,380.4"/>
		</g>
		<g>
			<path class="st86" d="M957.1,435.3v89.6l-0.3,0.3l-0.3-0.3h-28.6v29.7l0.3,0.3l-0.3,0.4h-90.3V435.3H957.1z M957.1,435.3"/>
			<path class="st92" d="M956.8,525.2l-28.6,29.7l-0.3-0.3v-29.7h28.6L956.8,525.2z M956.8,525.2"/>
			<path d="M934.2,490.9h-75.9c-1.9,0-3.4-1.5-3.4-3.4c0-1.9,1.5-3.4,3.4-3.4h75.9c1.9,0,3.4,1.5,3.4,3.4
				C937.6,489.4,936.1,490.9,934.2,490.9L934.2,490.9z M934.2,490.9"/>
			<path d="M903.1,469.4h-44.8c-1.9,0-3.4-1.5-3.4-3.4c0-1.9,1.5-3.4,3.4-3.4h44.8c1.9,0,3.4,1.5,3.4,3.4
				C906.5,467.9,905,469.4,903.1,469.4L903.1,469.4z M903.1,469.4"/>
			<path d="M934.2,511.8h-75.9c-1.9,0-3.4-1.5-3.4-3.4c0-1.9,1.5-3.4,3.4-3.4h75.9c1.9,0,3.4,1.5,3.4,3.4
				C937.6,510.3,936.1,511.8,934.2,511.8L934.2,511.8z M934.2,511.8"/>
		</g>
		<g>
			<path class="st86" d="M1104.3,451.8v89.6l-0.3,0.3l-0.3-0.3h-28.6v29.7l0.3,0.3l-0.3,0.4h-90.3V451.8H1104.3z M1104.3,451.8"/>
			<path class="st92" d="M1104,541.8l-28.6,29.7l-0.3-0.3v-29.7h28.6L1104,541.8z M1104,541.8"/>
			<path d="M1081.5,507.4h-75.9c-1.9,0-3.4-1.5-3.4-3.4c0-1.9,1.5-3.4,3.4-3.4h75.9c1.9,0,3.4,1.5,3.4,3.4
				C1084.9,505.9,1083.3,507.4,1081.5,507.4L1081.5,507.4z M1081.5,507.4"/>
			<path d="M1050.3,485.9h-44.8c-1.9,0-3.4-1.5-3.4-3.4c0-1.9,1.5-3.4,3.4-3.4h44.8c1.9,0,3.4,1.5,3.4,3.4
				C1053.7,484.4,1052.2,485.9,1050.3,485.9L1050.3,485.9z M1050.3,485.9"/>
			<path d="M1081.5,528.3h-75.9c-1.9,0-3.4-1.5-3.4-3.4s1.5-3.4,3.4-3.4h75.9c1.9,0,3.4,1.5,3.4,3.4S1083.3,528.3,1081.5,528.3
				L1081.5,528.3z M1081.5,528.3"/>
		</g>
	</g>
</g>
</svg>
