<?xml version="1.0" encoding="utf-8"?>
<!-- Generator: Adobe Illustrator 22.1.0, SVG Export Plug-In . SVG Version: 6.00 Build 0)  -->
<svg version="1.1" xmlns="http://www.w3.org/2000/svg" xmlns:xlink="http://www.w3.org/1999/xlink" x="0px" y="0px"
	 viewBox="0 0 1455 1455" style="enable-background:new 0 0 1455 1455;" xml:space="preserve">
<style type="text/css">
	.st0{fill:#F7941D;}
	.st1{fill:#DABCAA;}
	.st2{fill:#00A9BB;}
	.st3{fill:#0098A8;}
	.st4{fill:#00A79D;}
	.st5{fill:#FFF200;}
	.st6{fill:#F5E0CD;}
	.st7{fill:#008C84;}
	.st8{fill:#C1B2A5;}
	.st9{fill:#F0D0B4;}
	.st10{fill:#543E36;}
	.st11{fill:#6A330D;}
	.st12{fill:#72594B;}
	.st13{fill:#A8916D;}
	.st14{fill:#F0BEB4;}
	.st15{fill:#754C29;}
	.st16{fill:#FFD883;}
	.st17{fill:#F15A29;}
	.st18{fill:none;stroke:#000000;stroke-width:6;stroke-linecap:round;stroke-miterlimit:10;}
	.st19{fill:none;stroke:#000000;stroke-width:7;stroke-linecap:round;stroke-miterlimit:10;}
	.st20{fill:none;stroke:#000000;stroke-width:8;stroke-linecap:round;stroke-miterlimit:10;}
	.st21{fill:none;stroke:#000000;stroke-width:3;stroke-linecap:round;stroke-miterlimit:10;}
	.st22{fill:#DAC8B9;}
	.st23{fill:#BBA294;}
	.st24{fill:#EF4136;}
	.st25{fill:#FEFEFE;}
	.st26{fill:#FBCF9E;}
	.st27{fill:#594A42;}
	.st28{fill:#BE1E2D;}
	.st29{fill:#FFFFFF;}
	.st30{fill:#808285;}
	.st31{fill:#48484A;}
	.st32{fill:#58595B;}
	.st33{fill:#666666;}
	.st34{fill:#4F7793;}
	.st35{fill:#C3DA60;}
	.st36{fill:#9FCD5A;}
	.st37{fill:#F282AC;}
	.st38{fill:#E6E7E8;}
	.st39{fill:#FBB040;}
	.st40{fill:#907C5D;}
	.st41{fill:#603913;}
	.st42{fill:#00AEEF;}
	.st43{fill:#AFB9D2;}
	.st44{fill:#969CB3;}
	.st45{fill:#D8DEEC;}
	.st46{fill:#F0F3FA;}
	.st47{fill:#FFD782;}
	.st48{fill:#FEC46F;}
	.st49{fill:#F16465;}
	.st50{fill:#D3555B;}
	.st51{fill:#41C7F2;}
	.st52{fill:#36BBED;}
	.st53{fill:#C4DC7B;}
	.st54{fill:#A6D16F;}
	.st55{fill:#A2D8CB;}
	.st56{fill:#7CCBBB;}
	.st57{fill:#D1D3D4;}
	.st58{fill:#ED1C24;}
	.st59{fill:#5B2A02;}
	.st60{fill:#F1CF9C;}
	.st61{fill:#262262;}
	.st62{fill:#D2B693;}
	.st63{opacity:0.38;fill:#27AAE1;}
	.st64{fill:#2B3990;}
	.st65{fill:#A7A9AC;}
	.st66{fill:#6D6E71;}
	.st67{fill:#343B6F;}
	.st68{fill:#F1F0F0;}
	.st69{fill:#F1AE5B;}
	.st70{fill:#F9DF74;}
	.st71{fill:#5A98D1;}
	.st72{fill:#494C80;}
	.st73{fill:#EF487D;}
	.st74{fill:#39B54A;}
	.st75{fill:#FBB15F;}
	.st76{fill:#79684D;}
	.st77{fill:#BCE6FB;}
	.st78{fill:#94D9F8;}
	.st79{fill:#DA1C5C;}
	.st80{fill:#48342C;}
	.st81{fill:#D8D9DA;}
	.st82{fill:#414042;}
	.st83{fill:#000834;}
	.st84{fill:#D9EEE5;}
	.st85{fill:#FDDB42;}
	.st86{fill:#8DC63F;}
	.st87{fill:#9BD7D5;}
	.st88{fill:#C9B099;}
	.st89{fill:#EAC679;}
	.st90{fill:#C4D7CF;}
	.st91{fill:#1B75BC;}
	.st92{fill:#009444;}
	.st93{fill:none;stroke:#39B54A;stroke-width:17;stroke-miterlimit:10;}
	.st94{fill:none;stroke:#A8916D;stroke-width:74;stroke-miterlimit:10;}
	.st95{fill:none;stroke:#F1CF9C;stroke-width:75;stroke-miterlimit:10;}
	.st96{fill:none;stroke:#0098A8;stroke-width:74;stroke-miterlimit:10;}
	.st97{fill:none;stroke:#00A9BB;stroke-width:74;stroke-miterlimit:10;}
	.st98{fill:none;stroke:#F5E0CD;stroke-width:74;stroke-miterlimit:10;}
	.st99{fill:none;stroke:#F5E0CD;stroke-width:72;stroke-miterlimit:10;}
	.st100{fill:none;stroke:#594A42;stroke-width:8;stroke-linecap:round;stroke-miterlimit:10;}
	.st101{fill:none;stroke:#BE1E2D;stroke-width:8;stroke-linecap:round;stroke-miterlimit:10;}
	.st102{fill:none;stroke:#48484A;stroke-width:11;stroke-miterlimit:10;}
	.st103{fill:#FFFFFF;stroke:#BE1E2D;stroke-width:7;stroke-linecap:round;stroke-linejoin:round;stroke-miterlimit:10;}
	.st104{fill:none;stroke:#F15A29;stroke-width:18;stroke-miterlimit:10;}
	.st105{fill:#A8916D;stroke:#907C5D;stroke-width:3;stroke-linecap:round;stroke-linejoin:round;stroke-miterlimit:10;}
	.st106{fill:none;stroke:#907C5D;stroke-width:3;stroke-linecap:round;stroke-linejoin:round;stroke-miterlimit:10;}
	.st107{fill:#FFFFFF;stroke:#000000;stroke-width:7;stroke-linecap:round;stroke-linejoin:round;stroke-miterlimit:10;}
	.st108{fill:none;stroke:#2B3990;stroke-width:15;stroke-miterlimit:10;}
</style>
<g id="Layer_1">
</g>
<g id="heads">
	<circle class="st0" cx="712.3" cy="757" r="577.4"/>
	<path class="st1" d="M1239.8,502.4c6.3-10.9,6.5-19.6,6.5-28.3c0-7.8,3.1-13.6,11.3-13.8c8.1-0.2,12,5.8,12.5,13.1
		c0.6,8.4,0.1,16.9,0.1,29.8c8.3-13.5,3.9-33.8,20.1-30.7c18.6,3.6,3.6,23.5,10.1,34.7c4.9-0.4,5-5.2,6.8-8.4
		c2.9-5.1,6.5-9,12.8-7.1c6.2,1.9,7.3,7.1,7.5,12.8c0.5,23.7-6.1,46.5-10.4,69.4c-3.9,20.9-7.5,42.1-20.9,60.3
		c-5.4,7.3-5.4,17.7-5.3,27.3c0.3,36.3-0.4,72.6,0.5,108.9c0.4,15.1-4.5,23-19.9,23.5c-3.3,0.1-6.6,1.3-9.9,1.9
		c-34.8,6.1-46.9-5.6-42.5-40.4c4.2-33.9,7.5-68,7.4-102.2c0-8.4-0.2-15.9-9.5-20c-8.1-3.5-14.1-77.7-7-81.5c5.6-3,7.8-1.4,7.8-7.5
		c-0.5-35.7-10-70.2-13.5-105.5c-0.3-3.3-1.8-6.7-1.4-9.9c0.7-5.9,1.1-13,8.3-14.6c7.7-1.8,10.1,5,12.7,10.4
		c7.1,14.8,6.2,31.5,10.3,47C1236.4,480.7,1237.5,490,1239.8,502.4z"/>
	<path class="st2" d="M1007.2,1137.3l-24.1-189.5l-482.3-4.3l-24,192.7c-1.9,15-1.7,30.1,0.6,45l1,103.8
		c71.5,31.7,150.6,49.3,233.9,49.3c109.5,0,211.9-30.5,299.2-83.4l-4.9-67.7C1008.9,1168.1,1009.1,1152.6,1007.2,1137.3z"/>
	<path class="st1" d="M907.1,1255c25.1-2.8,50.2-5.7,75.3-8.5c5-0.6,10-1.5,14.9-1.1c8.3,0.7,19.4,0.5,20.6,10.9
		c1.3,11.2-9.9,12.3-18.1,13.5c-31.4,4.6-63.4,5.9-96.7,18.1c22.9-0.3,42.6-0.8,62.2-0.8c7,0,14.1,1,21.1,1.8
		c5.2,0.6,10.1,2.6,11,8.4c1,7.4-5.3,9.7-10.5,11.4c-8.1,2.7-16.6,3-25.3,2.2c-19.2-1.7-38,2-59.7,5.2c17.3,11.1,34.3,1.9,49.6,6.4
		c6.8,2,15.4,0.9,16,10.4c0.7,11.9-9.6,10.9-16.8,11.1c-46.8,0.8-96.4,7.2-139.5-7.5c-59.5-20.3-114.9-3.3-171.9,0.6
		c-33.4,2.2-44.1-5.9-44.9-40.1c-0.8-31.4,1.1-34.4,32.4-35.7c39-1.6,78.1-0.8,116.9-5.1c9.6-1.1,18.1-2.2,21.7-13.4
		c1.4-4.3,5.5-9,9.6-10.9c30.4-14.5,53.8-36.6,72.6-64.2c2.4-3.5,5.9-6.7,10.8-4.4c4.6,2.2,4.7,6.9,4.6,11.1
		c-0.4,12.5-4.6,23.4-13.4,32.8c-5.2,5.6-13,12.1-9.4,20.1c4.2,9.4,14,3.4,21.1,3.1c30.9-1.5,59.3-13.6,88.9-21
		c10.3-2.6,20.8-4.3,31.3-6.1c5.2-0.9,10.3,0.4,12.6,5.7c2.5,5.7-2.2,9.4-5.6,12.7c-5.7,5.6-13.3,7.4-21,9.6
		c-20.8,5.9-41.3,12.9-61.9,19.4C906.3,1252,906.7,1253.5,907.1,1255z"/>
	<path class="st3" d="M597.2,1341.4c-7.1,0-14.2-0.1-21.5-0.2c-135.3-2.3-229.7-26.3-280.8-71.4c-29.9-26.4-45.7-60.9-45.7-99.6
		c0-27.2,15.3-54.8,46.6-84.4c20.4-19.2,48.2-39.9,82.8-61.5c57.3-35.8,113.7-62.2,116-63.3l31.3,67.1
		c-0.9,0.4-53.6,25.2-106.1,57.8c-91.4,56.8-96.5,83.4-96.6,84.5c0,17.5,6.6,31.5,20.7,44c36.3,32.1,118.8,50.9,232.2,52.9
		c91.5,1.6,171.7-8.2,172.5-8.3l9.1,73.4C754.6,1332.8,684.2,1341.4,597.2,1341.4z M526,1028.1l-15.6-33.5L526,1028.1
		C526,1028.1,526,1028.1,526,1028.1L526,1028.1z"/>
	<path class="st2" d="M597.2,1329.4c-7.1,0-14.2-0.1-21.5-0.2c-135.3-2.3-229.7-26.3-280.8-71.4c-29.9-26.4-45.7-60.9-45.7-99.6
		c0-27.2,15.3-54.8,46.6-84.4c20.4-19.2,48.2-39.9,82.8-61.5c57.3-35.8,113.7-62.2,116-63.3l31.3,67.1
		c-0.9,0.4-53.6,25.2-106.1,57.8c-91.4,56.8-96.5,83.4-96.6,84.5c0,17.5,6.6,31.5,20.7,44c36.3,32.1,118.8,50.9,232.2,52.9
		c91.5,1.6,171.7-8.2,172.5-8.3l9.1,73.4C754.6,1320.8,684.2,1329.4,597.2,1329.4z M526,1016.1l-15.6-33.5L526,1016.1
		C526,1016.1,526,1016.1,526,1016.1L526,1016.1z"/>
	<path class="st2" d="M1149.7,1074.5c-4.7,0-9.3-0.2-13.5-0.4c-24.1-1.2-54.3-5.8-89.8-13.6c-58.9-12.9-112.4-30.1-114.7-30.8
		l22.7-70.4l-11.4,35.2l11.4-35.2c0.5,0.1,46.5,14.9,97.9,26.7c81.2,18.6,108.1,14.5,114.4,12.9c19.3-23.7,37-93.4,47.7-188.1
		c9.2-81.7,10.6-155.9,10.6-156.6l74,1.3c-0.1,3.2-1.5,78.5-11,163.6c-5.7,50.6-13.1,94.2-22,129.5c-12.4,49-27.9,82.8-47.4,103.4
		C1200.9,1070.7,1173.1,1074.5,1149.7,1074.5z M1168.3,998.4L1168.3,998.4L1168.3,998.4z"/>
	<path class="st4" d="M810.6,1123.9H646.1c-104.1,0-187.5-93.6-183.8-206.5l13.2-405h499.1l19.7,401.5
		C999.9,1028,916,1123.9,810.6,1123.9z"/>
	<ellipse class="st7" cx="726.7" cy="624.3" rx="216.4" ry="385.6"/>
	<path class="st4" d="M725,392.9c113.4,0,189.1,83.1,219.5,196.9c6.6-24.5,30.1-50.5,30.1-77.4c0-151.4-111.7-274.2-249.5-274.2
		S475.5,361,475.5,512.4c0,26.9,29.5,52.8,36.1,77.4C542,476,611.7,392.9,725,392.9z"/>
	<path class="st1" d="M935.3,523.7c0-114.8-93.1-207.8-207.8-207.8s-207.8,93.1-207.8,207.8c0,57.8,61.2,328.3,207.8,328.3
		C858.1,852,935.3,581.6,935.3,523.7z"/>
	<path class="st23" d="M732,626.3v-28.8c0-10.2-8.3-18.5-18.5-18.5h-10.2c-10.2,0-18.5,8.3-18.5,18.5v28.8c0,6.1-3.1,11.8-8.1,15.3
		c-8.1,5.5-13.1,13.2-13.1,21.6c0,16.9,20.1,30.7,44.8,30.7c24.8,0,44.8-13.7,44.8-30.7c0-8.4-5-16.1-13.1-21.6
		C735.1,638.1,732,632.4,732,626.3z"/>
	<path class="st24" d="M687.2,749.1c12.4,0.1,24,0,35.3-1.2c11.2-1.2,22-3.2,32-7.1c5-1.9,9.7-4.2,14.3-6.9c4.5-2.8,8.8-6,13-9.6
		c1-0.9,2-1.9,3-2.8l1.5-1.4l1.4-1.5c1-1,1.9-2.1,2.9-3.1l2.8-3.3l1.4-1.6c0.5-0.6,0.9-1.2,1.3-1.7c0.9-1.2,1.8-2.3,2.8-3.5l0.7-0.9
		l0.7-0.9l1.3-1.8c0.9-1.2,1.8-2.4,2.9-3.7c-0.1,1.5-0.3,3.1-0.5,4.6l-0.3,2.3c-0.1,0.8-0.3,1.5-0.4,2.3c-0.3,1.5-0.8,3-1.2,4.5
		c-0.2,0.8-0.4,1.5-0.7,2.3l-0.8,2.2l-1.7,4.4c-0.7,1.4-1.4,2.8-2.2,4.3c-0.4,0.7-0.7,1.4-1.1,2.1l-1.3,2c-0.9,1.3-1.7,2.7-2.7,4
		c-3.9,5.2-8.5,10-13.8,14c-5.3,4-11.2,7.2-17.4,9.5c-12.4,4.8-25.6,5.9-38.2,4.5c-6.3-0.7-12.4-2.1-18.4-4c-3-1-5.9-2.1-8.7-3.5
		C692.5,752.3,689.8,750.9,687.2,749.1z"/>
	<ellipse cx="798.4" cy="557.8" rx="9.3" ry="21"/>
	<ellipse cx="618.4" cy="562.9" rx="9.3" ry="21"/>
	<path class="st29" d="M726.7,417.5c98.3,0,181.3,61.4,207.6,145.6c5.7-18.1,8.7-37.3,8.7-57.2c0-112-96.9-202.8-216.4-202.8
		s-216.4,90.8-216.4,202.8c0,19.9,3.1,39.1,8.7,57.2C545.4,478.9,628.4,417.5,726.7,417.5z"/>
	<g>
		<path class="st38" d="M965.4,1287c3.4,0,6.8,0.2,10.3,0.6l-1.7-14.5c-23.1,2.8-46.6,5.9-70.8,14.7
			C926,1287.5,945.7,1287,965.4,1287z"/>
		<path class="st38" d="M907.1,1255c21.2-2.4,42.5-4.8,63.7-7.2l-2-17c-0.3,0.1-0.7,0.2-1,0.3c-20.8,5.9-41.3,12.9-61.9,19.4
			C906.3,1252,906.7,1253.5,907.1,1255z"/>
		<path class="st38" d="M961.7,1310.9c-19.2-1.7-38,2-59.7,5.2c17.3,11.1,34.3,1.9,49.6,6.4c6.8,2,15.4,0.9,16,10.4
			c0.7,11.9-9.6,10.9-16.8,11.1c-46.8,0.8-96.4,7.2-139.5-7.5c-18.4-6.3-36.4-9-54.2-9.6l0.7,5.6c-1.8,0.2-24.7,3-59.9,5.5l12.4,103
			l279.8-33.6l-11.6-96.5C972.9,1311.4,967.4,1311.4,961.7,1310.9z"/>
		<path class="st38" d="M748.6,1247l1,8.4c7.1-1.2,13-3.8,15.9-12.7c1.4-4.3,5.5-9,9.6-10.9c30.4-14.5,53.8-36.6,72.6-64.2
			c2.4-3.5,5.9-6.7,10.8-4.4c4.6,2.2,4.7,6.9,4.6,11.1c-0.4,12.5-4.6,23.4-13.4,32.8c-5.2,5.6-13,12.1-9.4,20.1
			c4.2,9.4,14,3.4,21.1,3.1c30.9-1.5,59.3-13.6,88.9-21c5.1-1.3,10.2-2.3,15.3-3.3L946,1041l-279.8,33.6l21.4,177.7
			C724.2,1250,748.2,1247,748.6,1247z"/>
	</g>
	<path class="st27" d="M637.8,526.4c-1.2,0-2.3-0.5-3.1-1.5c-4.2-5.2-8.6-8-13.2-8.2c-5.1-0.3-10.6,2.5-16.2,8.3l-0.3,0.3
		c-1.6,1.6-4.1,1.6-5.7,0c-1.6-1.6-1.6-4.1,0-5.7l0.2-0.2c7.3-7.5,14.8-11.1,22.3-10.7c6.9,0.3,13.3,4.1,19,11.2
		c1.4,1.7,1.1,4.2-0.6,5.6C639.5,526.1,638.6,526.4,637.8,526.4z"/>
	<path class="st27" d="M817.8,522.6c-1.2,0-2.3-0.5-3.1-1.5c-4.2-5.2-8.6-8-13.2-8.2c-5.1-0.2-10.6,2.5-16.2,8.3l-0.3,0.3
		c-1.6,1.6-4.1,1.6-5.7,0s-1.6-4.1,0-5.7l0.2-0.2c7.3-7.5,14.8-11.1,22.3-10.7c6.9,0.3,13.3,4.1,19,11.2c1.4,1.7,1.1,4.2-0.6,5.6
		C819.5,522.3,818.6,522.6,817.8,522.6z"/>
</g>
</svg>
