<?xml version="1.0" encoding="utf-8"?>
<!-- Generator: Adobe Illustrator 22.1.0, SVG Export Plug-In . SVG Version: 6.00 Build 0)  -->
<svg version="1.1" xmlns="http://www.w3.org/2000/svg" xmlns:xlink="http://www.w3.org/1999/xlink" x="0px" y="0px"
	 viewBox="0 0 1455 1455" style="enable-background:new 0 0 1455 1455;" xml:space="preserve">
<style type="text/css">
	.st0{fill:#F7941D;}
	.st1{fill:#DABCAA;}
	.st2{fill:#00A9BB;}
	.st3{fill:#0098A8;}
	.st4{fill:#00A79D;}
	.st5{fill:#FFF200;}
	.st6{fill:#F5E0CD;}
	.st7{fill:#008C84;}
	.st8{fill:#C1B2A5;}
	.st9{fill:#F0D0B4;}
	.st10{fill:#543E36;}
	.st11{fill:#6A330D;}
	.st12{fill:#72594B;}
	.st13{fill:#A8916D;}
	.st14{fill:#F0BEB4;}
	.st15{fill:#754C29;}
	.st16{fill:#FFD883;}
	.st17{fill:#F15A29;}
	.st18{fill:none;stroke:#000000;stroke-width:6;stroke-linecap:round;stroke-miterlimit:10;}
	.st19{fill:none;stroke:#000000;stroke-width:7;stroke-linecap:round;stroke-miterlimit:10;}
	.st20{fill:none;stroke:#000000;stroke-width:8;stroke-linecap:round;stroke-miterlimit:10;}
	.st21{fill:none;stroke:#000000;stroke-width:3;stroke-linecap:round;stroke-miterlimit:10;}
	.st22{fill:#DAC8B9;}
	.st23{fill:#BBA294;}
	.st24{fill:#EF4136;}
	.st25{fill:#FEFEFE;}
	.st26{fill:#FBCF9E;}
	.st27{fill:#594A42;}
	.st28{fill:#BE1E2D;}
	.st29{fill:#FFFFFF;}
	.st30{fill:#808285;}
	.st31{fill:#48484A;}
	.st32{fill:#58595B;}
	.st33{fill:#666666;}
	.st34{fill:#4F7793;}
	.st35{fill:#C3DA60;}
	.st36{fill:#9FCD5A;}
	.st37{fill:#F282AC;}
	.st38{fill:#E6E7E8;}
	.st39{fill:#FBB040;}
	.st40{fill:#907C5D;}
	.st41{fill:#603913;}
	.st42{fill:#00AEEF;}
	.st43{fill:#AFB9D2;}
	.st44{fill:#969CB3;}
	.st45{fill:#D8DEEC;}
	.st46{fill:#F0F3FA;}
	.st47{fill:#FFD782;}
	.st48{fill:#FEC46F;}
	.st49{fill:#F16465;}
	.st50{fill:#D3555B;}
	.st51{fill:#41C7F2;}
	.st52{fill:#36BBED;}
	.st53{fill:#C4DC7B;}
	.st54{fill:#A6D16F;}
	.st55{fill:#A2D8CB;}
	.st56{fill:#7CCBBB;}
	.st57{fill:#D1D3D4;}
	.st58{fill:#ED1C24;}
	.st59{fill:#5B2A02;}
	.st60{fill:#F1CF9C;}
	.st61{fill:#262262;}
	.st62{fill:#D2B693;}
	.st63{opacity:0.38;fill:#27AAE1;}
	.st64{fill:#2B3990;}
	.st65{fill:#A7A9AC;}
	.st66{fill:#6D6E71;}
	.st67{fill:#343B6F;}
	.st68{fill:#F1F0F0;}
	.st69{fill:#F1AE5B;}
	.st70{fill:#F9DF74;}
	.st71{fill:#5A98D1;}
	.st72{fill:#494C80;}
	.st73{fill:#EF487D;}
	.st74{fill:#39B54A;}
	.st75{fill:#FBB15F;}
	.st76{fill:#79684D;}
	.st77{fill:#BCE6FB;}
	.st78{fill:#94D9F8;}
	.st79{fill:#DA1C5C;}
	.st80{font-family:'AlloraRegular';}
	.st81{font-size:128.7797px;}
	.st82{fill:#48342C;}
	.st83{fill:#D8D9DA;}
	.st84{fill:#414042;}
	.st85{fill:#000834;}
	.st86{fill:#D9EEE5;}
	.st87{fill:#FDDB42;}
	.st88{fill:#8DC63F;}
	.st89{fill:#9BD7D5;}
	.st90{fill:#C9B099;}
	.st91{fill:#EAC679;}
	.st92{fill:#C4D7CF;}
	.st93{fill:#1B75BC;}
	.st94{fill:#009444;}
	.st95{fill:none;stroke:#39B54A;stroke-width:17;stroke-miterlimit:10;}
	.st96{fill:none;stroke:#A8916D;stroke-width:74;stroke-miterlimit:10;}
	.st97{fill:none;stroke:#F1CF9C;stroke-width:75;stroke-miterlimit:10;}
	.st98{fill:none;stroke:#0098A8;stroke-width:74;stroke-miterlimit:10;}
	.st99{fill:none;stroke:#00A9BB;stroke-width:74;stroke-miterlimit:10;}
	.st100{fill:none;stroke:#F5E0CD;stroke-width:74;stroke-miterlimit:10;}
	.st101{fill:none;stroke:#F5E0CD;stroke-width:72;stroke-miterlimit:10;}
	.st102{fill:none;stroke:#594A42;stroke-width:8;stroke-linecap:round;stroke-miterlimit:10;}
	.st103{fill:none;stroke:#BE1E2D;stroke-width:8;stroke-linecap:round;stroke-miterlimit:10;}
	.st104{fill:none;stroke:#48484A;stroke-width:11;stroke-miterlimit:10;}
	.st105{fill:#FFFFFF;stroke:#BE1E2D;stroke-width:7;stroke-linecap:round;stroke-linejoin:round;stroke-miterlimit:10;}
	.st106{fill:none;stroke:#F15A29;stroke-width:18;stroke-miterlimit:10;}
	.st107{fill:#A8916D;stroke:#907C5D;stroke-width:3;stroke-linecap:round;stroke-linejoin:round;stroke-miterlimit:10;}
	.st108{fill:none;stroke:#907C5D;stroke-width:3;stroke-linecap:round;stroke-linejoin:round;stroke-miterlimit:10;}
	.st109{fill:#FFFFFF;stroke:#000000;stroke-width:7;stroke-linecap:round;stroke-linejoin:round;stroke-miterlimit:10;}
	.st110{fill:none;stroke:#2B3990;stroke-width:15;stroke-miterlimit:10;}
</style>
<g id="Layer_1">
</g>
<g id="heads">
	<g>
		<circle class="st79" cx="652.3" cy="757" r="577.4"/>
		<g>
			<path class="st43" d="M952.3,200.3L952.3,200.3c-8.8,0-15.9,7.1-15.9,15.9V264h31.8v-47.8C968.2,207.5,961.1,200.3,952.3,200.3z"
				/>
			<rect x="793" y="885.1" class="st44" width="318.5" height="31.8"/>
			<g>
				<path class="st43" d="M713.6,1112.8l61.4-291.4h47.8l-61.1,290.4c-1.5,7.1-7.8,12.2-15,12.2h-23.9
					C716.8,1124,712.4,1118.6,713.6,1112.8z"/>
				<path class="st43" d="M1129.6,821.4h-47.8l54,251.4c12.8-19.5,24.4-39.9,34.8-61L1129.6,821.4z"/>
			</g>
			<path class="st45" d="M1398.2,295.9H506.4c-8.8,0-15.9-7.1-15.9-15.9V264c0-8.8,7.1-15.9,15.9-15.9h891.8
				c8.8,0,15.9,7.1,15.9,15.9V280C1414.1,288.8,1406.9,295.9,1398.2,295.9z"/>
			<path class="st46" d="M1398.2,295.9H506.4v509.6c0,17.6,14.3,31.8,31.8,31.8h828.1c17.6,0,31.8-14.3,31.8-31.8V295.9z"/>
			<path class="st43" d="M1318.5,773.6H586c-8.8,0-15.9-7.1-15.9-15.9l0,0c0-8.8,7.1-15.9,15.9-15.9h732.5c8.8,0,15.9,7.1,15.9,15.9
				l0,0C1334.5,766.5,1327.3,773.6,1318.5,773.6z"/>
			<g>
				<path class="st74" d="M622.4,713l-0.4-17c1.2,0,117.6-3.2,251.7-38.1c78.5-20.4,147.6-47.5,205.3-80.6
					c71.7-41.1,126-91.5,161.3-149.9l14.5,8.8c-36.9,60.9-93.3,113.4-167.6,155.9c-59.1,33.8-129.6,61.5-209.6,82.3
					C741.7,709.8,623.6,713,622.4,713z"/>
				<g>
					<polygon class="st74" points="1285.6,467.1 1278.8,365.7 1194.3,422.3 					"/>
				</g>
			</g>
			<text transform="matrix(1 0 0 1 1074.2218 689.8583)" class="st24 st80 st81">Sales</text>
		</g>
		<rect x="487.4" y="635.7" class="st10" width="225.5" height="89.9"/>
		<path class="st10" d="M808,378.5c0-114.8-93.1-207.8-207.8-207.8s-207.8,93.1-207.8,207.8c0,5.8,0,30.5,0,37.3
			c0,221.6,93.1,245.1,207.8,245.1s207.8,0,207.8-245.1C808,409,808,384.3,808,378.5z"/>
		<path d="M418.4,390.6l22.4-108.1c0-18.4,14.9-33.3,33.3-33.3h257.1c18.4,0,33.3,14.9,33.3,33.3l18.9,108.1H808c0-5.4,0-10,0-12.1
			c0-114.8-93.1-207.8-207.8-207.8s-207.8,93.1-207.8,207.8c0,2.1,0,6.7,0,12.1H418.4z"/>
		<ellipse cx="690.1" cy="401.9" rx="9.3" ry="21"/>
		<path d="M527.9,351c-1.2,0-2.3-0.5-3.1-1.5c-4.2-5.2-8.6-8-13.2-8.2c-5.1-0.3-10.6,2.5-16.2,8.3l-0.3,0.3c-1.6,1.6-4.1,1.6-5.7,0
			c-1.6-1.6-1.6-4.1,0-5.7l0.2-0.2c7.3-7.5,14.8-11.1,22.3-10.7c6.9,0.3,13.3,4.1,19,11.2c1.4,1.7,1.1,4.2-0.6,5.6
			C529.7,350.7,528.8,351,527.9,351z"/>
		<path d="M707.9,347.2c-1.2,0-2.3-0.5-3.1-1.5c-4.2-5.2-8.6-8-13.2-8.2c-5.1-0.3-10.6,2.5-16.2,8.3l-0.3,0.3
			c-1.6,1.6-4.1,1.6-5.7,0c-1.6-1.6-1.6-4.1,0-5.7l0.2-0.2c7.3-7.5,14.8-11.1,22.3-10.7c6.9,0.3,13.3,4.1,19,11.2
			c1.4,1.7,1.1,4.2-0.6,5.6C709.7,346.9,708.8,347.2,707.9,347.2z"/>
		<ellipse cx="510.1" cy="407" rx="9.3" ry="21"/>
		<g>
			<path class="st29" d="M524.8,553.9c0,0,75.4,64.9,150.7-3.9L524.8,553.9z"/>
			<path d="M600.1,585.1c-10.8,0-20.7-1.6-29.1-3.9c-28.7-7.7-47.7-23.9-48.5-24.6c-1.1-0.9-1.5-2.5-1-3.8c0.5-1.4,1.8-2.3,3.2-2.3
				l150.7-3.9c1.5,0,2.8,0.8,3.3,2.2c0.5,1.4,0.2,2.9-0.9,3.9C650.5,577.5,623.2,585.1,600.1,585.1z M535.1,557.2
				c8,5.3,21.3,12.9,37.9,17.3c33.3,8.9,64.4,1.9,92.7-20.7L535.1,557.2z M524.8,553.9L524.8,553.9L524.8,553.9z"/>
		</g>
		<path class="st82" d="M568.4,480.8l25-88.1c1.9-6.9,9.8-7.8,13-1.6l44.4,88.1c2.8,5.6-0.6,12.7-6.2,12.7h-69.4
			C570.3,491.9,566.8,486.3,568.4,480.8z"/>
		<ellipse class="st10" cx="390.3" cy="418" rx="33.2" ry="52"/>
		<ellipse class="st10" cx="808" cy="428" rx="33.2" ry="52"/>
		<path class="st82" d="M487.4,663.4c32.5,14.4,71.2,17.5,112.7,17.5s80.3,0,112.7-11.6v-20c-32.5,11.6-71.2,11.6-112.7,11.6
			s-80.3-3.1-112.7-17.5V663.4z"/>
		<path class="st29" d="M767.3,753.5l-334.4-6.6l-204.7,13.3L191.5,1105c105.4,139.4,272.6,229.4,460.8,229.4
			c80.4,0,156.9-16.4,226.4-46.1l137.5-107l-44.1-414.6L767.3,753.5z"/>
		<path class="st58" d="M568.1,810.6L532,999.8c-0.7,3.7-0.1,7.6,1.8,10.9l64.1,111.8c6.4,11.1,22.5,10.6,28.1-0.9l46.8-95.8
			c1.6-3.3,2-7,1.2-10.5l-45.5-200.4c-1.4-6.3-6.6-11.2-13-12.2l-29.4-4.8C577.8,796.5,569.7,802.1,568.1,810.6z"/>
		<path class="st28" d="M577,824.4l-27.3-27.3c-12.8-12.8-12.8-33.5,0-46.3l27.3-27.3c12.8-12.8,33.5-12.8,46.3,0l27.3,27.3
			c12.8,12.8,12.8,33.5,0,46.3l-27.3,27.3C610.5,837.1,589.8,837.1,577,824.4z"/>
		<path class="st83" d="M767.3,756L735,685.5L671.2,705c-45.2,13.8-95,12.4-139.1-4l-61-22.7l-38.2,68.6l133.8,49.8l34.2-66.4
			l28.8,67.9L767.3,756z"/>
		<path class="st84" d="M451.3,757.7l-37.6-11.3L346,874.3l75.7-4.9l-66.8,141.9l127.8,297.9c2.7,0.8,5.5,1.7,8.2,2.5L451.3,757.7z"
			/>
		<polygon class="st84" points="795.6,753 859.4,882.8 783.9,875.7 846.4,1019.5 699.4,1335.7 757.6,763.2 		"/>
		<g>
			<path class="st85" d="M1064.1,1161.8L1029.2,834c-4.1-38.7-35.8-68.6-74.6-70.6l-157.8-8l62.7,127.4l-75.5-7.2l62.5,143.9
				l-140.4,302l23.2,7.9C859.6,1312,976.3,1251.1,1064.1,1161.8z"/>
			<path class="st85" d="M346,874.3l66.7-126l-184.5,12L191.5,1105c72.4,95.7,173.9,168.1,291.3,204.1l-127.8-297.9l66.8-141.9
				L346,874.3z"/>
		</g>
		<g>
			<path class="st29" d="M290.5,1107.2L310.7,943l-10.7-1.3l-17.7,143.4C281.3,1093.7,284.6,1101.7,290.5,1107.2z"/>
		</g>
		<path class="st85" d="M260.1,759.2c0,0-86.2-16.7-123.4,30.4l-13.9,118.9l128-53.7L260.1,759.2z"/>
		<path class="st10" d="M865.6,1260.4c0.7,36.7-17.2,64.3-30.9,93.3c-4.3,9.1-14.3,12.4-24.2,10.9c-51.4-7.7-105.4-7.6-144.2-52.7
			c-6.7-7.8-16.8-7.2-25.7-8.6c-51.8-8.1-103.4-18.4-155.5-22.7c-30.3-2.5-37.1-18.9-36.4-45.2c0.3-10.7,2.1-21.5,4.7-31.9
			c5.2-20.5,15.2-31,37.7-24.4c52.1,15.5,106,22.3,159.5,30.7c13.3,2.1,25.1,3.4,34.2-11.2c3.2-5.2,10.2-9.8,16-10.9
			c42.3-7.9,78-29.8,110.6-58.8c4.2-3.8,9.3-7.7,15-4.6c7.4,4,5.5,11.7,4.1,18.2c-4.6,21.6-18.7,35.6-34.8,48
			c-5.2,4-12.8,8-11.7,15.2c1.4,10.4,11.5,7.5,18.1,8.5c45.4,7.3,91,13.6,136.3,21.2c15.6,2.6,40.5,4.1,38.3,23.2
			c-2.7,23.1-26.6,13.5-42,12C912.1,1268.3,889.5,1264.1,865.6,1260.4z"/>
		<path class="st85" d="M654.2,1339.5l-412.1-52.3c-40.9-1.3-79.6-19.1-107.2-49.6c-29.4-32.5-43.3-76.2-37.9-119.7l31.4-255.4
			l182.9-12.7l-29,235.3c-1.7,14,8.2,26.8,22.3,28.6l372.2,47.2L654.2,1339.5z"/>
	</g>
</g>
</svg>
