<?xml version="1.0" encoding="utf-8"?>
<!-- Generator: Adobe Illustrator 22.1.0, SVG Export Plug-In . SVG Version: 6.00 Build 0)  -->
<svg version="1.1" xmlns="http://www.w3.org/2000/svg" xmlns:xlink="http://www.w3.org/1999/xlink" x="0px" y="0px"
	 viewBox="0 0 1455 1455" style="enable-background:new 0 0 1455 1455;" xml:space="preserve">
<style type="text/css">
	.st0{fill:#F7941D;}
	.st1{fill:#DABCAA;}
	.st2{fill:#00A9BB;}
	.st3{fill:#0098A8;}
	.st4{fill:#00A79D;}
	.st5{fill:#FFF200;}
	.st6{fill:#F5E0CD;}
	.st7{fill:#008C84;}
	.st8{fill:#C1B2A5;}
	.st9{fill:#F0D0B4;}
	.st10{fill:#543E36;}
	.st11{fill:#6A330D;}
	.st12{fill:#72594B;}
	.st13{fill:#A8916D;}
	.st14{fill:#F0BEB4;}
	.st15{fill:#754C29;}
	.st16{fill:#FFD883;}
	.st17{fill:#F15A29;}
	.st18{fill:none;stroke:#000000;stroke-width:6;stroke-linecap:round;stroke-miterlimit:10;}
	.st19{fill:none;stroke:#000000;stroke-width:7;stroke-linecap:round;stroke-miterlimit:10;}
	.st20{fill:none;stroke:#000000;stroke-width:8;stroke-linecap:round;stroke-miterlimit:10;}
	.st21{fill:none;stroke:#000000;stroke-width:3;stroke-linecap:round;stroke-miterlimit:10;}
	.st22{fill:#DAC8B9;}
	.st23{fill:#BBA294;}
	.st24{fill:#EF4136;}
	.st25{fill:#FEFEFE;}
	.st26{fill:#FBCF9E;}
	.st27{fill:#594A42;}
	.st28{fill:#BE1E2D;}
	.st29{fill:#FFFFFF;}
	.st30{fill:#808285;}
	.st31{fill:#48484A;}
	.st32{fill:#58595B;}
	.st33{fill:#666666;}
	.st34{fill:#4F7793;}
	.st35{fill:#C3DA60;}
	.st36{fill:#9FCD5A;}
	.st37{fill:#F282AC;}
	.st38{fill:#E6E7E8;}
	.st39{fill:#FBB040;}
	.st40{fill:#907C5D;}
	.st41{fill:#603913;}
	.st42{fill:#00AEEF;}
	.st43{fill:#AFB9D2;}
	.st44{fill:#969CB3;}
	.st45{fill:#D8DEEC;}
	.st46{fill:#F0F3FA;}
	.st47{fill:#FFD782;}
	.st48{fill:#FEC46F;}
	.st49{fill:#F16465;}
	.st50{fill:#D3555B;}
	.st51{fill:#41C7F2;}
	.st52{fill:#36BBED;}
	.st53{fill:#C4DC7B;}
	.st54{fill:#A6D16F;}
	.st55{fill:#A2D8CB;}
	.st56{fill:#7CCBBB;}
	.st57{fill:#D1D3D4;}
	.st58{fill:#ED1C24;}
	.st59{fill:#5B2A02;}
	.st60{fill:#F1CF9C;}
	.st61{fill:#262262;}
	.st62{fill:#D2B693;}
	.st63{opacity:0.38;fill:#27AAE1;}
	.st64{fill:#2B3990;}
	.st65{fill:#A7A9AC;}
	.st66{fill:#6D6E71;}
	.st67{fill:#343B6F;}
	.st68{fill:#F1F0F0;}
	.st69{fill:#F1AE5B;}
	.st70{fill:#F9DF74;}
	.st71{fill:#5A98D1;}
	.st72{fill:#494C80;}
	.st73{fill:#EF487D;}
	.st74{fill:#39B54A;}
	.st75{fill:#FBB15F;}
	.st76{fill:#79684D;}
	.st77{fill:#BCE6FB;}
	.st78{fill:#94D9F8;}
	.st79{fill:#DA1C5C;}
	.st80{fill:#48342C;}
	.st81{fill:#D8D9DA;}
	.st82{fill:#414042;}
	.st83{fill:#000834;}
	.st84{fill:#D9EEE5;}
	.st85{fill:#FDDB42;}
	.st86{fill:#8DC63F;}
	.st87{fill:#9BD7D5;}
	.st88{fill:#C9B099;}
	.st89{fill:#EAC679;}
	.st90{fill:#C4D7CF;}
	.st91{fill:#1B75BC;}
	.st92{fill:#009444;}
	.st93{fill:none;stroke:#39B54A;stroke-width:17;stroke-miterlimit:10;}
	.st94{fill:none;stroke:#A8916D;stroke-width:74;stroke-miterlimit:10;}
	.st95{fill:none;stroke:#F1CF9C;stroke-width:75;stroke-miterlimit:10;}
	.st96{fill:none;stroke:#0098A8;stroke-width:74;stroke-miterlimit:10;}
	.st97{fill:none;stroke:#00A9BB;stroke-width:74;stroke-miterlimit:10;}
	.st98{fill:none;stroke:#F5E0CD;stroke-width:74;stroke-miterlimit:10;}
	.st99{fill:none;stroke:#F5E0CD;stroke-width:72;stroke-miterlimit:10;}
	.st100{fill:none;stroke:#594A42;stroke-width:8;stroke-linecap:round;stroke-miterlimit:10;}
	.st101{fill:none;stroke:#BE1E2D;stroke-width:8;stroke-linecap:round;stroke-miterlimit:10;}
	.st102{fill:none;stroke:#48484A;stroke-width:11;stroke-miterlimit:10;}
	.st103{fill:#FFFFFF;stroke:#BE1E2D;stroke-width:7;stroke-linecap:round;stroke-linejoin:round;stroke-miterlimit:10;}
	.st104{fill:none;stroke:#F15A29;stroke-width:18;stroke-miterlimit:10;}
	.st105{fill:#A8916D;stroke:#907C5D;stroke-width:3;stroke-linecap:round;stroke-linejoin:round;stroke-miterlimit:10;}
	.st106{fill:none;stroke:#907C5D;stroke-width:3;stroke-linecap:round;stroke-linejoin:round;stroke-miterlimit:10;}
	.st107{fill:#FFFFFF;stroke:#000000;stroke-width:7;stroke-linecap:round;stroke-linejoin:round;stroke-miterlimit:10;}
	.st108{fill:none;stroke:#2B3990;stroke-width:15;stroke-miterlimit:10;}
</style>
<g id="Layer_1">
</g>
<g id="heads">
	<g>
		<circle class="st4" cx="712.3" cy="757" r="577.4"/>
		<g>
			<path class="st34" d="M565.7,180.2l-23-8.3c-2.6-0.9-3.2-4.3-0.9-5.3l20-8.8L565.7,180.2z M565.7,180.2"/>
			<path class="st35" d="M570,182.6l217.2-1.5c2.6,0,4.4-2.2,3.9-4.8l-3.1-17.8c-0.5-2.6-3-4.7-5.6-4.7l-217.2,1.5
				c-2.6,0-4.4,2.2-3.9,4.8l3.1,17.8C564.9,180.5,567.4,182.6,570,182.6L570,182.6z M570,182.6"/>
			<path class="st36" d="M570,182.6l217.2-1.5c2.6,0,4.4-2.2,3.9-4.8l-1.6-8.9L562.9,169l1.6,8.9C564.9,180.5,567.4,182.6,570,182.6
				L570,182.6z M570,182.6"/>
			<path class="st37" d="M773.7,181.2l13.5-0.2c2.6,0,4.4-2.2,3.9-4.8l-3.1-17.8c-0.5-2.6-3-4.7-5.6-4.7l-13.5,0.2L773.7,181.2z
				 M773.7,181.2"/>
		</g>
		<path class="st39" d="M400,849.7l-3.7,150.7l31.5,259.3c84,47.6,181,74.8,284.4,74.8c50.5,0,99.4-6.5,146-18.6v-267.7l3.2-156.4
			l-400.3-48.9L400,849.7z"/>
		
			<rect x="558.1" y="718.3" transform="matrix(0.9906 0.1368 -0.1368 0.9906 113.7058 -81.3287)" class="st13" width="181.3" height="137.1"/>
		
			<ellipse transform="matrix(0.1368 -0.9906 0.9906 0.1368 81.8167 1135.978)" class="st13" cx="692.7" cy="521" rx="255.2" ry="219.9"/>
		<path class="st40" d="M561.7,755.1c26.9,20.9,58.4,34.9,93.2,39.7c29.3,4,58.1,1.2,85.3-7.5l2.9-20.9c-27.2,8.6-56,11.5-85.3,7.4
			c-34.8-4.8-66.4-18.8-93.2-39.7L561.7,755.1z"/>
		<path class="st41" d="M609.9,333.7c-3.9,132,215.7,158.4,337,175.1c0,0,83.7-219.7-150-291.2C695.5,186.5,426.4,173,445.6,455.7
			c1.4,20.5,27.3,77.4,27.3,77.4S560.9,317.3,609.9,333.7z"/>
		<circle class="st41" cx="668.1" cy="199.8" r="88"/>
		
			<ellipse transform="matrix(0.1368 -0.9906 0.9906 0.1368 -95.4819 915.11)" class="st13" cx="477.3" cy="512.3" rx="72.8" ry="47.8"/>
		<ellipse transform="matrix(0.2386 -0.9711 0.9711 0.2386 90.0289 1186.4634)" cx="801.6" cy="535.8" rx="22.2" ry="9.8"/>
		<ellipse transform="matrix(0.2386 -0.9711 0.9711 0.2386 -12.7271 975.0645)" cx="615.4" cy="495.6" rx="22.2" ry="9.8"/>
		<path class="st27" d="M645.5,462.9c-1.5,0-3-0.9-3.6-2.3c-3-6.5-6.9-10.5-11.6-11.9c-5.3-1.6-11.6-0.1-18.9,4.5l-0.3,0.2
			c-1.9,1.2-4.3,0.6-5.5-1.3c-1.2-1.9-0.6-4.3,1.3-5.5l0.3-0.2c9.3-5.8,17.9-7.6,25.4-5.3c7,2.1,12.6,7.5,16.6,16.2
			c0.9,2,0,4.4-2,5.3C646.7,462.8,646.1,462.9,645.5,462.9z"/>
		<path class="st27" d="M831.4,504.4c-1.5,0-3-0.9-3.6-2.3c-3-6.5-6.9-10.5-11.6-11.9c-5.3-1.6-11.6-0.1-18.9,4.5l-0.3,0.2
			c-1.9,1.2-4.3,0.6-5.5-1.3c-1.2-1.9-0.6-4.3,1.3-5.5l0.3-0.2c9.3-5.8,17.9-7.6,25.4-5.3c7,2.1,12.6,7.5,16.6,16.2
			c0.9,2,0,4.4-2,5.3C832.5,504.3,832,504.4,831.4,504.4z"/>
		<path class="st40" d="M674.6,608l17.1-51.4c1.3-4,6.8-4.6,8.9-1l30.5,51.4c1.9,3.3-0.4,7.4-4.2,7.4h-47.6
			C675.9,614.5,673.5,611.2,674.6,608z"/>
		<g>
			<path class="st29" d="M610.6,634.7c0,0,37.8,98.6,125.2,32.4L610.6,634.7z"/>
			<path class="st28" d="M679.1,693.5c-5.8,0-11.5-0.8-17-2.4c-37.4-10.7-54.1-53.4-54.8-55.2c-0.5-1.2-0.2-2.6,0.7-3.6
				s2.2-1.4,3.5-1.1l125.2,32.4c1.3,0.3,2.3,1.4,2.6,2.7c0.3,1.3-0.2,2.7-1.3,3.5C717.2,685.6,697.5,693.5,679.1,693.5z
				 M616.8,639.9c6.1,12,21.6,37.1,47.3,44.5c19.1,5.4,40.5,0.1,63.6-15.8L616.8,639.9z"/>
		</g>
		<path class="st13" d="M549.6,842.4l-88.4,0.4c-17.7,0.1-24.9,22.8-10.6,33.1l194.9,139.9l168.6-95.9c14.4-8.2,11.3-29.8-4.8-33.7
			l-80.2-19.1L549.6,842.4z"/>
		<path class="st13" d="M557.3,1397c-89,8.5-150.3,5.4-186.4-9.5c-42.9-17.6-55.7-71.4-61.6-110.3c-5.9-38.8-7.9-89.7-5.9-151.2
			c3.3-102.6,5.6-157.2,6.2-161.3l77.6,10.5c-0.1,1.1-1.4,47.2-5.1,141.2c-6.3,160.6,16.4,194.9,20,199.2
			c15.1,5.6,62.9,15.2,198.3-2.3c80.5-10.4,151.7-25.4,152.4-25.5l16.2,76.6c-3,0.6-74.5,15.7-158,26.5
			C592,1393.3,574.2,1395.3,557.3,1397z M402.5,1316.1L402.5,1316.1L402.5,1316.1z M387.1,975.2l-38.8-5.2L387.1,975.2
			C387.1,975.2,387.1,975.2,387.1,975.2L387.1,975.2z"/>
		<path class="st13" d="M400,849.7c0,0-95.5,7.5-90.5,115.1c5,107.6,77.6,10.5,77.6,10.5l12.9-24.7V849.7z"/>
		<path class="st13" d="M857.9,894.5c0,0,95.5,7.5,90.5,115.1c-5,107.6-77.6,10.5-77.6,10.5l-12.9-24.7V894.5z"/>
		<path class="st13" d="M981.4,1242.5c-7.2,0-14.1-0.8-20.9-2.5c-34.7-8.6-50.7-46.7-56-59.2c-8.4-20-16-46.2-22.6-78
			c-10.8-52.1-15.3-101.9-15.5-103.9l73.7-6.6c0.1,0.8,3.8,41.3,12.2,85.1c12.3,63.9,24.8,85.3,29.2,91.1
			c6.4-0.1,22.4-3.4,52.4-26.1c26.3-20,56.8-50,90.7-89.2c59-68.3,107.1-140.3,107.5-141.1l61.6,41c-2.1,3.1-51.1,76.7-113.2,148.5
			C1098,1197,1034,1242.5,981.4,1242.5z M903.2,995.5l36.8-3.3c0,0,0,0,0,0L903.2,995.5z"/>
		<path class="st17" d="M941.7,1352.2c-45,0-91.5-31.8-91.5-85c0-53.6,36-97.2,80.2-97.2v18c-34.3,0-62.2,35.5-62.2,79.2
			c0,25,12.6,40.6,23.2,49.3c13.7,11.2,32,17.7,50.3,17.7V1352.2z"/>
		<path class="st13" d="M854.7,1246c15.8-4,28.1-7.8,40.7-10.1c15.7-2.8,26.9-4.6,30.5,19.8c3,20.5,4.6,40.1,4.6,60.7
			c0,16.6-7.5,23.8-21.4,27.6c-37.7,10.3-73.2,30.7-112.4,14.8c-7.8-3.2-20,3.6-27.7,5.6c-40,10-78,6.4-117.4,18.3
			c-19.7,5.9-28.1-2.8-35.2-17.8c-0.3-0.6-0.5-1.4-0.7-2c-14.7-38.8-11.7-46.2,28.5-53.9c37.6-7.2,75-14.9,112.1-24.3
			c10.9-2.8,20.4-5.6,24.3-18.1c2.4-7.6,8.3-13.6,15.2-17.9c22.4-14,40.2-32.7,55.7-53.8c4-5.4,8.2-14.6,16.3-10.6
			c7,3.5,4.2,12.6,4.3,19.8C872,1219,860.4,1228.6,854.7,1246z"/>
		<path class="st17" d="M1050.2,1384.5h-70.3c-27.4,0-49.6-22.2-49.6-49.6v-191.3h169.4v191.3
			C1099.8,1362.3,1077.6,1384.5,1050.2,1384.5z"/>
		<g>
			<g>
				<path class="st29" d="M998.6,1211.2c3.6,0.4,7.5,2.5,7.5,7.8c0,8.6-7,15.8-14.5,17.3c-6.3,1.3-8.6-3.2-8.6-3.2
					c0.6-0.5,1.3-1.1,1.9-1.6c0,0,1.4,2.7,5.2,2c4.4-0.9,7.6-5.9,7.6-12.5c0-7.2-6.5-7.6-6.5-7.6c0,0,0,0,0,0
					c-1.7,0.2-3,0.3-3.9,0.3c-1.9,4.8-3.4,9.4-4.3,13.2c-1.2,5.2-2,9.1-2,10.2c-3.3,0.6-8.6,1.4-8.6-2.6c0-3.5,11.6-39.3,13.8-46.3
					c-2.6,0.5-6,1.1-8,1.5c-6.7,1.1-11.3,7.9-11.3,11.8c0,3.1,0.8,4.2,1.9,5.2c-1.9,2.2-8.6,0.8-8.6-5.7c0-6.5,6.9-12,11.4-12.7
					c4.5-0.7,9.2-1.4,22.1-4c0,0-2.7,10.2-5.6,21.6c3.8-9.1,10.5-22.6,17.6-24.3c5.4-1.2,8.3,2.4,8.3,7.2
					C1014,1196.5,1007.5,1206.8,998.6,1211.2z M1006.6,1186.7c0-0.9-0.6-1.6-1.6-1.4c-4.5,1-11.4,13-16.4,25c0.4,0,1,0,1.7-0.2
					C997.3,1208.8,1006.6,1193.1,1006.6,1186.7z"/>
				<path class="st29" d="M1038.5,1203.4c0,0-8.8,23.3-22.3,26.5c-4.7,1.1-7.8-2.3-7.8-7.6c0-10.7,8.9-24.9,16.2-26.6
					c4-0.9,6.5,1.8,6.5,4.4c0,4-5.6,12.1-9.4,13c-1.4,0.3-2.7-0.2-3.4-0.6c-1.2,3.5-2,7-2,9.7c0,2.5,1.2,3.5,2.5,3.3
					c6.9-1.6,17.6-22.3,17.6-22.3C1037.1,1203.2,1037.8,1203.3,1038.5,1203.4z M1018.8,1211.2c4.5-1.9,8.8-9.4,8.8-12
					c0-0.6-0.5-1.1-1.2-0.9C1024.6,1198.7,1021.2,1204.7,1018.8,1211.2z"/>
				<path class="st29" d="M1048.3,1193.1c-2.7,0.5-5.3,4-5.3,7.1c0,6.8,7.2,5.1,7.2,12.8c0,7.8-6.6,11.5-13.3,13
					c-5.1,1.1-8.1-0.3-8.1-4.4c0-2.9,2.7-7.9,8.9-7.4c-3.8,4.1-4.1,10-1.8,9.4c3.3-0.7,6.2-5.7,6.2-9.8c0-5.1-7.7-5.7-7.7-11.8
					c0-4.7,4.3-8.9,11.4-10.3c6.8-1.4,8.8,0.6,8.8,3.5c0,3.7-3.1,6.7-8.7,7.8C1052,1196.9,1051,1192.6,1048.3,1193.1z"/>
				<path class="st29" d="M1076.5,1198.1c0,0-9.7,22.1-19.7,23.9c-2.4,0.4-4-1-4-3.8c0-4.5,4.4-18.5,8.5-30.7c-5.5,1.2-7,2.6-7,2.6
					c0-1.9,0.6-5.6,8.8-7.8c1.1-3.3,2.2-6.4,3.1-8.9c1.5-4.3,3.5-5.2,4.9-5.4c3.8-0.5,5,1.1,5,1.1c-1,1.1-3.1,6-5.4,12.1
					c7.5,0.3,5.6,5.6,5.6,5.6c0,0-2.1-0.8-7.5-0.4c-3.8,10.9-7.6,23.7-7.6,27.7c0,0.5,0.4,0.8,0.7,0.7c3.9-0.7,12.5-17.2,12.4-17.1
					C1075.1,1197.9,1075.8,1198,1076.5,1198.1z"/>
				<path class="st29" d="M1001.1,1252.6c0-3.5-4.6-6.5-10.2-5.4c-4.8,1-9.6,2.8-14.3,4.7c-3.8,14.7-12,46.6-12,50.4
					c-4,0.5-10.2,1-10.2-3.7c0-3.4,8.3-29.1,12.8-43c-4.3,1.6-8.6,2.8-12.8,3.1c-21.4,1.1-12.2-15.6-12.2-15.4c0,3.6,3.6,7,12.2,6.4
					c17.9-1.7,22.8-9.4,34.4-11.6C1003.9,1235,1004.2,1249,1001.1,1252.6z"/>
				<path class="st29" d="M1008.9,1267.2c0-0.1-10.5,28.2-26.6,31.2c-5.6,1-9.3-3.3-9.3-9.7c0-12.7,10.6-29,19.3-30.8
					c4.8-1,7.7,2.2,7.7,5.4c0,4.8-6.6,14.3-11.2,15.2c-1.6,0.3-3.2-0.3-4-0.8c-1.4,4.1-2.4,8.3-2.4,11.5c0,3,1.4,4.3,2.9,4
					c8.2-1.5,21-26.3,21-26.3C1007.2,1267,1008,1267.1,1008.9,1267.2z M985.3,1276.2c5.4-2,10.5-10.9,10.5-14c0-0.8-0.5-1.3-1.4-1.1
					C992.3,1261.5,988.2,1268.6,985.3,1276.2z"/>
				<path class="st29" d="M1046.6,1260.6c0,0-10,26.8-19.2,29c-3.6,0.8-6.4-1-6.4-4.9c0-2.1,0.4-5.4,1.2-9.1
					c-3.3,7-9,17.3-14.1,18.4c-4.9,1.1-8.3-1.1-8.3-6.6c0-11.8,7.3-30.2,18-32.7c7-1.6,7.8,5.5,7.8,5.5c-0.6,0.4-1.2,0.8-1.8,1.1
					c0,0-0.9-2.6-3.5-2c-4.6,1.1-11.4,19.2-11.4,26.3c0,2.3,0.7,2.8,1.4,2.6c4-0.9,11.1-15,14.9-24.5c0.5-1.6,1.1-3,1.6-4.4
					c0.1-0.3,0.2-0.7,0.3-1c0.2-0.4,0.4-0.8,0.6-1.1c1.3-2.8,2.7-4.7,4.1-5c3.7-0.8,5.9,1.3,5.9,1.3c-2.9,4.8-9.4,29.6-7.1,29
					c4.1-1,13.4-22.4,13.4-22.3C1045,1260.4,1045.8,1260.5,1046.6,1260.6z"/>
				<path class="st29" d="M1097,1260.2c0,0-5.7,19-17,20c-16.9,1.8,4-31.5-1.5-30.9c-5.4,0.5-15,23.3-15.2,31.2c0,0.1,0,0.1,0,0.2
					c0,0,0,0,0,0c0,0,0,0,0,0c0,0,0,0,0,0c-19.1,3.2,2.7-29.9-2.8-29c-5.5,0.9-15.2,24.7-15.2,32.3c0,0,0,0,0,0c-4,0.8-8,0.3-8-3.3
					c0-7.6,5-32.2,11.6-33.6c3.6-0.7,5.3,0.8,5.3,0.8c-1.7,2-3.9,9.6-5.7,17.5c3.8-8.9,10-20.9,16.6-21.9c10.7-1.5,6,5.5,1.9,17.5
					c3.8-8.5,9.7-19.1,16-19.6c15.7-1-5.7,33,0.9,32.5c4.5-0.4,10.8-15.9,10.8-15.8C1095.5,1258.8,1096.2,1259.5,1097,1260.2z"/>
				<path class="st29" d="M1004.2,1312.1c0,4.6-4.1,12.8-9.5,13.9c-2.4,0.5-3.7-1.3-3.7-1.3c2.8-0.6,7.3-9.2,7.3-13.2
					c0-1.5-1-2.8-2.7-2.4c-4.5,1-15.7,16.3-15.7,21.1c0,1.8,0.7,2.8,2.7,2.7c0.7-0.3,1.4-0.5,2-0.6c3.6-0.7,4.3,3.5,4.3,3.5
					c-7.9,1.6-15.3,14.2-15.3,18.6c0,2.2,1.4,3.2,2.8,3c6.5-1.1,12.9-13.1,12.9-13.1c1,0,2.1-0.1,3.1-0.1c0,0-6.5,16.2-18.2,18.1
					c-7.1,1.1-11.9-2.4-11.9-6.3c0-8.3,8.7-16.1,15.6-20.5c-3.2-0.6-6-2.8-6-7.1c0-8.5,10.5-19.2,22.3-21.7
					C999.9,1305.5,1004.2,1307.5,1004.2,1312.1z"/>
				<path class="st29" d="M1029.3,1326.9c0,0-4.7,6.6-10.2,7.9c-1,0.2-1.9,0.2-2.6,0c-5.3,10-13.1,21.7-16.8,22.5
					c-3.5,0.8-5.9-1.6-5.9-4.6c0-9.5,7-27.3,12.9-28.7c2.9-0.7,3.9,0.7,3.9,0.7c-2.6,3.3-9.1,20.6-9.1,26.2
					c2.8-0.6,9.8-13,12.3-18.5c-0.3-0.7-0.5-1.5-0.5-2.4c0-4.2,3.4-9,5.9-9.6c1.4-0.3,2.4,0.5,2.4,1.3c0,1.9-1.6,6-4,10.8
					c0.4,0,0.9-0.1,1.4-0.2c4.5-1.1,8.7-6.7,8.6-6.7C1028.2,1326.1,1028.8,1326.5,1029.3,1326.9z"/>
				<path class="st29" d="M1049.5,1323.8c0,0-8.8,23.1-22.3,26.3c-4.7,1.1-7.8-2.3-7.8-7.6c0-10.7,8.9-25,16.2-26.6
					c4-0.9,6.5,1.8,6.5,4.5c0,4-5.6,12-9.4,12.9c-1.4,0.3-2.7-0.2-3.4-0.6c-1.2,3.5-2,7-2,9.7c0,2.5,1.2,3.6,2.5,3.3
					c6.9-1.6,17.6-22.1,17.6-22.1C1048.1,1323.6,1048.8,1323.7,1049.5,1323.8z M1029.8,1331.3c4.5-1.9,8.8-9.3,8.8-11.9
					c0-0.6-0.5-1.1-1.2-0.9C1035.6,1318.9,1032.1,1324.9,1029.8,1331.3z"/>
				<path class="st29" d="M1066.1,1329.3c-14,2.2-1-12.7-4-12.2c-2.9,0.5-8.8,12.2-10.7,17.6c-1.5,4.5-2.8,8.8-2.6,11.6
					c-4.3,0.9-7.1-0.9-7.2-3.6c-0.2-4.5,8.1-23.1,7.9-26.9c0,0,6.8-1.9,7,1.6c0,0.5,0,1-0.1,1.6c2-3.3,4.3-5.9,6.4-6.2
					c4-0.6,5.3,0.7,5.5,3C1068.5,1319,1065.8,1323.5,1066.1,1329.3z"/>
			</g>
		</g>
		<path class="st13" d="M1331.4,792.9c12.6-5.3,18-12.7,23.2-20.3c4.6-6.8,11.2-9.7,19.1-4.5c7.8,5.2,7.9,13,4.1,19.7
			c-4.4,7.7-10,14.8-17.8,26c16.1-6.3,24.1-26.8,37.7-13.4c15.6,15.5-10.6,22.9-11.2,36.9c4.9,2.9,7.9-1.3,11.6-2.8
			c5.8-2.5,11.6-3.6,16.5,2.3c4.8,5.7,2.7,11.1-0.6,16.1c-13.8,21-33.8,36.4-51.7,53.5c-16.3,15.6-32.6,31.7-56.2,38.7
			c-9.5,2.8-15.8,11.8-21.5,20.2c-21.6,31.8-44.1,62.9-65,95.1c-8.7,13.4-18.1,17-33.2,7.3c-3.2-2.1-7.1-3.2-10.6-4.9
			c-37-17.7-41.5-35.8-16.3-63.3c24.5-26.7,48-54.2,68.6-84c5.1-7.3,9.4-14,2.9-23.7c-5.6-8.4,33.3-76.9,42.3-75.6
			c7.2,1.1,8.3,4,11.9-1.4c21-31.4,13.6-22.3,31.5-55.3c1.7-3.1,2.3-7,4.6-9.5c4.2-4.7,8.9-10.5,16.7-7.2c8.5,3.6,6.7,11.1,5.9,17.5
			C1341.7,777.8,1336.7,780.6,1331.4,792.9z"/>
		<g>
			<path class="st34" d="M1229.6,708.6l-9.4-45.9c-1-5.1,4.2-9.3,8.2-6.5l35.8,25L1229.6,708.6z M1229.6,708.6"/>
			<path class="st35" d="M1229.9,718.1l130.7,205c2.7,4.3,8.3,5.2,12.3,2l27.5-21.9c4.1-3.2,5.1-9.3,2.4-13.7l-130.7-205
				c-2.8-4.3-8.3-5.2-12.3-2l-27.5,21.9C1228.2,707.7,1227.1,713.8,1229.9,718.1L1229.9,718.1z M1229.9,718.1"/>
			<path class="st36" d="M1229.9,718.1l130.7,205c2.7,4.3,8.3,5.2,12.3,2l13.8-10.9L1246,693.5l-13.8,10.9
				C1228.2,707.7,1227.1,713.8,1229.9,718.1L1229.9,718.1z M1229.9,718.1"/>
			<path class="st37" d="M1346.4,901l14.1,22.2c2.8,4.3,8.3,5.2,12.3,2l27.5-21.9c4.1-3.2,5.1-9.3,2.4-13.7l-14.2-22.2L1346.4,901z
				 M1346.4,901"/>
		</g>
		<g>
			<path class="st13" d="M1233.5,877.7l51.9-122.4c0,0,24.6-39.4,26.8,12.5l-26.8,71.4c0,0,14.4,1.9,14.2,31.7"/>
			<path class="st40" d="M1233.5,879.2c-0.2,0-0.4,0-0.6-0.1c-0.8-0.3-1.1-1.2-0.8-2l51.9-122.4c0-0.1,0.1-0.1,0.1-0.2
				c1.1-1.8,11-17.1,19.6-14.8c6,1.6,9.2,10.7,9.9,28c0,0.2,0,0.4-0.1,0.6l-26.2,69.9c4.1,1.6,13.9,7.9,13.7,32.7
				c0,0.8-0.7,1.5-1.5,1.5c0,0,0,0,0,0c-0.8,0-1.5-0.7-1.5-1.5c0.2-28.2-12.7-30.2-12.9-30.2c-0.5-0.1-0.9-0.3-1.1-0.7
				s-0.3-0.9-0.1-1.3l26.6-71.1c-0.9-20.1-5.2-24.2-7.7-24.9c-5.5-1.5-13.5,9.1-16.3,13.4l-51.9,122.3
				C1234.7,878.8,1234.1,879.2,1233.5,879.2z"/>
		</g>
		<path class="st13" d="M1300.2,791.2c0,0-5.9,28.8,21.5,17.4l9.7-15.7l-4.3,20.4c0,0,0.8,22.7,32.9,0.5c0,0-19.5,46,26.5,23.4
			c0,0-39.4,48.3,7.6,39.4l19.9-23.8c3.3-5.1,5.4-10.4,0.6-16.1c-4.9-5.8-10.6-4.8-16.5-2.3c-3.7,1.6-6.7,5.8-11.6,2.8
			c0.5-14,26.8-21.4,11.2-36.9c-13.5-13.4-21.6,7.2-37.7,13.4c7.8-11.2,13.3-18.3,17.8-26c3.9-6.7,3.7-14.5-4.1-19.7
			c-7.9-5.2-14.4-2.3-19.1,4.5c-5.2,7.6-10.6,15-23.2,20.3c5.3-12.3,10.4-15.1,12.4-32.7c0.8-6.4,2.5-13.9-5.9-17.5
			c-7.8-3.3-12.5,2.5-16.7,7.2c-2.3,2.5-2.9,6.4-4.6,9.5"/>
		<path class="st40" d="M1383.9,879.2c-6.5,0-10.8-1.8-12.9-5.4c-5.1-8.5,5-24.7,10.8-32.8c-11.6,4.9-19.4,5.2-23.8,1
			c-6-5.6-3.1-17.9-0.9-24.5c-11.1,7-19.5,9.1-25.2,6.3c-5.9-3-6.2-10.2-6.3-10.5c0-0.1,0-0.2,0-0.4l2.5-12l-5.2,8.4
			c-0.2,0.3-0.4,0.5-0.7,0.6c-8.7,3.6-15.2,3.7-19.3,0.3c-6.9-5.7-4.3-18.8-4.2-19.3c0.2-0.8,1-1.3,1.8-1.2c0.8,0.2,1.3,1,1.2,1.8
			c0,0.1-2.3,11.9,3.2,16.4c3.2,2.6,8.5,2.4,15.8-0.6l9.4-15.3c0.4-0.6,1.2-0.9,1.8-0.6c0.7,0.3,1.1,1,0.9,1.7l-4.2,20.2
			c0.1,0.9,0.7,5.8,4.6,7.7c3.6,1.8,11,1.7,25.9-8.6c0.5-0.4,1.3-0.4,1.8,0.1c0.5,0.4,0.7,1.1,0.4,1.7c-2.3,5.3-6.9,20.3-1.4,25.5
			c3.9,3.7,12.9,2.3,25.8-4.1c0.6-0.3,1.4-0.1,1.8,0.4c0.4,0.6,0.4,1.3,0,1.9c-5.5,6.8-18.9,26.2-14.1,34.1
			c2.3,3.9,9.4,4.9,20.3,2.8c0.8-0.2,1.6,0.4,1.8,1.2c0.2,0.8-0.4,1.6-1.2,1.8C1390.4,878.8,1386.9,879.2,1383.9,879.2z"/>
	</g>
</g>
</svg>
