<?xml version="1.0" encoding="utf-8"?>
<!-- Generator: Adobe Illustrator 23.0.1, SVG Export Plug-In . SVG Version: 6.00 Build 0)  -->
<svg version="1.1" id="Layer_1" xmlns="http://www.w3.org/2000/svg" xmlns:xlink="http://www.w3.org/1999/xlink" x="0px" y="0px"
	 viewBox="0 0 250 180" style="enable-background:new 0 0 250 180;" xml:space="preserve">
<style type="text/css">
	.st0{fill:#EDF1F2;}
	.st1{fill:#3E5574;}
	.st2{fill:#283139;}
	.st3{opacity:0.6;fill:#283139;}
	.st4{fill:#5B35A8;}
	.st5{fill:#FFB0AE;}
	.st6{fill:#FF9100;}
	.st7{opacity:0.2;}
	.st8{fill:#FFFFFF;}
	.st9{fill:#5039A3;}
	.st10{fill:#0DACD1;}
	.st11{fill:#007CFF;}
	.st12{opacity:0.7;fill:#0078A0;}
	.st13{fill:url(#SVGID_1_);}
	.st14{fill:url(#SVGID_2_);}
	.st15{fill:url(#SVGID_3_);}
	.st16{fill:url(#SVGID_4_);}
	.st17{fill:url(#SVGID_5_);}
	.st18{fill:#61BC6C;}
	.st19{fill:#8BD692;}
	.st20{fill:#6D8699;}
	.st21{fill:#DB7A05;}
	.st22{fill:url(#SVGID_6_);}
	.st23{fill:#283549;}
	.st24{opacity:0.3;}
	.st25{opacity:0.9;fill:#FFFFFF;}
	.st26{opacity:0.2;fill:#FFFFFF;}
	.st27{opacity:0.3;fill:#FFFFFF;}
	.st28{fill:url(#SVGID_7_);}
	.st29{opacity:0.8;fill:#FFFFFF;}
	.st30{fill:url(#SVGID_8_);}
	.st31{fill:url(#SVGID_9_);}
	.st32{fill:#1A2E35;}
	.st33{fill:#FFC7AB;}
	.st34{fill:url(#SVGID_10_);}
	.st35{opacity:0.1;fill:#FFFFFF;}
	.st36{fill:#FFC3BD;}
	.st37{fill:#E1E1E1;}
	.st38{fill:#F5F5F5;}
	.st39{fill:#55AA5D;}
	.st40{fill:url(#SVGID_11_);}
	.st41{fill:#FF9F55;}
	.st42{fill:url(#SVGID_12_);}
	.st43{fill:url(#SVGID_13_);}
	.st44{fill:#0078A0;}
	.st45{opacity:0.1;fill:#FFFFFF;enable-background:new    ;}
	.st46{opacity:0.2;enable-background:new    ;}
	.st47{fill:#7D58FF;enable-background:new    ;}
	.st48{opacity:0.2;fill:#FFFFFF;enable-background:new    ;}
	.st49{fill:url(#SVGID_14_);}
	.st50{opacity:0.7;fill:#FFFFFF;}
	.st51{fill:url(#SVGID_15_);}
	.st52{fill:#FD897B;}
	.st53{opacity:0.6;fill:#FFFFFF;enable-background:new    ;}
	.st54{opacity:0.25;fill:#FFFFFF;}
	.st55{fill:#1A2E35;enable-background:new    ;}
	.st56{fill:#0DACD1;enable-background:new    ;}
	.st57{fill:#0AC3CC;enable-background:new    ;}
	.st58{opacity:0.3;fill:#FFFFFF;enable-background:new    ;}
	.st59{fill:#61BC6C;enable-background:new    ;}
	.st60{fill:#FF887B;}
	.st61{fill:#38A2F3;}
	.st62{clip-path:url(#SVGID_17_);}
	.st63{fill:url(#SVGID_18_);}
	.st64{fill:#F7F7F7;}
	.st65{opacity:0.5;}
	.st66{clip-path:url(#SVGID_20_);}
	.st67{fill:#5B35AF;}
	.st68{fill:#0AC3CC;}
	.st69{fill:none;}
	.st70{clip-path:url(#SVGID_22_);fill:#F7F7F7;}
	.st71{clip-path:url(#SVGID_24_);}
	.st72{clip-path:url(#SVGID_26_);fill:#FFFFFF;}
	.st73{clip-path:url(#SVGID_28_);fill:#FFFFFF;}
	.st74{clip-path:url(#SVGID_30_);fill:#FFFFFF;}
	.st75{fill:url(#SVGID_31_);}
	.st76{fill:#005E77;}
	.st77{clip-path:url(#SVGID_37_);fill:#FFFFFF;}
	.st78{clip-path:url(#SVGID_39_);fill:#FFFFFF;}
	.st79{clip-path:url(#SVGID_41_);fill:#FFFFFF;}
	.st80{clip-path:url(#SVGID_43_);fill:#FFFFFF;}
	.st81{clip-path:url(#SVGID_45_);fill:#FFFFFF;}
	.st82{clip-path:url(#SVGID_47_);fill:#FFFFFF;}
	.st83{clip-path:url(#SVGID_49_);fill:#FFFFFF;}
	.st84{clip-path:url(#SVGID_51_);fill:#FFFFFF;}
	.st85{clip-path:url(#SVGID_53_);fill:#FFFFFF;}
	.st86{clip-path:url(#SVGID_55_);fill:#FFFFFF;}
	.st87{clip-path:url(#SVGID_57_);fill:#FFFFFF;}
	.st88{clip-path:url(#SVGID_59_);fill:#FFFFFF;}
	.st89{opacity:0.6;fill:#FFFFFF;}
	.st90{opacity:0.5;fill:#FFFFFF;}
	.st91{fill:#FFCCA9;}
	.st92{fill:url(#SVGID_60_);}
	.st93{fill:url(#SVGID_61_);}
	.st94{fill:url(#SVGID_62_);}
	.st95{fill:#FFB570;}
	.st96{fill:#757D28;}
	.st97{fill:#5C9E33;}
	.st98{fill:#4D8B33;}
	.st99{fill:#B1C265;}
	.st100{fill:#92A05B;}
	.st101{fill:#C7CA7F;}
	.st102{fill:#518330;}
	.st103{fill:#6C9F44;}
	.st104{fill:#4A8A33;}
	.st105{fill:#689C2F;}
	.st106{fill:#478B33;}
	.st107{fill:#61A23E;}
	.st108{fill:#5C9B3B;}
	.st109{fill:url(#SVGID_63_);}
	.st110{fill:url(#SVGID_64_);}
	.st111{fill:url(#SVGID_65_);}
	.st112{fill:#FFBDA6;}
	.st113{fill:url(#SVGID_66_);}
	.st114{opacity:0.2;fill:#DB7A05;}
	.st115{fill:#CD5B51;}
	.st116{fill:url(#SVGID_67_);}
	.st117{fill:url(#SVGID_68_);}
	.st118{fill:url(#SVGID_69_);}
	.st119{fill:url(#SVGID_70_);}
	.st120{fill:url(#SVGID_71_);}
	.st121{fill:url(#SVGID_72_);}
	.st122{fill:#1C8BA5;}
	.st123{opacity:0.2;fill:#1C8BA5;}
	.st124{opacity:0.4;fill:#1C8BA5;}
	.st125{opacity:0.5;fill:#1C8BA5;}
	.st126{opacity:0.3;fill:#007CFF;}
	.st127{opacity:0.8;fill-rule:evenodd;clip-rule:evenodd;fill:#FFFFFF;}
	.st128{fill:#E0E2E2;}
	.st129{fill:url(#SVGID_73_);}
	.st130{fill:url(#SVGID_74_);}
	.st131{fill:#E7E7E7;}
	.st132{clip-path:url(#SVGID_76_);fill:#1A2E35;}
	.st133{clip-path:url(#SVGID_76_);fill:#FFB570;}
	.st134{clip-path:url(#SVGID_76_);fill:#1C8BA5;}
	.st135{opacity:0.2;clip-path:url(#SVGID_76_);fill:#FFFFFF;}
	.st136{opacity:0.2;clip-path:url(#SVGID_76_);}
	.st137{clip-path:url(#SVGID_78_);fill:#903C38;}
	.st138{clip-path:url(#SVGID_78_);fill:#1C8BA5;}
	.st139{opacity:0.5;clip-path:url(#SVGID_78_);}
	.st140{opacity:0.2;clip-path:url(#SVGID_78_);}
	.st141{clip-path:url(#SVGID_78_);fill:#1A2E35;}
	.st142{clip-path:url(#SVGID_80_);fill:#FF8B7B;}
	.st143{clip-path:url(#SVGID_80_);fill:#1A2E35;}
	.st144{opacity:0.2;clip-path:url(#SVGID_80_);}
	.st145{clip-path:url(#SVGID_80_);fill:#1C8BA5;}
</style>
<path class="st0" d="M245.2,140.8c4.7-9.8,5.9-21.1,3.7-31.7c-2.6-12.4-10.6-22-7.8-35.3c1.7-8.1,2.1-15.6,3-23.6
	c1.8-16.4-9.2-30.9-22.8-38.7c-11.1-6.3-24-8.7-36.7-8.6c-11.4,0.2-22.9,2.2-34,5c-10.7,2.7-21.1,6.2-32.3,5.1
	c-9.3-0.9-17.7-4.8-26.4-7.7C71.1-1.7,46-2.7,27,7.9C14.9,14.7,6.4,25.8,2.6,37.7c-3,9.5-3.4,18.4-1.1,28.1c2.3,10,6.2,20,5,30.3
	c-0.8,7.2-4.3,14.2-3.6,21.4c0.4,4.8,2.6,9.3,5.3,13.4c9.7,14.9,26.1,24.9,43.3,30.3c16.2,5.2,33,8.9,49.9,7.7
	c35-2.6,42.1,2.8,77.8,10.2c23.1,4.8,48.9-12.3,62.4-32.1C243,145.1,244.2,143,245.2,140.8z"/>
<g>
	<polygon class="st26" points="129.2,60 123.7,60.6 122.9,55.1 128.4,54.5 	"/>
	<g>
		
			<rect x="73" y="30.1" transform="matrix(0.9945 -0.1045 0.1045 0.9945 -5.7244 11.6272)" class="st44" width="70.2" height="60.6"/>
		
			<rect x="73" y="30.1" transform="matrix(0.9945 -0.1045 0.1045 0.9945 -5.7244 11.6272)" class="st89" width="70.2" height="60.6"/>
		
			<rect x="69.2" y="19" transform="matrix(0.9945 -0.1045 0.1045 0.9945 -2.0075 11.0385)" class="st44" width="70.2" height="11.3"/>
		<path class="st44" d="M79.1,17.9c-0.1-1-1-1.8-2.1-1.7c-1,0.1-1.8,1-1.7,2.1c0.1,0.7,0.7,6.8,0.8,7.4c0.1,1,1,1.8,2.1,1.7
			c1-0.1,1.8-1,1.7-2.1C79.8,24.8,79.1,18.4,79.1,17.9z"/>
		<path class="st44" d="M92.5,16.5c-0.1-1-1-1.8-2.1-1.7c-1,0.1-1.8,1-1.7,2.1c0.1,0.7,0.7,6.8,0.8,7.4c0.1,1,1,1.8,2.1,1.7
			c1-0.1,1.8-1,1.7-2.1C93.2,23.4,92.6,17,92.5,16.5z"/>
		<path class="st44" d="M105.9,15c-0.1-1-1-1.8-2.1-1.7c-1,0.1-1.8,1-1.7,2.1c0.1,0.7,0.7,6.8,0.8,7.4c0.1,1,1,1.8,2.1,1.7
			c1-0.1,1.8-1,1.7-2.1C106.7,22,106,15.6,105.9,15z"/>
		<path class="st44" d="M119.4,47.1c-0.1-1-1-1.8-2.1-1.7c-1,0.1-1.8,1-1.7,2.1c0.1,0.7,0.7,6.8,0.8,7.4c0.1,1,1,1.8,2.1,1.7
			c1-0.1,1.8-1,1.7-2.1C120.1,54.1,119.4,47.7,119.4,47.1z"/>
		<path class="st44" d="M132.8,45.7c-0.1-1-1-1.8-2.1-1.7c-1,0.1-1.8,1-1.7,2.1c0.1,0.7,0.7,6.8,0.8,7.4c0.1,1,1,1.8,2.1,1.7
			c1-0.1,1.8-1,1.7-2.1C133.6,52.6,132.9,46.2,132.8,45.7z"/>
		<path class="st8" d="M79.1,17.9c-0.1-1-1-1.8-2.1-1.7c-1,0.1-1.8,1-1.7,2.1c0.1,0.7,0.7,6.8,0.8,7.4c0.1,1,1,1.8,2.1,1.7
			c1-0.1,1.8-1,1.7-2.1C79.8,24.8,79.1,18.4,79.1,17.9z"/>
		<path class="st8" d="M92.5,16.5c-0.1-1-1-1.8-2.1-1.7c-1,0.1-1.8,1-1.7,2.1c0.1,0.7,0.7,6.8,0.8,7.4c0.1,1,1,1.8,2.1,1.7
			c1-0.1,1.8-1,1.7-2.1C93.2,23.4,92.6,17,92.5,16.5z"/>
		<path class="st8" d="M105.9,15c-0.1-1-1-1.8-2.1-1.7c-1,0.1-1.8,1-1.7,2.1c0.1,0.7,0.7,6.8,0.8,7.4c0.1,1,1,1.8,2.1,1.7
			c1-0.1,1.8-1,1.7-2.1C106.7,22,106,15.6,105.9,15z"/>
		<path class="st8" d="M119.4,13.6c-0.1-1-1-1.8-2.1-1.7c-1,0.1-1.8,1-1.7,2.1c0.1,0.7,0.7,6.8,0.8,7.4c0.1,1,1,1.8,2.1,1.7
			c1-0.1,1.8-1,1.7-2.1C120.1,20.5,119.4,14.2,119.4,13.6z"/>
		<path class="st8" d="M132.8,12.2c-0.1-1-1-1.8-2.1-1.7c-1,0.1-1.8,1-1.7,2.1c0.1,0.7,0.7,6.8,0.8,7.4c0.1,1,1,1.8,2.1,1.7
			c1-0.1,1.8-1,1.7-2.1C133.6,19.1,132.9,12.7,132.8,12.2z"/>
		<polygon class="st44" points="148,85 78.2,92.3 70,34 139.8,26.6 		"/>
		<polygon class="st29" points="148,85 78.2,92.3 70,34 139.8,26.6 		"/>
		<polygon class="st44" points="125.7,42.7 91.2,46.3 89.7,36 124.3,32.4 		"/>
		<polygon class="st89" points="125.7,42.7 91.2,46.3 89.7,36 124.3,32.4 		"/>
		<polygon class="st8" points="87.2,60.2 78,61.1 76.7,51.9 85.9,51 		"/>
		<polygon class="st8" points="100.3,58.8 91.1,59.8 89.8,50.6 99,49.6 		"/>
		<polygon class="st44" points="88.9,72.6 79.7,73.5 78.4,64.3 87.7,63.4 		"/>
		<polygon class="st44" points="90.7,85 81.5,86 80.2,76.8 89.4,75.8 		"/>
		<polygon class="st44" points="102,71.2 92.8,72.2 91.5,63 100.8,62 		"/>
		<polygon class="st26" points="102,71.2 92.8,72.2 91.5,63 100.8,62 		"/>
		<polygon class="st44" points="115.1,69.8 105.9,70.8 104.6,61.6 113.8,60.6 		"/>
		<polygon class="st26" points="115.1,69.8 105.9,70.8 104.6,61.6 113.8,60.6 		"/>
		<polygon class="st44" points="128.2,68.4 119,69.4 117.7,60.2 126.9,59.2 		"/>
		<polygon class="st26" points="128.2,68.4 119,69.4 117.7,60.2 126.9,59.2 		"/>
		<polygon class="st44" points="141.3,67.1 132.1,68 130.8,58.8 140,57.9 		"/>
		<polygon class="st44" points="103.8,83.6 94.6,84.6 93.3,75.4 102.5,74.4 		"/>
		<polygon class="st26" points="103.8,83.6 94.6,84.6 93.3,75.4 102.5,74.4 		"/>
		<polygon class="st44" points="116.9,82.2 107.7,83.2 106.4,74 115.6,73 		"/>
		<polygon class="st26" points="116.9,82.2 107.7,83.2 106.4,74 115.6,73 		"/>
		<polygon class="st44" points="130,80.9 120.7,81.8 119.5,72.6 128.7,71.7 		"/>
		<polygon class="st26" points="130,80.9 120.7,81.8 119.5,72.6 128.7,71.7 		"/>
		<polygon class="st69" points="113.4,57.4 104.2,58.4 102.9,49.2 112.1,48.2 		"/>
		<polygon class="st44" points="113.4,57.4 104.2,58.4 102.9,49.2 112.1,48.2 		"/>
		<polygon class="st26" points="113.4,57.4 104.2,58.4 102.9,49.2 112.1,48.2 		"/>
		<polygon class="st69" points="126.5,56 117.3,57 116,47.8 125.2,46.8 		"/>
		<polygon class="st44" points="126.5,56 117.3,57 116,47.8 125.2,46.8 		"/>
		<polygon class="st26" points="126.5,89.5 117.3,90.5 116,81.3 125.2,80.3 		"/>
		<polygon class="st69" points="139.6,88.2 130.4,89.1 129.1,79.9 138.3,79 		"/>
		<polygon class="st44" points="139.6,88.2 130.4,89.1 129.1,79.9 138.3,79 		"/>
		<polygon class="st26" points="139.6,54.7 130.4,55.6 129.1,46.4 138.3,45.5 		"/>
		<polygon class="st8" points="143.1,79.5 133.8,80.4 132.6,71.2 141.8,70.3 		"/>
		<path class="st44" d="M167.3,27.2c0.2,0.9-0.3,1.8-1.2,2c-0.9,0.2-1.8-0.3-2-1.2c-0.1-0.2-0.3-1.1-0.5-2.1l-8.6,2.1
			c0.3,1.1,0.5,1.9,0.5,2.1c0.2,0.9-0.3,1.8-1.2,2c-0.9,0.2-1.8-0.3-2-1.2c-0.1-0.2-0.3-1.1-0.5-2.1l-8.6,2.1
			c0.3,1.1,0.5,1.9,0.5,2.1c0.2,0.9-0.3,1.8-1.2,2c-0.9,0.2-1.8-0.3-2-1.2c-0.1-0.2-0.3-1.1-0.5-2.1l-8.6,2.1
			c0.3,1.1,0.5,1.9,0.5,2.1c0.2,0.9-0.3,1.8-1.2,2c-0.9,0.2-1.8-0.3-2-1.2c-0.1-0.2-0.3-1.1-0.5-2.1l-8.6,2.1
			c0.3,1.1,0.5,1.9,0.5,2.1c0.2,0.9-0.3,1.8-1.2,2c-0.9,0.2-1.8-0.3-2-1.2c-0.1-0.2-0.3-1.1-0.5-2.1l-5.4,1.3l13.5,56l61.4-14.8
			l-13.5-56l-5.4,1.3C167,26.1,167.3,27,167.3,27.2z"/>
		<path class="st29" d="M167.3,27.2c0.2,0.9-0.3,1.8-1.2,2c-0.9,0.2-1.8-0.3-2-1.2c-0.1-0.2-0.3-1.1-0.5-2.1l-8.6,2.1
			c0.3,1.1,0.5,1.9,0.5,2.1c0.2,0.9-0.3,1.8-1.2,2c-0.9,0.2-1.8-0.3-2-1.2c-0.1-0.2-0.3-1.1-0.5-2.1l-8.6,2.1
			c0.3,1.1,0.5,1.9,0.5,2.1c0.2,0.9-0.3,1.8-1.2,2c-0.9,0.2-1.8-0.3-2-1.2c-0.1-0.2-0.3-1.1-0.5-2.1l-8.6,2.1
			c0.3,1.1,0.5,1.9,0.5,2.1c0.2,0.9-0.3,1.8-1.2,2c-0.9,0.2-1.8-0.3-2-1.2c-0.1-0.2-0.3-1.1-0.5-2.1l-8.6,2.1
			c0.3,1.1,0.5,1.9,0.5,2.1c0.2,0.9-0.3,1.8-1.2,2c-0.9,0.2-1.8-0.3-2-1.2c-0.1-0.2-0.3-1.1-0.5-2.1l-5.4,1.3l13.5,56l61.4-14.8
			l-13.5-56l-5.4,1.3C167,26.1,167.3,27,167.3,27.2z"/>
		
			<rect x="130.2" y="38.8" transform="matrix(0.9723 -0.2338 0.2338 0.9723 -6.1097 35.3111)" class="st44" width="31.3" height="9.3"/>
		
			<rect x="130.2" y="38.8" transform="matrix(0.9723 -0.2338 0.2338 0.9723 -6.1097 35.3111)" class="st89" width="31.3" height="9.3"/>
		
			<rect x="120.2" y="57.3" transform="matrix(0.9723 -0.2338 0.2338 0.9723 -10.925 30.7947)" class="st8" width="8.4" height="8.4"/>
		
			<rect x="131.8" y="54.5" transform="matrix(0.9723 -0.2338 0.2338 0.9723 -9.9574 33.4112)" class="st44" width="8.4" height="8.4"/>
		
			<rect x="143.3" y="51.8" transform="matrix(0.9723 -0.2338 0.2338 0.9723 -8.99 36.0286)" class="st44" width="8.4" height="8.4"/>
		
			<rect x="154.8" y="49" transform="matrix(0.9723 -0.2338 0.2338 0.9723 -8.0226 38.6457)" class="st44" width="8.4" height="8.4"/>
		
			<rect x="166.3" y="46.2" transform="matrix(0.9723 -0.2338 0.2338 0.9723 -7.0553 41.2636)" class="st44" width="8.4" height="8.4"/>
		
			<rect x="122.9" y="68.3" transform="matrix(0.9723 -0.2338 0.2338 0.9723 -13.4138 31.7145)" class="st44" width="8.4" height="8.4"/>
		
			<rect x="134.4" y="65.5" transform="matrix(0.9723 -0.2338 0.2338 0.9723 -12.4461 34.331)" class="st44" width="8.4" height="8.4"/>
		
			<rect x="145.9" y="62.7" transform="matrix(0.9723 -0.2338 0.2338 0.9723 -11.4791 36.9501)" class="st44" width="8.4" height="8.4"/>
		
			<rect x="157.4" y="59.9" transform="matrix(0.9723 -0.2338 0.2338 0.9723 -10.5113 39.5655)" class="st44" width="8.4" height="8.4"/>
		<rect x="169" y="57.2" transform="matrix(0.9723 -0.2338 0.2338 0.9723 -9.544 42.1834)" class="st44" width="8.4" height="8.4"/>
		
			<rect x="125.5" y="79.2" transform="matrix(0.9723 -0.2338 0.2338 0.9723 -15.9021 32.6329)" class="st44" width="8.4" height="8.4"/>
		
			<rect x="137" y="76.4" transform="matrix(0.9723 -0.2338 0.2338 0.9723 -14.9349 35.2507)" class="st44" width="8.4" height="8.4"/>
		
			<rect x="148.5" y="73.7" transform="matrix(0.9723 -0.2338 0.2338 0.9723 -13.9678 37.8695)" class="st44" width="8.4" height="8.4"/>
		
			<rect x="131.8" y="54.5" transform="matrix(0.9723 -0.2338 0.2338 0.9723 -9.9574 33.4112)" class="st26" width="8.4" height="8.4"/>
		
			<rect x="143.3" y="51.8" transform="matrix(0.9723 -0.2338 0.2338 0.9723 -8.99 36.0286)" class="st26" width="8.4" height="8.4"/>
		
			<rect x="154.8" y="49" transform="matrix(0.9723 -0.2338 0.2338 0.9723 -8.0226 38.6457)" class="st26" width="8.4" height="8.4"/>
		
			<rect x="166.3" y="46.2" transform="matrix(0.9723 -0.2338 0.2338 0.9723 -7.0553 41.2636)" class="st26" width="8.4" height="8.4"/>
		
			<rect x="134.4" y="65.5" transform="matrix(0.9723 -0.2338 0.2338 0.9723 -12.4461 34.331)" class="st26" width="8.4" height="8.4"/>
		
			<rect x="145.9" y="62.7" transform="matrix(0.9723 -0.2338 0.2338 0.9723 -11.4791 36.9501)" class="st26" width="8.4" height="8.4"/>
		
			<rect x="157.4" y="59.9" transform="matrix(0.9723 -0.2338 0.2338 0.9723 -10.5113 39.5655)" class="st26" width="8.4" height="8.4"/>
		<rect x="169" y="57.2" transform="matrix(0.9723 -0.2338 0.2338 0.9723 -9.544 42.1834)" class="st26" width="8.4" height="8.4"/>
		
			<rect x="137" y="76.4" transform="matrix(0.9723 -0.2338 0.2338 0.9723 -14.9349 35.2507)" class="st26" width="8.4" height="8.4"/>
		
			<rect x="148.5" y="73.7" transform="matrix(0.9723 -0.2338 0.2338 0.9723 -13.9678 37.8695)" class="st26" width="8.4" height="8.4"/>
		
			<rect x="160.1" y="70.9" transform="matrix(0.9723 -0.2338 0.2338 0.9723 -13.0002 40.4857)" class="st8" width="8.4" height="8.4"/>
		
			<rect x="171.6" y="68.1" transform="matrix(0.9723 -0.2338 0.2338 0.9723 -12.0328 43.1032)" class="st8" width="8.4" height="8.4"/>
		<polygon class="st44" points="110.8,38.6 122.7,96.7 185.7,79.8 124.2,94.5 		"/>
		<polygon class="st90" points="110.8,38.6 122.7,96.7 185.7,79.8 124.2,94.5 		"/>
		<path class="st44" d="M167,4.7c0.5,0.8,0.2,1.8-0.6,2.3c-0.8,0.5-1.8,0.2-2.3-0.6c-0.1-0.2-0.6-0.9-1.1-1.9L155.4,9
			c0.5,0.9,1,1.7,1.1,1.9c0.5,0.8,0.2,1.8-0.6,2.3c-0.8,0.5-1.8,0.2-2.3-0.6c-0.1-0.2-0.6-0.9-1.1-1.9l-7.6,4.4
			c0.5,0.9,1,1.7,1.1,1.9c0.5,0.8,0.2,1.8-0.6,2.3c-0.8,0.5-1.8,0.2-2.3-0.6c-0.1-0.2-0.6-0.9-1.1-1.9l-7.6,4.4
			c0.5,0.9,1,1.7,1.1,1.9c0.5,0.8,0.2,1.8-0.6,2.3c-0.8,0.5-1.8,0.2-2.3-0.6c-0.1-0.2-0.6-0.9-1.1-1.9l-7.6,4.4
			c0.5,0.9,1,1.7,1.1,1.9c0.5,0.8,0.2,1.8-0.6,2.3c-0.8,0.5-1.8,0.2-2.3-0.6c-0.1-0.2-0.6-0.9-1.1-1.9l-4.8,2.8l29.1,49.7l54.5-32
			L170.7,0l-4.8,2.8C166.4,3.8,166.9,4.5,167,4.7z"/>
		<path class="st29" d="M167,4.7c0.5,0.8,0.2,1.8-0.6,2.3c-0.8,0.5-1.8,0.2-2.3-0.6c-0.1-0.2-0.6-0.9-1.1-1.9L155.4,9
			c0.5,0.9,1,1.7,1.1,1.9c0.5,0.8,0.2,1.8-0.6,2.3c-0.8,0.5-1.8,0.2-2.3-0.6c-0.1-0.2-0.6-0.9-1.1-1.9l-7.6,4.4
			c0.5,0.9,1,1.7,1.1,1.9c0.5,0.8,0.2,1.8-0.6,2.3c-0.8,0.5-1.8,0.2-2.3-0.6c-0.1-0.2-0.6-0.9-1.1-1.9l-7.6,4.4
			c0.5,0.9,1,1.7,1.1,1.9c0.5,0.8,0.2,1.8-0.6,2.3c-0.8,0.5-1.8,0.2-2.3-0.6c-0.1-0.2-0.6-0.9-1.1-1.9l-7.6,4.4
			c0.5,0.9,1,1.7,1.1,1.9c0.5,0.8,0.2,1.8-0.6,2.3c-0.8,0.5-1.8,0.2-2.3-0.6c-0.1-0.2-0.6-0.9-1.1-1.9l-4.8,2.8l29.1,49.7l54.5-32
			L170.7,0l-4.8,2.8C166.4,3.8,166.9,4.5,167,4.7z"/>
		
			<rect x="135.5" y="21.8" transform="matrix(0.8626 -0.506 0.506 0.8626 7.3995 80.1274)" class="st44" width="31.3" height="9.3"/>
		
			<rect x="135.5" y="21.8" transform="matrix(0.8626 -0.506 0.506 0.8626 7.3995 80.1274)" class="st89" width="31.3" height="9.3"/>
		<rect x="131.7" y="45.8" transform="matrix(0.8626 -0.506 0.506 0.8626 -6.5932 75.6186)" class="st8" width="8.4" height="8.4"/>
		<rect x="141.9" y="39.8" transform="matrix(0.8626 -0.506 0.506 0.8626 -2.1541 79.9667)" class="st8" width="8.4" height="8.4"/>
		<rect x="152.2" y="33.8" transform="matrix(0.8626 -0.506 0.506 0.8626 2.2846 84.3134)" class="st44" width="8.4" height="8.4"/>
		<rect x="162.4" y="27.8" transform="matrix(0.8626 -0.506 0.506 0.8626 6.7236 88.6615)" class="st44" width="8.4" height="8.4"/>
		
			<rect x="172.6" y="21.8" transform="matrix(0.8625 -0.506 0.506 0.8625 11.1635 93.0118)" class="st44" width="8.4" height="8.4"/>
		
			<rect x="137.4" y="55.5" transform="matrix(0.8625 -0.506 0.506 0.8625 -10.7274 79.8402)" class="st44" width="8.4" height="8.4"/>
		
			<rect x="147.6" y="49.5" transform="matrix(0.8625 -0.506 0.506 0.8625 -6.2882 84.1883)" class="st44" width="8.4" height="8.4"/>
		<rect x="157.9" y="43.5" transform="matrix(0.8625 -0.506 0.506 0.8625 -1.849 88.5364)" class="st44" width="8.4" height="8.4"/>
		<rect x="168.1" y="37.5" transform="matrix(0.8626 -0.506 0.506 0.8626 2.5897 92.883)" class="st44" width="8.4" height="8.4"/>
		<rect x="178.3" y="31.5" transform="matrix(0.8626 -0.506 0.506 0.8626 7.0284 97.2302)" class="st44" width="8.4" height="8.4"/>
		
			<rect x="143.1" y="65.2" transform="matrix(0.8626 -0.506 0.506 0.8626 -14.8617 84.0602)" class="st44" width="8.4" height="8.4"/>
		
			<rect x="153.3" y="59.2" transform="matrix(0.8626 -0.506 0.506 0.8626 -10.4226 88.4083)" class="st44" width="8.4" height="8.4"/>
		
			<rect x="163.6" y="53.2" transform="matrix(0.8626 -0.506 0.506 0.8626 -5.9835 92.7564)" class="st44" width="8.4" height="8.4"/>
		<rect x="152.2" y="33.8" transform="matrix(0.8626 -0.506 0.506 0.8626 2.2846 84.3134)" class="st26" width="8.4" height="8.4"/>
		<rect x="162.4" y="27.8" transform="matrix(0.8626 -0.506 0.506 0.8626 6.7236 88.6615)" class="st26" width="8.4" height="8.4"/>
		
			<rect x="172.6" y="21.8" transform="matrix(0.8625 -0.506 0.506 0.8625 11.1635 93.0118)" class="st26" width="8.4" height="8.4"/>
		
			<rect x="147.6" y="49.5" transform="matrix(0.8625 -0.506 0.506 0.8625 -6.2882 84.1883)" class="st26" width="8.4" height="8.4"/>
		<rect x="157.9" y="43.5" transform="matrix(0.8625 -0.506 0.506 0.8625 -1.849 88.5364)" class="st26" width="8.4" height="8.4"/>
		<rect x="168.1" y="37.5" transform="matrix(0.8626 -0.506 0.506 0.8626 2.5897 92.883)" class="st26" width="8.4" height="8.4"/>
		<rect x="178.3" y="31.5" transform="matrix(0.8626 -0.506 0.506 0.8626 7.0284 97.2302)" class="st26" width="8.4" height="8.4"/>
		
			<rect x="153.3" y="59.2" transform="matrix(0.8626 -0.506 0.506 0.8626 -10.4226 88.4083)" class="st26" width="8.4" height="8.4"/>
		
			<rect x="163.6" y="53.2" transform="matrix(0.8626 -0.506 0.506 0.8626 -5.9835 92.7564)" class="st26" width="8.4" height="8.4"/>
		<rect x="173.8" y="47.2" transform="matrix(0.8626 -0.506 0.506 0.8626 -1.5444 97.1044)" class="st8" width="8.4" height="8.4"/>
		<rect x="184" y="41.2" transform="matrix(0.8626 -0.506 0.506 0.8626 2.8942 101.4509)" class="st8" width="8.4" height="8.4"/>
		<polygon class="st44" points="116.1,32 144.4,84.2 199.8,49.7 145.3,81.7 		"/>
		<polygon class="st90" points="116.1,32 144.4,84.2 199.8,49.7 145.3,81.7 		"/>
	</g>
	<path class="st44" d="M91.3,136.7H67.6c-0.9,0-1.6-0.7-1.6-1.6c0-0.9,0.7-1.6,1.6-1.6h23.8c0.9,0,1.6,0.7,1.6,1.6
		C92.9,136,92.2,136.7,91.3,136.7z"/>
	<path class="st29" d="M91.3,136.7H67.6c-0.9,0-1.6-0.7-1.6-1.6c0-0.9,0.7-1.6,1.6-1.6h23.8c0.9,0,1.6,0.7,1.6,1.6
		C92.9,136,92.2,136.7,91.3,136.7z"/>
	<polygon class="st91" points="112.8,176.8 116.3,175.2 114.6,166.1 111.1,167.8 	"/>
	<path class="st32" d="M116.1,174.2l-3.9,1.8c-0.1,0.1-0.2,0.2-0.1,0.4l1.2,3.2c0.1,0.3,0.6,0.5,0.9,0.3c1.4-0.7,2-1,3.7-1.8
		c1.1-0.5,5.6-2.5,7.1-3.1c1.4-0.7,0.8-2.1,0.1-2c-3.1,0.7-6.9,1.5-8.2,1.1C116.6,174.1,116.3,174.1,116.1,174.2z"/>
	<polygon class="st7" points="111.1,167.8 114.6,166.1 115.5,170.8 111.9,172.4 	"/>
	<path class="st32" d="M88.1,118.6c0,0,30,2.1,28.8,13.1c-1.7,15.8-0.3,35.8-0.3,35.8l-6.5,2.7c0,0-5.7-22.3-4.2-34.6
		c-7.5-3.1-27.8-0.1-30.2-6.6c-2-5.3-0.9-10.4-0.9-10.4H88.1z"/>
	<path class="st24" d="M102.7,127.8c0,0-0.7,3.3-1.2,6.8c0,0,0,0,0.1,0c0.3,0,0.5,0.1,0.8,0.1c0.1,0,0.3,0,0.4,0.1
		c0.2,0,0.3,0.1,0.4,0.1c0.6,0.1,1.2,0.3,1.8,0.5c0.1,0,0.3,0.1,0.4,0.1c0.2,0.1,0.3,0.1,0.5,0.2c-0.2,1.4-0.3,2.9-0.3,4.6
		C110.1,133.5,106.2,127.8,102.7,127.8z"/>
	<polygon class="st6" points="109.4,172.4 117.9,168.5 117.3,165.4 108.6,168.6 	"/>
	<path class="st91" d="M89.5,87.4l3.6,10.6c0.6,1.8,1.2,3.5,1.9,5.2c0.6,1.7,1.3,3.5,2,5.1l-0.2-0.3c-0.1-0.2-0.3-0.4-0.7-0.6
		c-0.4-0.2-0.8-0.2-1-0.2c-0.5,0.1-0.5,0.2-0.4,0.1c0.1,0,0.5-0.3,0.8-0.6c0.7-0.6,1.4-1.3,2.1-2.1c0.7-0.8,1.4-1.5,2.1-2.3l2-2.4
		l2.5,1.5c-0.4,1-0.9,2-1.4,3c-0.5,1-1.1,1.9-1.7,2.9c-0.6,1-1.3,1.9-2.1,2.9c-0.4,0.5-0.9,1-1.7,1.5c-0.4,0.2-0.9,0.6-1.9,0.7
		c-0.5,0.1-1.2,0-1.8-0.4c-0.6-0.3-1-0.8-1.3-1.2l-0.1-0.1l-0.1-0.2c-0.9-1.8-1.6-3.5-2.4-5.3c-0.7-1.8-1.4-3.5-2.1-5.3
		c-0.7-1.8-1.3-3.5-2-5.3c-0.6-1.8-1.2-3.6-1.8-5.4L89.5,87.4z"/>
	<linearGradient id="SVGID_1_" gradientUnits="userSpaceOnUse" x1="81.7362" y1="93.3537" x2="95.3763" y2="93.3537">
		<stop  offset="0" style="stop-color:#FF9F55"/>
		<stop  offset="1" style="stop-color:#FFD255"/>
	</linearGradient>
	<path class="st13" d="M90.2,87.9c3.1,3.6,5.2,8.6,5.2,8.6l-8.2,4.9c-2.4-2.9-5.3-10.5-5.4-13.1C81.6,84.4,86.8,84,90.2,87.9z"/>
	<path class="st24" d="M87.3,91.6c1.8,1.5,3.1,4.6,3.6,7.7l-3.7,2.2c-1.2-1.4-2.5-4-3.5-6.6C84.5,92.4,85.7,90.3,87.3,91.6z"/>
	<polygon class="st91" points="88.4,176.5 92.3,176.5 94.1,167.6 90.2,167.6 	"/>
	<path class="st32" d="M92.4,175.6h-4.3c-0.2,0-0.3,0.1-0.3,0.3l-0.2,3.4c0,0.4,0.3,0.7,0.7,0.7c1.5,0,2.2-0.1,4.1-0.1
		c1.2,0,5.1,0.1,6.8,0.1c1.6,0,1.6-1.6,0.9-1.7c-3.1-0.6-5.9-1.5-7-2.4C92.9,175.6,92.6,175.6,92.4,175.6z"/>
	<polygon class="st7" points="90.2,167.6 94.1,167.6 93.1,172.2 89.3,172.2 	"/>
	<path class="st32" d="M80.5,118.6c0,0,25.4,2.1,24.8,13.2c-0.7,12.1-10.5,39.3-10.5,39.3h-7.1c0,0,3.2-24.6,4.7-36.9
		c-7.2,0-22,1.3-24.4-5.1c-2-5.3-0.9-10.4-0.9-10.4H80.5z"/>
	<polygon class="st6" points="87,171.1 96.3,171.1 96.8,167.4 87.1,167.8 	"/>
	<path class="st91" d="M101.1,101.2l1.2-4.3l3.9,2.5c0,0-2.1,3.7-3.4,3.4L101.1,101.2z"/>
	<polygon class="st91" points="105.9,95.2 107.9,97.5 106.2,99.5 102.3,96.9 	"/>
	<linearGradient id="SVGID_2_" gradientUnits="userSpaceOnUse" x1="65.0374" y1="101.55" x2="89.3012" y2="101.55">
		<stop  offset="0" style="stop-color:#FF9F55"/>
		<stop  offset="1" style="stop-color:#FFD255"/>
	</linearGradient>
	<path class="st14" d="M88,118.8H67.4c-0.1-1.8,0.3-7.8,0-15.5c-0.2-5.1-0.8-11-2-16.8c-0.1-0.4-0.2-0.8-0.3-1.2c0,0,1-0.2,2.5-0.4
		c1.2-0.2,2.8-0.4,4.3-0.4c2.6-0.1,6.4-0.2,8.8,0c1.3,0.1,2.7,0.3,3.7,0.6c1.3,0.3,2.1,0.5,2.1,0.5S91.6,97.1,88,118.8z"/>
	<path class="st24" d="M67.4,103.4c-0.2-5.1-0.8-11-2-16.8c1.4-0.1,3.7,0,4.1,2.2C69.9,91.2,69.3,96.8,67.4,103.4z"/>
	<path class="st91" d="M69,90.4c-0.5,1.3-0.9,2.7-1.4,4c-0.4,1.4-0.9,2.7-1.2,4.1c-0.8,2.7-1.4,5.5-1.7,8.1l0,0.5l0,0.2
		c0,0.1,0,0.2,0,0.1c0-0.1-0.1-0.4-0.3-0.8c-0.3-0.4-0.7-0.6-0.9-0.6c-0.2-0.1-0.3,0-0.3,0c0,0,0.1,0,0.2,0c0.2,0,0.4,0,0.7-0.1
		c1.1-0.3,2.5-0.8,3.8-1.3c2.6-1.1,5.2-2.4,7.8-3.7l1.6,2.4c-2.3,1.9-4.8,3.7-7.4,5.2c-1.3,0.8-2.7,1.5-4.4,2.1
		c-0.4,0.1-0.9,0.3-1.4,0.4c-0.3,0.1-0.6,0.1-0.9,0.1c-0.4,0-0.8,0-1.3-0.2c-0.5-0.2-1.3-0.6-1.8-1.3c-0.5-0.7-0.6-1.4-0.7-1.9
		c0-0.3,0-0.3,0-0.5l0-0.3l0-0.6c0-1.6,0.2-3.2,0.5-4.8c0.2-1.5,0.6-3,0.9-4.5c0.4-1.5,0.8-2.9,1.2-4.4c0.5-1.5,0.9-2.9,1.5-4.3
		L69,90.4z"/>
	<g>
		<path class="st18" d="M39,137.1c3,2.7,1.7,5.4-0.5,10.5c-2.2,5-2.6,23.7-2.6,23.7l1.8-0.3c0,0-0.3-19.1,2.2-24.3
			c2.5-5.2,3.5-7.8,5.7-6.1C47.8,142.3,39,137.1,39,137.1z"/>
		<path class="st19" d="M37.4,133.6c0.4-1.6,2.5-3.3,5.4-4.8c-0.4,2.4-1.8,6.3-0.4,7c1.9,1.1,0.2-4.3,0.9-7.3
			c2.7-1.3,5.9-2.4,8.9-2.9c0,0,0,0,0,0c-1.7,4.3-3.9,5.9-3,6.6c0.7,0.5,2.9-4.4,5.8-7c2.2-0.1,4.1,0.2,5.2,1.1
			c1.7,1.3,2.8,2.5,1.1,6.6c-1,0.7-2.2,1.2-3.7,1.3c-3.9,0.4-5.7,0.5-3,1.8c1.3,0.6,3.6,0,5.4-0.4c-0.6,1.1-1.3,2.3-2.2,3.7
			c-0.6,0.9-1.2,1.6-1.8,2.3c-1.2,0.2-2.3,0.2-2.9,0c-1.8-0.8-6.5-3.2-7.6-2.2c-1.1,1,8.6,1.7,7.9,4.2c-4.7,2.7-10.1,1.4-11.1-1.1
			C41,139.2,36.3,138.4,37.4,133.6z"/>
		<path class="st18" d="M47.1,152c-5.2-3.9-10.5-0.3-13.2,3.9c-2.7,4.1-0.8,13.4-0.8,13.4s1,0,1-0.4c0-0.4-2.8-11,3.9-15.8
			c4.2-3,7.2-1.6,7.6-0.1c0.4,1.4-1.7,4-1.7,4L47.1,152z"/>
		<path class="st18" d="M35.2,144c5.2,0,6.8,8,5.4,12.7c-1.4,4.7-3.4,13.3-3.4,13.3l-1.3-1.3c0,0,4.9-12.1,3.7-17.6
			c-1.2-5.4-4-6.3-4.5-6.3C34.7,144.8,35.2,144,35.2,144z"/>
		<path class="st18" d="M39.6,156.7c0.4-0.5,0.8-0.9,1.4-1.1c-0.1,0.4-0.2,0.8-0.3,1.1c-0.6,2.1-1.4,5.1-2,7.7
			c-0.1-0.3-0.1-0.8-0.3-1.6c0-0.2-0.1-0.4-0.1-0.6C38.8,160.4,39.3,158.5,39.6,156.7z"/>
		<path class="st19" d="M41,156.7c9.8-4.1,4.6-9.8,13.3-6.1c0.6,0.3,1.4,0.9,2.1,1.8c-0.8,0.2-1.7,0.4-2.7,0.2
			c-2.6-0.4-1.7,1.7,2.6,2.2c0.8,0.1,1.5,0.2,2,0.4c2,3.9,2.9,9-1.4,10.8c-0.8,0.4-1.9,0.6-3.1,0.6c-1.3-1.1,0.3-7.2-1.7-6.3
			c-2,0.8,0.6,5.2,0.3,6.3c-1.9,0-4.1-0.4-6.1-0.9c-0.8-0.5-1.4-1.1-1.6-1.9c-0.6-2.7,3.6-4.4,3.7-6.7c0.1-2.1-1.6,4.7-6,5.7
			C38.3,161.2,36.4,158.7,41,156.7z"/>
		<path class="st19" d="M34,149.4c1-2.2-1.7-2.7-1.6-1c0.1,1.5,0.1,5.1-1.4,6.1c-2.6-0.3-6.2-1.3-8.9-3c0-0.2,0-0.4,0.1-0.7
			c1.2-2.3,8.7-4.3,6.3-5c-1.9-0.6-5.1,3-7.7,4.9c-1.6-1.2-2.6-2.6-2.6-4.2c0-2.1,2.6-4.6,6-5.7c1.5,0.2,2.9,1,5.1,2.2
			c3.3,1.8,2.5-1.1-0.6-2.9c2.7,0.1,5.3,1.3,7.3,4c0,0-0.2,1.2,1,3c3.3,4.9-0.5,7.7-5.1,7.6C32.2,153.3,33.3,150.9,34,149.4z"/>
		<path class="st18" d="M46.8,151.7c2.5,2,5.3,4.2,8.8,5.8c3.4,1.6,2.8,6.6,2.8,6.6s0.5-4.4-2.4-5.9c-2.9-1.5-4.8-3.3-7-3.6
			c-2.2-0.3-3.4-0.7-3.4-0.7s0.7-1.4,0.3-1.9C45.5,151.6,46.8,151.7,46.8,151.7z"/>
		<path class="st18" d="M59.3,128.8c-9.2,2.5-16,8.4-17.3,9.8c-1.3,1.4-1.3,1.8-1.3,1.8l1,1.8l0.5-0.2c0,0-0.7-1.6,1.2-3.6
			c3.4-3.5,7.5-6.2,10.3-7.4C56.5,129.9,59.3,128.8,59.3,128.8z"/>
		<path class="st2" d="M35.5,180L35.5,180c3.5,0,6.3-2.8,6.3-6.3v-6.4H29.2v6.4C29.2,177.2,32,180,35.5,180z"/>
		<rect x="29.2" y="168.8" class="st20" width="12.6" height="0.9"/>
		<rect x="29.2" y="170.4" class="st20" width="12.6" height="0.5"/>
	</g>
	<linearGradient id="SVGID_3_" gradientUnits="userSpaceOnUse" x1="58.9983" y1="93.4193" x2="70.3973" y2="93.4193">
		<stop  offset="0" style="stop-color:#FF9F55"/>
		<stop  offset="1" style="stop-color:#FFD255"/>
	</linearGradient>
	<path class="st15" d="M65,85.3c3.8-1.2,6.2,1.8,5.1,7c-1,5.2-3.6,9.5-3.6,9.5L59,98.2C59.7,93.1,61.2,86.5,65,85.3z"/>
	<path class="st91" d="M72.1,74.6l2.3,1.9l3.2,2.7c-0.1,0.4-0.2,0.9-0.2,1.3c-0.2,1.7,0.3,3.3,2.8,3.9c0,0,2.5,2.3-2.5,2.4
		c-5,0.1-6.2-2.4-6.2-2.4C73.5,82.6,72.7,77.4,72.1,74.6z"/>
	<path class="st7" d="M77.6,79.2c-0.1,0.4-0.2,0.9-0.2,1.3c-1.2-0.2-2.8-1.5-2.9-2.7c-0.1-0.5-0.1-0.9,0-1.2L77.6,79.2z"/>
	<path class="st32" d="M81.4,71.7c0.9-2.1,0.3-5.1-1.2-6.2c-1.6-1.1-3.6-0.1-3.7,1.9C76.4,69.9,80.3,74,81.4,71.7z"/>
	<path class="st91" d="M71.1,70.5c0.8,3.7,1.1,6,3.3,7.7c3.3,2.6,7.7,0.3,8.1-3.6c0.3-3.5-1.1-9-5-10.1
		C73.6,63.5,70.3,66.8,71.1,70.5z"/>
	<path class="st32" d="M72.7,73.4c1.2-1.9,1-5-0.4-6.3c-1.4-1.3-3.6-0.6-3.9,1.4C68.1,71,71.4,75.7,72.7,73.4z"/>
	<circle class="st32" cx="72.5" cy="67.3" r="1.7"/>
	<path class="st32" d="M72.7,66.6c-0.3,0.8-1.1,1.3-1.9,1s-1.3-1.1-1-1.9s1.1-1.3,1.9-1S73,65.7,72.7,66.6z"/>
	<path class="st32" d="M75.3,66.3c-0.3,0.8-1.1,1.3-2,1c-0.8-0.3-1.3-1.1-1-2c0.3-0.8,1.1-1.3,2-1S75.6,65.5,75.3,66.3z"/>
	<path class="st32" d="M72.2,64.6c-0.3,1.1-1.5,1.7-2.6,1.3c-1.1-0.3-1.7-1.5-1.3-2.6s1.5-1.7,2.6-1.3C72,62.4,72.6,63.5,72.2,64.6z
		"/>
	<path class="st32" d="M75.3,63.5c-0.3,1.1-1.5,1.7-2.6,1.4c-1.1-0.3-1.7-1.5-1.4-2.6c0.3-1.1,1.5-1.7,2.6-1.4
		C75,61.2,75.6,62.4,75.3,63.5z"/>
	<path class="st32" d="M78,62.8c-0.3,1.1-1.5,1.7-2.6,1.4c-1.1-0.3-1.7-1.5-1.4-2.6c0.3-1.1,1.5-1.7,2.6-1.4
		C77.7,60.5,78.3,61.7,78,62.8z"/>
	<path class="st32" d="M81.1,62.8c-0.3,1.1-1.5,1.7-2.6,1.4c-1.1-0.3-1.7-1.5-1.4-2.6c0.3-1.1,1.5-1.7,2.6-1.4
		C80.9,60.5,81.5,61.7,81.1,62.8z"/>
	<path class="st32" d="M70.7,66.8c-0.3,1-1.4,1.5-2.4,1.2c-1-0.3-1.5-1.4-1.2-2.4c0.3-1,1.4-1.5,2.4-1.2
		C70.5,64.7,71.1,65.8,70.7,66.8z"/>
	<path class="st32" d="M77.1,65.1c-0.3,0.9-1.2,1.4-2.1,1.1c-0.9-0.3-1.4-1.2-1.1-2.1c0.3-0.9,1.2-1.4,2.1-1.1
		C76.9,63.2,77.4,64.2,77.1,65.1z"/>
	<path class="st32" d="M79.2,64.9c-0.2,0.8-1,1.2-1.8,0.9c-0.8-0.2-1.2-1-0.9-1.8c0.2-0.8,1-1.2,1.8-0.9
		C79,63.3,79.4,64.1,79.2,64.9z"/>
	<path class="st32" d="M82.4,63.8c-0.2,0.8-1,1.2-1.8,0.9c-0.8-0.2-1.2-1-0.9-1.8c0.2-0.8,1-1.2,1.8-0.9
		C82.2,62.2,82.6,63,82.4,63.8z"/>
	<path class="st32" d="M81.1,65c-0.2,0.7-1,1.1-1.7,0.9c-0.7-0.2-1.1-1-0.9-1.7c0.2-0.7,1-1.1,1.7-0.9C80.9,63.5,81.3,64.2,81.1,65z
		"/>
	<path class="st32" d="M83.6,63.1c-0.2,0.6-0.8,0.9-1.4,0.7c-0.6-0.2-0.9-0.8-0.7-1.4c0.2-0.6,0.8-0.9,1.4-0.7
		C83.5,61.9,83.8,62.5,83.6,63.1z"/>
	<path class="st32" d="M84.2,64.2c-0.1,0.4-0.5,0.6-0.8,0.4c-0.4-0.1-0.6-0.5-0.4-0.8c0.1-0.4,0.5-0.6,0.8-0.4
		C84.1,63.4,84.3,63.8,84.2,64.2z"/>
	<path class="st32" d="M73,65c-0.1,0.4-0.5,0.6-0.8,0.4c-0.4-0.1-0.6-0.5-0.4-0.8c0.1-0.4,0.5-0.6,0.8-0.4
		C72.9,64.3,73.1,64.6,73,65z"/>
	<path class="st91" d="M70.5,74c0.6,0.7,1.4,1.2,2.1,1.3c1.1,0.2,1.4-0.8,0.9-1.7c-0.4-0.9-1.5-2-2.5-1.7C70.1,72,69.9,73.2,70.5,74
		z"/>
	<path class="st91" d="M74.9,101.2l1.4-3.3l2.9,3c0,0-1.4,3.2-3,2.4L74.9,101.2z"/>
	<polygon class="st91" points="79.8,95.7 81.4,98.3 79.1,100.9 76.3,97.9 	"/>
	<path class="st44" d="M182.4,136.7h-23.8c-0.9,0-1.6-0.7-1.6-1.6c0-0.9,0.7-1.6,1.6-1.6h23.8c0.9,0,1.6,0.7,1.6,1.6
		C184,136,183.3,136.7,182.4,136.7z"/>
	<path class="st29" d="M182.4,136.7h-23.8c-0.9,0-1.6-0.7-1.6-1.6c0-0.9,0.7-1.6,1.6-1.6h23.8c0.9,0,1.6,0.7,1.6,1.6
		C184,136,183.3,136.7,182.4,136.7z"/>
	<g>
		<path class="st18" d="M221.5,157.1c0,0-3.7-4.3-0.2-7c0,0,2.5-1.5,4.6-1.4c0,0-2.9,4.9-2,5.4c0.9,0.5,2.8-5.7,2.8-5.7
			s5.7-0.6,7.6,0.3c0,0-4.9,4-3.9,4.3s6.3-3.7,6.3-3.7s5.3,0.9,5.1,4.2c-0.3,3.3-2.1,4.3-2.9,4.2c-0.8-0.1-5.5-1.9-5.6-1.2
			c-0.1,0.7,2.7,2.8,4.7,2.9c0,0-3.8,4.2-6.3,3c-2.5-1.2-2.7-3.1-4.3-3.8c-1.6-0.7-2.9-0.7-2.2,0c0.6,0.7,3.5,1.4,4.4,3
			s1.7,2.6-0.9,2.3c-2.6-0.4-6.8-2.3-7-4.4C221.5,157.1,221.5,157.1,221.5,157.1z"/>
		<g>
			<path class="st39" d="M239.2,153.4c0,0-14.5-0.5-17.7,3.6c0,0-0.7,2.1-2.9,4.1l-0.3,0.9c0,0,2.5-2.7,3.4-2.8
				C221.7,159.2,220.3,154.1,239.2,153.4z"/>
			<path class="st39" d="M218.6,161.1c0,0-3.1,2.3-3.3,6.4l0.6,0c0,0,1-4.3,2.8-5.9C220.4,160,218.6,161.1,218.6,161.1z"/>
		</g>
		<path class="st19" d="M208.6,151.7c0,0,5.8-3.3,3.1-7.7c0,0-2.2-2.7-4.5-3.4c0,0,1.3,6.6,0,6.8c-1.2,0.2-0.9-7.5-0.9-7.5
			s-6.2-3-8.6-2.7c0,0,3.8,6.5,2.6,6.3c-1.2-0.2-5.5-6.7-5.5-6.7s-6.3-1.2-7.3,2.6c-1,3.7,0.6,5.6,1.6,5.8c0.9,0.2,6.9,0.1,6.8,0.9
			c-0.2,0.8-4.2,2-6.5,1.3c0,0,2.5,6.2,5.8,5.8s4.3-2.3,6.3-2.5c2-0.2,3.5,0.4,2.5,0.9c-1,0.5-4.4,0.2-6.1,1.6
			c-1.6,1.4-3,2.3,0.1,2.9c3,0.6,8.5,0.2,9.6-2.1C208.6,151.7,208.6,151.7,208.6,151.7z"/>
		<g>
			<path class="st18" d="M190.4,140.5c0,0,16.4,5.3,18.3,11.2c0,0-0.1,2.7,1.6,5.7l0,1.2c0,0-1.7-4-2.7-4.5
				C207.6,154,211.2,148.9,190.4,140.5z"/>
			<path class="st18" d="M210.2,157.4c0,0,2.5,3.8,1.1,8.5l-0.6-0.2c0,0,0.6-5.1-0.7-7.7C208.6,155.4,210.2,157.4,210.2,157.4z"/>
		</g>
		<path class="st19" d="M217.9,147.2c0,0-7.7-4.3-4.1-10.2c0,0,2.9-3.6,6-4.5c0,0-1.6,8.7,0,8.9c1.6,0.2,1.1-9.9,1.1-9.9
			s8.1-3.9,11.3-3.6c0,0-5,8.5-3.4,8.3c1.6-0.2,7.3-8.8,7.3-8.8s8.3-1.6,9.7,3.4c1.3,4.9-0.8,7.4-2,7.7c-1.2,0.3-9.1,0.2-8.9,1.2
			c0.2,1,5.6,2.7,8.5,1.7c0,0-3.3,8.1-7.6,7.7c-4.3-0.4-5.7-3.1-8.3-3.3s-4.6,0.5-3.3,1.2c1.3,0.7,5.9,0.2,8,2.1
			c2.2,1.8,3.9,3-0.1,3.8s-11.2,0.3-12.6-2.8C217.9,147.2,217.9,147.2,217.9,147.2z"/>
		<g>
			<path class="st18" d="M242,132.3c0,0-21.6,7-24,14.8c0,0,0.1,3.5-2,7.5l0,1.5c0,0,2.3-5.2,3.5-6
				C219.4,150.2,214.5,143.5,242,132.3z"/>
			<path class="st18" d="M215.9,154.7c0,0-3.3,5.1-1.4,11.2l0.9-0.2c0,0-0.8-6.8,0.9-10.2C218,152,215.9,154.7,215.9,154.7z"/>
		</g>
		<path class="st2" d="M217.7,179.2c8.3,0,15.1-6.8,15.1-15.1l-30.2,0C202.6,172.5,209.4,179.2,217.7,179.2z"/>
		<path class="st20" d="M221.4,179.1c-0.6,0.1-1.2,0.1-1.9,0.1c-8.3,0-15.1-6.7-15.1-15.1l3.8,0C208.2,171.8,214,178.2,221.4,179.1z
			"/>
		<path class="st2" d="M233,180l-30.6,0l0,0c0-1,0.8-1.9,1.9-1.9l26.9,0C232.2,178.1,233,178.9,233,180L233,180z"/>
		
			<rect x="202.1" y="164.1" transform="matrix(1 -1.614382e-03 1.614382e-03 1 -0.265 0.3515)" class="st20" width="31" height="0.5"/>
	</g>
	<polygon class="st95" points="151.7,176.5 147.8,176.5 145.6,167.6 149.5,167.6 	"/>
	<path class="st32" d="M147.6,175.6h4.3c0.2,0,0.3,0.1,0.3,0.3l0.2,3.4c0,0.4-0.3,0.7-0.7,0.7c-1.5,0-2.2-0.1-4.1-0.1
		c-1.2,0-6.2,0.1-7.8,0.1c-1.6,0-1.6-1.6-0.9-1.7c3.1-0.6,6.9-1.5,8-2.4C147.1,175.6,147.3,175.6,147.6,175.6z"/>
	<polygon class="st7" points="149.5,167.6 145.6,167.6 146.8,172.2 150.6,172.2 	"/>
	<path class="st2" d="M161.9,118.6c0,0-31.4,2.1-30.7,13.2c0.7,12.1,13.9,39.3,13.9,39.3h7.1c0,0-6.4-23.1-7.9-35.4
		c7.5-3.1,27.8-0.1,30.2-6.6c2-5.3,0.9-10.4,0.9-10.4H161.9z"/>
	<path class="st24" d="M144.6,138.3c-0.1-0.6-0.2-1.1-0.2-1.6c-0.1-0.4-0.1-0.7-0.1-1.1c1.2-0.5,2.7-0.8,4.4-1.1
		c-0.5-3.5-1.2-6.8-1.2-6.8c-3.7,0-7.7,6.2-2.3,13.3c-0.1-0.5-0.2-1-0.2-1.4C144.7,139.2,144.6,138.8,144.6,138.3z"/>
	<polygon class="st44" points="152.9,171.1 143.6,171.1 142.8,168 152,167.3 	"/>
	<path class="st95" d="M166,89.3c-0.6,1.6-1.2,3.2-1.9,4.8c-0.6,1.6-1.3,3.2-2,4.7c-1.3,3.2-2.8,6.3-4.3,9.4l-0.2,0.4l-0.2,0.2
		c-1.1,1.1-2.4,2.1-3.8,2.8c-1.3,0.7-2.7,1.3-4.2,1.7c-1.4,0.4-2.8,0.6-4.3,0.7c-0.7,0.1-1.4,0.1-2.1,0.1c-0.7,0-1.4,0-2.2-0.1
		l0.1-2.9c0.5-0.1,1.2-0.2,1.8-0.3c0.6-0.1,1.2-0.3,1.8-0.4c1.2-0.3,2.4-0.7,3.4-1.2c1.1-0.5,2.1-1,3-1.7c0.9-0.6,1.7-1.4,2.4-2.2
		l-0.5,0.7c1.3-3.1,2.5-6.2,3.7-9.4l1.9-4.7l1.9-4.7L166,89.3z"/>
	<path class="st32" d="M159.8,87.9c-3.1,3.6-5.2,8.6-5.2,8.6l8.2,4.9c2.4-2.9,5.3-10.5,5.4-13.1C168.4,84.4,163.2,84,159.8,87.9z"/>
	<path class="st24" d="M162.7,91.6c-1.8,1.5-3.1,4.6-3.6,7.7l3.7,2.2c1.2-1.4,2.5-4,3.5-6.6C165.5,92.4,164.3,90.3,162.7,91.6z"/>
	<polygon class="st95" points="166.9,174.1 163.2,175 159.4,166.7 163.1,165.8 	"/>
	<path class="st32" d="M162.5,174l4.1-1.5c0.1-0.1,0.3,0,0.4,0.1l1.4,3.1c0.1,0.3-0.1,0.7-0.4,0.9c-1.3,0.7-2.1,0.8-3.9,1.3
		c-0.8,0.2-2.9,1.9-5.2,1.9c-0.9,0-1.6,0-2.1,0c-1.2,0-1.4-1.3-0.7-1.5c3.3-0.9,5.2-2.8,6-4C162.1,174.2,162.3,174,162.5,174z"/>
	<polygon class="st7" points="163.2,165.8 159.4,166.7 161.3,171 165.1,170.1 	"/>
	<path class="st2" d="M169.5,118.6c0,0-25.4,2.1-24.8,13.2c0.7,12.1,14.8,38.5,14.8,38.5l6.9-1.6c0,0-7.3-22.2-8.8-34.5
		c7.2,0,22,1.3,24.4-5.1c2-5.3,0.9-10.4,0.9-10.4H169.5z"/>
	<polygon class="st44" points="167.1,168.5 158,170.6 157.1,167.5 166.2,164.9 	"/>
	<path class="st95" d="M141.7,111.1l-4.4-0.9l0.5,4.2c0,0,4.2,0.2,4.5-1.1L141.7,111.1z"/>
	<polygon class="st95" points="134.1,112.6 135.3,115.4 137.9,114.4 137.3,110.2 	"/>
	<path class="st32" d="M162,118.8h20.6c0.1-1.8-0.3-7.8,0-15.5c0.2-5.1,0.8-11,2-16.8c0.1-0.4-0.1-0.7,0-1.1c0,0-0.8-0.3-2.3-0.5
		c-1.2-0.2-2.8-0.4-4.3-0.4c-2.6-0.1-6.4-0.2-8.8,0c-1.3,0.1-2.7,0.3-3.7,0.6c-1.3,0.3-2.1,0.5-2.1,0.5S158.4,97.1,162,118.8z"/>
	<path class="st24" d="M182.6,103.4c0.2-5.1,0.8-11,2-16.8c-1.4-0.1-3.7,0-4.1,2.2C180.1,91.2,180.7,96.8,182.6,103.4z"/>
	<path class="st95" d="M186.4,88.3c0.6,1.5,1.1,2.9,1.6,4.4c0.5,1.5,0.9,3,1.3,4.5c0.4,1.5,0.7,3.1,0.9,4.7c0.1,0.8,0.2,1.6,0.3,2.4
		c0.1,0.8,0.1,1.6,0.1,2.5l0,0.6c0,0.4-0.1,1-0.2,1.4c-0.3,0.8-0.7,1.4-1.1,1.9c-0.8,0.9-1.6,1.4-2.4,1.8c-1.6,0.9-3.1,1.4-4.6,1.9
		c-3,0.9-6.1,1.5-9.2,1.8l-0.6-2.8c1.4-0.5,2.8-1,4.2-1.5c1.4-0.5,2.7-1.1,4-1.7c1.3-0.6,2.6-1.2,3.6-1.9c0.5-0.3,0.9-0.7,1.1-1
		c0.1-0.1,0.1-0.2,0-0.1c0,0,0,0.1,0,0.1c0,0,0,0.1,0,0.1l0,0c0,0,0,0,0,0l0-0.5c-0.1-1.3-0.3-2.7-0.6-4.1c-0.3-1.4-0.6-2.8-1-4.2
		c-0.4-1.4-0.8-2.8-1.3-4.2c-0.4-1.4-0.9-2.8-1.4-4.1L186.4,88.3z"/>
	<path class="st32" d="M184.7,85.4c-3.8-1.2-5.9,1.7-4.8,6.9c1,5.2,3.6,9.5,3.6,9.5l7.6-3.6C190.3,93.1,188.5,86.6,184.7,85.4z"/>
	<path class="st95" d="M178.1,75.6l-2.3,1.9l-3.2,2.7c0.1,0.4,0.2,0.9,0.2,1.3c0.2,1.7-1.2,2.5-3,2.9c0,0-2.5,2.3,2.5,2.4
		c5,0.1,6.2-2.4,6.2-2.4C176.5,82.6,177.4,78.5,178.1,75.6z"/>
	<path class="st44" d="M177.9,84.4c-0.8,0.6-2.8,1.8-5.4,2.4c1,1,1.6,3.4,1.6,3.4s5.4-1.3,5.6-5.7c0,0-0.4-0.2-0.9-0.3
		C178.6,84.1,178.2,84.2,177.9,84.4z"/>
	<path class="st44" d="M170.1,84.5c-0.1,0.6,0,1.7,2.4,2.3c-1.5,0.9-2.1,3.1-2.1,3.1s-3.4-2.9-1.6-5.5c0,0,0.4-0.2,1-0.3
		C170,84.1,170.2,84.3,170.1,84.5z"/>
	<path class="st7" d="M172.5,80.2c0.1,0.4,0.2,0.9,0.2,1.3c2-0.3,3.3-1.5,3.4-2.7c0.1-0.5-0.4-0.9-0.4-1.3L172.5,80.2z"/>
	<path class="st32" d="M169.5,74.3c-1.8-1.4-2.8-4.3-2-6c0.8-1.7,3.1-1.9,4.1-0.2C172.9,70.3,171.6,75.8,169.5,74.3z"/>
	<path class="st95" d="M178.2,70.7c0,3.8,0.2,6.1-1.5,8.2c-2.7,3.2-7.5,2-8.7-1.7c-1.1-3.3-0.9-9.1,2.7-11
		C174.3,64.3,178.2,66.8,178.2,70.7z"/>
	<path class="st32" d="M176.9,73.7c-1.4-1.8-1.5-4.9-0.3-6.3c1.3-1.4,3.5-0.9,4,1C181.3,70.8,178.5,75.8,176.9,73.7z"/>
	<path class="st32" d="M168.3,65c3-1.7,8.1-2,10.4-0.6c2.3,1.4,1.4,4-1.8,4.6C172.8,69.9,164.8,66.9,168.3,65z"/>
	<path class="st95" d="M179.6,73.9c-0.4,0.8-1.1,1.4-1.7,1.7c-1,0.4-1.5-0.5-1.3-1.5c0.2-0.9,1-2.3,2-2.2
		C179.6,71.9,180,73,179.6,73.9z"/>
	<path class="st95" d="M173.4,113.1l-3.2-1.6l-0.1,4.2c0,0,3.2,1.5,3.8-0.2L173.4,113.1z"/>
	<polygon class="st95" points="166.1,112.2 166.1,115.9 170.1,115.6 170.2,111.5 	"/>
	<path class="st44" d="M185,179.9h-3.1v-58.1c0-2.6-2.1-4.7-4.7-4.7H92.8c-2.6,0-4.7,2.1-4.7,4.7v58.1H85v-58.1
		c0-4.3,3.5-7.8,7.8-7.8h84.4c4.3,0,7.8,3.5,7.8,7.8V179.9z"/>
	<path class="st50" d="M185,179.9h-3.1v-58.1c0-2.6-2.1-4.7-4.7-4.7H92.8c-2.6,0-4.7,2.1-4.7,4.7v58.1H85v-58.1
		c0-4.3,3.5-7.8,7.8-7.8h84.4c4.3,0,7.8,3.5,7.8,7.8V179.9z"/>
	<path class="st44" d="M173.8,179.9h-3.1v-58.1c0-2.6-2.1-4.7-4.7-4.7H81.6c-2.6,0-4.7,2.1-4.7,4.7v58.1h-3.1v-58.1
		c0-4.3,3.5-7.8,7.8-7.8H166c4.3,0,7.8,3.5,7.8,7.8V179.9z"/>
	<path class="st29" d="M173.8,179.9h-3.1v-58.1c0-2.6-2.1-4.7-4.7-4.7H81.6c-2.6,0-4.7,2.1-4.7,4.7v58.1h-3.1v-58.1
		c0-4.3,3.5-7.8,7.8-7.8H166c4.3,0,7.8,3.5,7.8,7.8V179.9z"/>
	<path class="st44" d="M146.8,112.8H120c-0.8,0-1.5-0.6-1.5-1.4l-1.8-16.9c-0.1-0.8,0.5-1.4,1.2-1.4h26.8c0.8,0,1.5,0.6,1.5,1.4
		l1.8,16.9C148.1,112.2,147.5,112.8,146.8,112.8z"/>
	<path class="st7" d="M146.8,112.8H120c-0.8,0-1.5-0.6-1.5-1.4l-1.8-16.9c-0.1-0.8,0.5-1.4,1.2-1.4h26.8c0.8,0,1.5,0.6,1.5,1.4
		l1.8,16.9C148.1,112.2,147.5,112.8,146.8,112.8z"/>
	<path class="st44" d="M146,112.8h-26.8c-0.8,0-1.5-0.6-1.5-1.4l-1.8-16.9c-0.1-0.8,0.5-1.4,1.2-1.4h26.8c0.8,0,1.5,0.6,1.5,1.4
		l1.8,16.9C147.4,112.2,146.8,112.8,146,112.8z"/>
	<path class="st44" d="M147.3,112.7h-26.8c-0.8,0-1.4,0.6-1.4,1.4h29.6C148.7,113.3,148,112.7,147.3,112.7z"/>
	<path class="st44" d="M156.4,112.7h-9.6c-0.8,0-1.4,0.6-1.4,1.4h12.4C157.8,113.3,157.2,112.7,156.4,112.7z"/>
	<path class="st7" d="M156.4,112.7h-9.6c-0.8,0-1.4,0.6-1.4,1.4h12.4C157.8,113.3,157.2,112.7,156.4,112.7z"/>
</g>
</svg>
