<?xml version="1.0" encoding="utf-8"?>
<!-- Generator: Adobe Illustrator 23.0.1, SVG Export Plug-In . SVG Version: 6.00 Build 0)  -->
<svg version="1.1" id="Layer_1" xmlns="http://www.w3.org/2000/svg" xmlns:xlink="http://www.w3.org/1999/xlink" x="0px" y="0px"
	 viewBox="0 0 250 180" style="enable-background:new 0 0 250 180;" xml:space="preserve">
<style type="text/css">
	.st0{fill:#EDF1F2;}
	.st1{fill:#3E5574;}
	.st2{fill:#283139;}
	.st3{opacity:0.6;fill:#283139;}
	.st4{fill:#5B35A8;}
	.st5{fill:#FFB0AE;}
	.st6{fill:#FF9100;}
	.st7{opacity:0.2;}
	.st8{fill:#FFFFFF;}
	.st9{fill:#5039A3;}
	.st10{fill:#0DACD1;}
	.st11{fill:#007CFF;}
	.st12{opacity:0.7;fill:#0078A0;}
	.st13{fill:url(#SVGID_1_);}
	.st14{fill:url(#SVGID_2_);}
	.st15{fill:url(#SVGID_3_);}
	.st16{fill:url(#SVGID_4_);}
	.st17{fill:url(#SVGID_5_);}
	.st18{fill:#61BC6C;}
	.st19{fill:#8BD692;}
	.st20{fill:#6D8699;}
	.st21{fill:#DB7A05;}
	.st22{fill:url(#SVGID_6_);}
	.st23{fill:#283549;}
	.st24{opacity:0.3;}
	.st25{opacity:0.9;fill:#FFFFFF;}
	.st26{opacity:0.2;fill:#FFFFFF;}
	.st27{opacity:0.3;fill:#FFFFFF;}
	.st28{fill:url(#SVGID_7_);}
	.st29{opacity:0.8;fill:#FFFFFF;}
	.st30{fill:url(#SVGID_8_);}
	.st31{fill:url(#SVGID_9_);}
	.st32{fill:#1A2E35;}
	.st33{fill:#FFC7AB;}
	.st34{fill:url(#SVGID_10_);}
	.st35{opacity:0.1;fill:#FFFFFF;}
	.st36{fill:#FFC3BD;}
	.st37{fill:#E1E1E1;}
	.st38{fill:#F5F5F5;}
	.st39{fill:#55AA5D;}
	.st40{fill:url(#SVGID_11_);}
	.st41{fill:#FF9F55;}
	.st42{fill:url(#SVGID_12_);}
	.st43{fill:url(#SVGID_13_);}
	.st44{fill:#0078A0;}
	.st45{opacity:0.1;fill:#FFFFFF;enable-background:new    ;}
	.st46{opacity:0.2;enable-background:new    ;}
	.st47{fill:#7D58FF;enable-background:new    ;}
	.st48{opacity:0.2;fill:#FFFFFF;enable-background:new    ;}
	.st49{fill:url(#SVGID_14_);}
	.st50{opacity:0.7;fill:#FFFFFF;}
	.st51{fill:url(#SVGID_15_);}
	.st52{fill:#FD897B;}
	.st53{opacity:0.6;fill:#FFFFFF;enable-background:new    ;}
	.st54{opacity:0.25;fill:#FFFFFF;}
	.st55{fill:#1A2E35;enable-background:new    ;}
	.st56{fill:#0DACD1;enable-background:new    ;}
	.st57{fill:#0AC3CC;enable-background:new    ;}
	.st58{opacity:0.3;fill:#FFFFFF;enable-background:new    ;}
	.st59{fill:#61BC6C;enable-background:new    ;}
	.st60{fill:#FF887B;}
	.st61{fill:#38A2F3;}
	.st62{clip-path:url(#SVGID_17_);}
	.st63{fill:url(#SVGID_18_);}
	.st64{fill:#F7F7F7;}
	.st65{opacity:0.5;}
	.st66{clip-path:url(#SVGID_20_);}
	.st67{fill:#5B35AF;}
	.st68{fill:#0AC3CC;}
	.st69{fill:none;}
	.st70{clip-path:url(#SVGID_22_);fill:#F7F7F7;}
	.st71{clip-path:url(#SVGID_24_);}
	.st72{clip-path:url(#SVGID_26_);fill:#FFFFFF;}
	.st73{clip-path:url(#SVGID_28_);fill:#FFFFFF;}
	.st74{clip-path:url(#SVGID_30_);fill:#FFFFFF;}
	.st75{fill:url(#SVGID_31_);}
	.st76{fill:#005E77;}
	.st77{clip-path:url(#SVGID_37_);fill:#FFFFFF;}
	.st78{clip-path:url(#SVGID_39_);fill:#FFFFFF;}
	.st79{clip-path:url(#SVGID_41_);fill:#FFFFFF;}
	.st80{clip-path:url(#SVGID_43_);fill:#FFFFFF;}
	.st81{clip-path:url(#SVGID_45_);fill:#FFFFFF;}
	.st82{clip-path:url(#SVGID_47_);fill:#FFFFFF;}
	.st83{clip-path:url(#SVGID_49_);fill:#FFFFFF;}
	.st84{clip-path:url(#SVGID_51_);fill:#FFFFFF;}
	.st85{clip-path:url(#SVGID_53_);fill:#FFFFFF;}
	.st86{clip-path:url(#SVGID_55_);fill:#FFFFFF;}
	.st87{clip-path:url(#SVGID_57_);fill:#FFFFFF;}
	.st88{clip-path:url(#SVGID_59_);fill:#FFFFFF;}
	.st89{opacity:0.6;fill:#FFFFFF;}
	.st90{opacity:0.5;fill:#FFFFFF;}
	.st91{fill:#FFCCA9;}
	.st92{fill:url(#SVGID_60_);}
	.st93{fill:url(#SVGID_61_);}
	.st94{fill:url(#SVGID_62_);}
	.st95{fill:#FFB570;}
	.st96{fill:#757D28;}
	.st97{fill:#5C9E33;}
	.st98{fill:#4D8B33;}
	.st99{fill:#B1C265;}
	.st100{fill:#92A05B;}
	.st101{fill:#C7CA7F;}
	.st102{fill:#518330;}
	.st103{fill:#6C9F44;}
	.st104{fill:#4A8A33;}
	.st105{fill:#689C2F;}
	.st106{fill:#478B33;}
	.st107{fill:#61A23E;}
	.st108{fill:#5C9B3B;}
	.st109{fill:url(#SVGID_63_);}
	.st110{fill:url(#SVGID_64_);}
	.st111{fill:url(#SVGID_65_);}
	.st112{fill:#FFBDA6;}
	.st113{fill:url(#SVGID_66_);}
	.st114{opacity:0.2;fill:#DB7A05;}
	.st115{fill:#CD5B51;}
	.st116{fill:url(#SVGID_67_);}
	.st117{fill:url(#SVGID_68_);}
	.st118{fill:url(#SVGID_69_);}
	.st119{fill:url(#SVGID_70_);}
	.st120{fill:url(#SVGID_71_);}
	.st121{fill:url(#SVGID_72_);}
	.st122{fill:#1C8BA5;}
	.st123{opacity:0.2;fill:#1C8BA5;}
	.st124{opacity:0.4;fill:#1C8BA5;}
	.st125{opacity:0.5;fill:#1C8BA5;}
	.st126{opacity:0.3;fill:#007CFF;}
	.st127{opacity:0.8;fill-rule:evenodd;clip-rule:evenodd;fill:#FFFFFF;}
	.st128{fill:#E0E2E2;}
	.st129{fill:url(#SVGID_73_);}
	.st130{fill:url(#SVGID_74_);}
	.st131{fill:#E7E7E7;}
	.st132{clip-path:url(#SVGID_76_);fill:#1A2E35;}
	.st133{clip-path:url(#SVGID_76_);fill:#FFB570;}
	.st134{clip-path:url(#SVGID_76_);fill:#1C8BA5;}
	.st135{opacity:0.2;clip-path:url(#SVGID_76_);fill:#FFFFFF;}
	.st136{opacity:0.2;clip-path:url(#SVGID_76_);}
	.st137{clip-path:url(#SVGID_78_);fill:#903C38;}
	.st138{clip-path:url(#SVGID_78_);fill:#1C8BA5;}
	.st139{opacity:0.5;clip-path:url(#SVGID_78_);}
	.st140{opacity:0.2;clip-path:url(#SVGID_78_);}
	.st141{clip-path:url(#SVGID_78_);fill:#1A2E35;}
	.st142{clip-path:url(#SVGID_80_);fill:#FF8B7B;}
	.st143{clip-path:url(#SVGID_80_);fill:#1A2E35;}
	.st144{opacity:0.2;clip-path:url(#SVGID_80_);}
	.st145{clip-path:url(#SVGID_80_);fill:#1C8BA5;}
</style>
<path class="st0" d="M4.8,47.7c-4.7,8.2-5.9,17.6-3.7,26.4c2.6,10.4,10.6,18.3,7.8,29.3c-1.7,6.7-2.1,13-3,19.6
	c-1.8,13.7,9.2,25.7,22.8,32.2c11.1,5.3,24,7.3,36.7,7.1c11.4-0.1,22.9-1.8,34-4.1c10.7-2.2,21.1-5.1,32.3-4.2
	c9.3,0.8,17.7,4,26.4,6.4c20.7,5.8,45.8,6.6,64.8-2.2c12.2-5.7,20.7-14.9,24.4-24.7c3-7.9,3.4-15.3,1.1-23.4
	c-2.3-8.3-6.2-16.6-5-25.3c0.8-6,4.3-11.8,3.6-17.9c-0.4-4-2.6-7.8-5.3-11.2c-9.7-12.4-26.1-20.7-43.3-25.3
	c-16.2-4.3-33-7.4-49.9-6.4c-35,2.1-42.1-2.4-77.8-8.5C47.7,11.8,21.9,26,8.4,42.5C7,44.1,5.8,45.9,4.8,47.7z"/>
<g>
	<polygon class="st32" points="144.3,103.6 136.6,103.6 133.5,87.9 141.2,87.9 	"/>
	<polygon class="st32" points="191.9,180 195.2,180 195.1,109 190.5,109 	"/>
	<polygon class="st32" points="161.3,180 158,180 165.5,109 170.1,109 	"/>
	<polygon class="st32" points="81.4,180 84.7,180 84.6,109 80,109 	"/>
	<polygon class="st32" points="50.8,180 47.5,180 55,109 59.6,109 	"/>
	<path class="st1" d="M197.2,110.3H52.9c-1,0-1.7-1.6-1.7-3.6l0,0c0-2,0.8-3.6,1.7-3.6h144.2c1,0,1.7,1.6,1.7,3.6l0,0
		C198.9,108.6,198.1,110.3,197.2,110.3z"/>
	<path class="st2" d="M197.2,110.3h-33.8c-1,0-1.7-1.6-1.7-3.6l0,0c0-2,0.8-3.6,1.7-3.6h33.8c1,0,1.7,1.6,1.7,3.6l0,0
		C198.9,108.6,198.1,110.3,197.2,110.3z"/>
	<path class="st32" d="M153.3,99.8h-31c-1,0-1.8-0.8-1.8-1.9l1.2-19.6c0.1-1,1-1.9,2-1.9h31c1,0,1.8,0.8,1.8,1.9l-1.2,19.6
		C155.3,98.9,154.4,99.8,153.3,99.8z"/>
	<path class="st9" d="M152.9,99.8h-31c-1,0-1.8-0.8-1.8-1.9l1.2-19.6c0.1-1,1-1.9,2-1.9h31c1,0,1.8,0.8,1.8,1.9l-1.2,19.6
		C154.8,98.9,153.9,99.8,152.9,99.8z"/>
	<path class="st8" d="M122.5,97.8c-0.2,0-0.4-0.1-0.6-0.2c-0.1-0.1-0.2-0.3-0.2-0.5l1.1-17.9c0-0.5,0.5-0.9,1-0.9h29.8
		c0.2,0,0.4,0.1,0.6,0.2c0.1,0.1,0.2,0.3,0.2,0.5L153.2,97c0,0.5-0.5,0.9-1,0.9H122.5z"/>
	<path class="st33" d="M71.8,63.1l3.1,2.4l4.3,3.3c-0.2,0.2-0.3,1-0.4,1.6c-0.1,1.2-0.3,2.1,2.4,2.8c0.6,0.2,1,0.6,1.1,1.2
		c0.1,0.7-0.3,1.6-2.8,2c-2.8,0.5-5.1-0.3-6.9-1.2c-1-0.5-1.1-1.1-0.6-2.2C73.3,69.9,72.6,66.1,71.8,63.1z"/>
	<path class="st21" d="M68.3,73.8c1-2,1.5-3.6,1.5-3.6s7.9-0.4,10.5,0.3c2.6,0.8,4.2,4.2,4.2,4.2L68.3,73.8z"/>
	<path class="st33" d="M71.6,79.7c-0.2,0.6-0.4,1.3-0.6,2l-0.6,2c-0.4,1.4-0.7,2.7-1,4.1c-0.3,1.4-0.5,2.7-0.7,4
		c-0.2,1.3-0.2,2.6-0.1,3.7c0,0.6,0.1,1.1,0.2,1.5c0,0.1,0.1,0.2,0.1,0.3c0,0.1,0.1,0.2,0.1,0.3l0,0c0,0,0,0,0,0
		c0,0-0.1-0.1-0.1-0.1c-0.1-0.1-0.1-0.2-0.2-0.2c-0.1-0.1-0.2-0.2-0.2-0.2c-0.1-0.1-0.1-0.1-0.1,0c0.1,0.1,0.3,0.2,0.5,0.3
		c0.2,0.1,0.5,0.2,0.8,0.3c0.6,0.2,1.2,0.4,1.9,0.6c2.7,0.7,5.6,1.2,8.5,1.8l-0.1,3.6c-1.5,0.2-3.1,0.3-4.6,0.4
		c-1.5,0.1-3.1,0-4.7-0.1c-0.8-0.1-1.6-0.1-2.5-0.3c-0.4-0.1-0.9-0.2-1.3-0.3c-0.5-0.1-1-0.3-1.6-0.6c-0.3-0.2-0.6-0.3-1-0.6
		c-0.2-0.2-0.4-0.3-0.6-0.6c-0.1-0.1-0.2-0.3-0.3-0.4c-0.1-0.1-0.1-0.2-0.2-0.3l-0.1-0.1l-0.4-0.7c-0.1-0.2-0.2-0.5-0.3-0.7
		c-0.3-1-0.6-1.9-0.7-2.8c-0.5-3.6-0.1-6.8,0.4-10c0.3-1.6,0.6-3.1,1-4.6c0.2-0.8,0.4-1.5,0.7-2.3c0.2-0.8,0.5-1.5,0.8-2.3
		L71.6,79.7z"/>
	<path class="st21" d="M66.8,73.2c4.9-1.3,7.8,2.7,6.2,9.4c-1.7,6.7-2.2,6.9-2.2,6.9l-10.1-1.7C61.8,81.2,61.7,74.5,66.8,73.2z"/>
	<path class="st33" d="M82.6,98.5l-0.8-0.1c-2.2,0-2.5,0.6-3.9,1.8l-0.5,2.7c3.5,1.8,5.4-0.2,5.4-0.2h3.3l-1.1-2.6
		C84.6,99.3,83.7,98.6,82.6,98.5z"/>
	<path class="st33" d="M70.5,57.9c0.9,4.7,1.2,7.6,3.9,9.7c4.1,3.2,9.7,0.2,10.2-4.8c0.5-4.4-1-11.4-5.9-12.7
		C73.8,48.9,69.6,53.2,70.5,57.9z"/>
	<path class="st32" d="M79.9,59.6c3.4-0.3,2.4-3.8,1.3-4.6c1.6-0.6,2.7-3.1,1.2-4.8c0.9-2.3-1.7-5.1-6.1-4.7c-3.3,0.3-3.7,2-3.7,2
		S68.7,47,67,50.3c-1.4,2.8,0.3,4.3,0.3,4.3s-2.9,0.9-2.1,4.7c0.9,4.1,4,3.2,4,3.2s-0.7,3.8,3.6,3.8c3.7,0,3.8-2.7,3.8-2.7
		S81.4,63,79.9,59.6z"/>
	<path class="st33" d="M77.4,59.8c0.4,1.1,1.2,1.9,2.1,2.4c1.2,0.6,2.2-0.7,2-2c-0.2-1.2-1.3-2.8-2.6-2.8
		C77.6,57.2,76.9,58.6,77.4,59.8z"/>
	<polygon class="st33" points="127.8,171.4 132.4,169.5 129.2,158.4 124.5,160.3 	"/>
	<polygon class="st7" points="126.1,165.7 130.8,163.9 129.2,158.4 124.5,160.3 	"/>
	<path class="st32" d="M132,167.6l-5.3,1.8c-0.2,0.1-0.3,0.3-0.2,0.4l1.2,4.3c0.1,0.4,0.7,0.7,1.1,0.6c1.8-0.7,2.6-1,4.8-2
		c1.4-0.6,4.7-2,6.5-3.1c1.8-1,0.7-2.8-0.2-2.5c-2,0.7-5.4,1.1-7.1,0.6C132.6,167.5,132.3,167.5,132,167.6z"/>
	<g>
		<path class="st32" d="M90.7,112.9c0,0,34.9,3.1,35.8,13.2c1.8,20.5,4.6,34.5,4.6,34.5l-7.1,2.6c0,0-8.7-16.8-8.6-32.8
			c-10.1-2.8-36.6,1.3-40.9-6.4c-3.8-6.9-0.5-11.8-0.5-11.8L90.7,112.9z"/>
	</g>
	<polygon class="st20" points="123.5,164.9 132.3,161.9 131.9,157.9 122,161.1 	"/>
	<polygon class="st33" points="103,174.7 108,174.4 108.8,162.8 103.9,163 	"/>
	<path class="st32" d="M108.1,173.6l-5.6-0.2c-0.2,0-0.4,0.1-0.4,0.3l-0.4,4.4c0,0.5,0.4,0.9,0.8,0.9c1.9,0,2.9-0.1,5.3,0
		c1.5,0,4.5,0.3,6.6,0c2-0.3,1.8-2.3,0.9-2.4c-2.1-0.2-5-1.7-6.4-2.8C108.7,173.7,108.4,173.6,108.1,173.6z"/>
	<g>
		<polygon class="st7" points="103.9,163 108.8,162.8 108.3,169.5 103.4,169.4 		"/>
	</g>
	<path class="st32" d="M79.1,112.4c0,0,37.7,5.8,37.1,14.4c-1.1,15.6-6.3,40.4-6.3,40.4l-7.4,0.1c0,0-1.8-25.6,1-37
		c-9.3,0-35.4-0.3-39-5.1c-3.9-5.3,0.1-13.5,0.1-13.5L79.1,112.4z"/>
	<polygon class="st20" points="101.5,168 110.5,167.8 110.9,163.1 101.1,163.5 	"/>
	<linearGradient id="SVGID_1_" gradientUnits="userSpaceOnUse" x1="65.8783" y1="112.7024" x2="87.6208" y2="77.237">
		<stop  offset="0" style="stop-color:#FF9F55"/>
		<stop  offset="1" style="stop-color:#FFD255"/>
	</linearGradient>
	<path class="st13" d="M85.7,72.7c-3-0.6-16.7-0.4-16.7-0.4c-2.8-0.1-5.3,2-5.6,4.8c-0.5,4.2,2.2,13.6,2.3,18.5
		c0.1,5.9-1,8.3-1.1,16.2l26.1,1.2c0-16-0.7-29.2-1.3-35.6C89.1,75.2,88.7,73.2,85.7,72.7z"/>
	<path class="st33" d="M89.3,77.7c0.8,2.8,1.6,5.7,2.5,8.5c0.8,2.8,1.7,5.7,2.7,8.3c0.2,0.7,0.5,1.3,0.7,2l0.4,0.9l0,0.1l0,0.1l0,0
		l0,0l0,0c-0.1-0.2-0.2-0.4-0.3-0.4C95.1,97,95.1,97,95.1,97c0,0,0.2,0.1,0.4,0.2c0.2,0.1,0.5,0.2,0.8,0.3c0.6,0.2,1.2,0.4,1.9,0.6
		c2.7,0.7,5.7,1.2,8.6,1.8l-0.1,3.6c-1.6,0.2-3.1,0.3-4.7,0.4c-1.6,0-3.1,0-4.8-0.1c-0.8-0.1-1.6-0.2-2.5-0.3
		c-0.4-0.1-0.9-0.2-1.4-0.3c-0.5-0.1-1-0.3-1.7-0.7c-0.3-0.2-0.7-0.4-1.1-0.9c-0.2-0.2-0.5-0.5-0.7-0.9l-0.2-0.3l-0.6-1.1
		c-0.3-0.7-0.7-1.5-1-2.2c-0.6-1.5-1.2-2.9-1.8-4.4c-0.5-1.5-1-2.9-1.5-4.4c-1-2.9-1.8-5.8-2.6-8.8L89.3,77.7z"/>
	<g>
		<path class="st21" d="M81.8,74.8c3.6-3.6,8.1-1.7,10.1,4.9c2,6.6,1.6,7.1,1.6,7.1L84,90.5C81.7,84.2,78.2,78.5,81.8,74.8z"/>
	</g>
	<path class="st33" d="M109.3,98.5l-0.8-0.1c-2.2,0-2.5,0.6-3.9,1.8l-0.5,2.7c3.5,1.8,5.4-0.2,5.4-0.2h3.3l-1.1-2.6
		C111.2,99.3,110.3,98.6,109.3,98.5z"/>
	<path class="st20" d="M65.7,132.3H99c0.7,0,1.3-0.6,1.3-1.3v-2.1c0-0.7-0.6-1.3-1.3-1.3H65.7c-0.7,0-1.3,0.6-1.3,1.3v2.1
		C64.4,131.7,65,132.3,65.7,132.3z"/>
	<polygon class="st20" points="65.9,180 64.4,180 66.1,132.3 68.1,132.3 	"/>
	<polygon class="st20" points="79.4,180 80.9,180 79.2,132.3 77.2,132.3 	"/>
	<polygon class="st20" points="85.3,180 83.8,180 85.5,132.3 87.6,132.3 	"/>
	<polygon class="st20" points="98.9,180 100.4,180 98.7,132.3 96.6,132.3 	"/>
	<polygon class="st20" points="66.1,132.3 68.1,132.3 68,134.5 66,134.5 	"/>
	<polygon class="st20" points="79.3,134.5 77.3,134.5 77.2,132.3 79.2,132.3 	"/>
	<polygon class="st20" points="87.6,132.3 87.5,134.5 85.5,134.5 85.5,132.3 	"/>
	<polygon class="st20" points="98.7,134.5 96.7,134.5 96.6,132.3 98.7,132.3 	"/>
	<path class="st10" d="M197.8,15.9h-76.1c-2.5,0-4.7,2.1-4.9,4.6l-2.9,48.2c-0.2,2.5,1.8,4.6,4.3,4.6h13.2l3.3,11.3
		c0.3,1.1,1.7,1.4,2.5,0.5l10.3-11.8h46.9c2.5,0,4.7-2.1,4.9-4.6l2.9-48.2C202.3,17.9,200.3,15.9,197.8,15.9z"/>
	<path class="st35" d="M190.6,53.8H148c-1.4,0-2.5-1.2-2.4-2.6l1.6-27c0.1-1.4,1.3-2.6,2.7-2.6h42.7c1.4,0,2.5,1.2,2.4,2.6l-1.6,27
		C193.3,52.7,192.1,53.8,190.6,53.8z"/>
	<path class="st35" d="M167.8,65.5h-42.7c-1.4,0-2.5-1.2-2.4-2.6l1.6-27c0.1-1.4,1.3-2.6,2.7-2.6h42.7c1.4,0,2.5,1.2,2.4,2.6
		l-1.6,27C170.4,64.3,169.2,65.5,167.8,65.5z"/>
	<path class="st8" d="M126.7,21.3c-0.1,1.4-1.2,2.6-2.5,2.6c-1.3,0-2.3-1.2-2.2-2.6c0.1-1.4,1.2-2.6,2.5-2.6
		C125.9,18.6,126.8,19.8,126.7,21.3z"/>
	<path class="st8" d="M135.4,21.3c-0.1,1.4-1.2,2.6-2.5,2.6c-1.3,0-2.3-1.2-2.2-2.6c0.1-1.4,1.2-2.6,2.5-2.6
		C134.5,18.6,135.5,19.8,135.4,21.3z"/>
	<path class="st8" d="M144.1,21.3c-0.1,1.4-1.2,2.6-2.5,2.6c-1.3,0-2.3-1.2-2.2-2.6c0.1-1.4,1.2-2.6,2.5-2.6
		C143.2,18.6,144.2,19.8,144.1,21.3z"/>
	<path class="st32" d="M152.5,44.6c-0.3,0.7-0.6,1.3-0.9,1.9c-0.3,0.6-0.7,1.2-1,1.8c-0.7,1.2-1.4,2.4-2.2,3.5
		c-0.4,0.6-0.8,1.1-1.2,1.7c-0.4,0.6-0.8,1.1-1.3,1.7c-0.9,1.1-1.9,2.1-2.9,3.2c-0.3,0.3-0.5,0.5-0.8,0.7c-0.3,0.2-0.5,0.5-0.9,0.7
		l-0.9,0.7c0,0-0.2,0.1-0.3,0.2c-0.1,0.1-0.3,0.1-0.4,0.2c-0.3,0.1-0.5,0.2-0.8,0.3c-0.6,0.1-1.1,0.1-1.7,0
		c-0.6-0.1-1.1-0.4-1.5-0.7c-0.2-0.2-0.4-0.4-0.6-0.6l-0.1-0.2l-0.1-0.1l0,0l-0.1-0.2l-0.3-0.6c-0.1-0.2-0.2-0.4-0.3-0.6
		c-0.3-0.8-0.5-1.5-0.7-2.2c-0.4-1.4-0.6-2.8-0.7-4.2c-0.1-1.4-0.2-2.7-0.2-4.1c0-0.9,0.8-1.6,1.7-1.6c0.7,0,1.4,0.5,1.5,1.2l0,0.1
		c0.7,2.4,1.4,5,2.3,7.1c0.2,0.5,0.5,1,0.7,1.4c0.1,0.1,0.1,0.2,0.2,0.3c0.1,0.1,0.1,0.1,0.2,0.2l0,0.1l0,0l0,0c0,0,0,0-0.1-0.1
		c-0.1-0.1-0.2-0.2-0.3-0.3c-0.2-0.2-0.4-0.3-0.6-0.3c-0.2-0.1-0.5-0.1-0.7,0c-0.1,0-0.2,0.1-0.4,0.1c-0.1,0-0.1,0.1-0.2,0.1
		c0,0-0.1,0.1-0.1,0l0.6-0.6c0.2-0.2,0.4-0.4,0.6-0.6c0.2-0.2,0.4-0.4,0.6-0.6c1.5-1.8,2.9-3.8,4.2-5.9c0.7-1.1,1.3-2.1,1.9-3.2
		l0.9-1.6l0.9-1.6l0-0.1c0.9-1.6,2.9-2.2,4.4-1.3C152.7,41.1,153.3,43,152.5,44.6z"/>
	<path class="st36" d="M133,47.5l-2.3-1.3l2.5-2.5c0,0,1,0.7,2,1.8c0.6,0.7,0.4,1.8-0.4,2.1l0,0C134.2,47.8,133.5,47.8,133,47.5z"/>
	<path class="st36" d="M130.1,43.4l1.3-0.9c0.3-0.2,0.8-0.2,1.1,0.2l0.7,0.9l-2.5,2.5l-0.8-1.8C129.7,44,129.8,43.6,130.1,43.4z"/>
	<path class="st8" d="M147.6,42.5c0.4-1.3,1.4-2.2,2.7-2.5c1-0.2,1.5-0.3,2.8-0.4c2.2-0.2,5.9,0,8.5,0.2c1.5,0.1,3,0.3,4.2,0.5l0,0
		c1.3,0.2,2.2,1.5,2,2.8c-0.6,3.4-2.3,9.4-2.5,15c-0.2,7.4-0.1,11.7-0.3,13.4l-19-0.4C144.7,53.1,146.4,46.6,147.6,42.5z"/>
	<path class="st32" d="M166.4,40L166.4,40c-1.3-0.2-2.9-0.4-4.5-0.5c-0.3,0-0.6,0-0.8-0.1c-0.8,3.4-5.8,9.2-7.3,18
		c-0.6-7.3-1-15-0.2-18c-0.5,0-3,0.2-4,0.3c-1.4,0.3-2.5,1.3-3,2.8c-1.2,3.4-3.4,11.2-2,30.1h21.2c0.1-1.9-0.4-5.9,0.4-12
		c0.7-6,1.8-14.1,2.4-17.7C168.7,41.5,167.8,40.2,166.4,40z"/>
	<path class="st24" d="M165.6,47.5c-0.8,3.6-0.4,8.5,0.5,13c0.6-5,1.5-11.6,2.1-15.6C167.3,44.3,166.2,44.7,165.6,47.5z"/>
	<path class="st36" d="M153.5,39.6c2.5-0.5,2.9-2.1,2.7-3.7c0-0.4-0.1-0.8-0.2-1.3l3.1-2.5l2.3-1.8c-0.6,2.7-1.3,7.7,0.6,9.6
		c0,0-1.5,2.5-5.8,2.2C152.6,41.7,153.5,39.6,153.5,39.6z"/>
	<polygon class="st37" points="157.3,41.3 156.6,42 158.8,42.8 158.5,42 	"/>
	<path class="st38" d="M158.9,44c0,0-0.9-2.2-1.7-2.6c2.8-0.8,4.2-2.3,4.2-2.3l1.3,0.5C162.8,39.5,163.2,42,158.9,44z"/>
	<polygon class="st37" points="156.1,41.2 156.6,42 154.3,42.2 154.7,41.5 	"/>
	<path class="st38" d="M153.1,43.4c0,0,1.2-1.4,2.9-2.2c-1.3-0.4-1.3-2.1-1.3-2.1l-1.2,0.2C153.5,39.3,151.3,41.5,153.1,43.4z"/>
	<path class="st7" d="M156,34.6c0.1,0.4,0.2,0.8,0.2,1.3c1.2-0.2,2.7-1.4,2.8-2.6c0.1-0.4,0.1-0.9,0-1.2L156,34.6z"/>
	<path class="st32" d="M152.3,22.1c-1.1,1.4-1,6.3,1.3,6.3C155.9,28.5,154.3,19.7,152.3,22.1z"/>
	<path class="st36" d="M162.3,25.7c-0.2,3.7-0.2,5.9-2.1,7.8c-2.8,2.9-7.4,1.2-8.3-2.5c-0.8-3.3-0.3-8.8,3.4-10.3
		C158.9,19.2,162.6,22,162.3,25.7z"/>
	<path class="st32" d="M160.5,22.6c-2.3,2.3,0.7,4-0.5,5.3c2.2,1.1,1.4,2,1.4,2s-0.4,0.9,0,2c2.5-0.6,7.1-8.9,2.1-10.1
		C160.5,23,160.5,22.6,160.5,22.6z"/>
	<path class="st32" d="M161.5,24.3c-2.2,0.3-5-0.7-6.7-1.6c-1.7-0.9-2,0.8-1.3,1.3c-1.1,0-2.5-0.8-2.2-2.8c0.3-1.8,2.7-3.5,6-2
		c2.4,1.1,5.3-0.3,6.4,0.9C164.7,21.3,162.9,24,161.5,24.3z"/>
	<path class="st32" d="M163,21.8c1.5-0.2,1.5-1.1,1.1-2.8c1.6,2.3,1,3,0,3.5C163,22.2,163,21.8,163,21.8z"/>
	<path class="st36" d="M163.3,28.5c-0.4,0.8-1,1.4-1.6,1.7c-0.9,0.4-1.4-0.4-1.1-1.4c0.2-0.9,1-2.2,1.9-2.2
		C163.4,26.6,163.7,27.6,163.3,28.5z"/>
	<path class="st32" d="M169,42.1c0.6,1.2,1.1,2.4,1.5,3.6c0.5,1.2,0.9,2.4,1.3,3.6c0.8,2.4,1.5,4.9,2,7.5c0.1,0.7,0.2,1.3,0.3,2
		l0.1,0.5l0,0.3l0,0.1l0,0.2c0,0.5,0,1,0,1.5c-0.1,1-0.5,2.1-1.1,3c-0.6,0.9-1.4,1.6-2.2,2c-0.8,0.5-1.5,0.8-2.3,1
		c-0.7,0.2-1.5,0.3-2.2,0.4c-0.7,0.1-1.4,0.1-2.1,0.1c-0.7,0-1.3-0.1-2.1-0.2c-0.9-0.1-1.5-1-1.3-1.9c0.1-0.7,0.6-1.2,1.3-1.3l0.2,0
		c0.5-0.1,1.1-0.2,1.6-0.4c0.5-0.1,1.1-0.3,1.6-0.5c1-0.4,1.9-0.8,2.4-1.3c0.2-0.2,0.4-0.5,0.4-0.6c0-0.2,0-0.3,0-0.5
		c0-0.1,0-0.2-0.1-0.4l-0.2-0.8c-0.1-0.5-0.3-1.1-0.4-1.7c-0.3-1.1-0.6-2.2-1-3.4c-0.4-1.1-0.8-2.2-1.2-3.4
		c-0.4-1.1-0.9-2.2-1.3-3.3c-0.4-1.1-0.9-2.2-1.4-3.3l0,0c-0.7-1.7,0.1-3.6,1.7-4.3C166.4,39.8,168.3,40.5,169,42.1z"/>
	<path class="st36" d="M160.9,65.7l-2.1,1l3.6,1.3c0,0,2.4-0.8,1.2-2.1l-0.6-0.2C162,65.4,161.5,65.4,160.9,65.7z"/>
	<path class="st36" d="M159.1,69.3l1.6,0.3c0.5,0.1,0.9-0.1,1.2-0.5l0.6-1l-3.6-1.3l-0.5,1C158,68.4,158.4,69.2,159.1,69.3z"/>
	<g>
		<path class="st18" d="M213.3,154.6c0,0-4.1-4.7-0.3-7.8c0,0,2.8-1.7,5.1-1.6c0,0-3.2,5.4-2.2,6c1,0.5,3.2-6.3,3.2-6.3
			s6.4-0.6,8.4,0.4c0,0-5.4,4.5-4.3,4.7c1.1,0.3,7-4.1,7-4.1s5.9,1,5.6,4.6c-0.3,3.6-2.3,4.7-3.2,4.6c-0.9-0.1-6.1-2.1-6.3-1.4
			c-0.1,0.7,3,3.1,5.3,3.2c0,0-4.2,4.6-6.9,3.3c-2.8-1.3-3-3.4-4.7-4.2c-1.7-0.8-3.2-0.8-2.5,0c0.7,0.8,3.8,1.6,4.8,3.3
			c1,1.7,1.9,2.9-1,2.5c-2.9-0.4-7.5-2.5-7.7-4.9C213.3,154.6,213.3,154.6,213.3,154.6z"/>
		<g>
			<path class="st39" d="M232.9,150.6c0,0-16.1-0.6-19.6,4c0,0-0.8,2.4-3.2,4.5l-0.4,1c0,0,2.8-2.9,3.8-3.1
				C213.5,157,212,151.3,232.9,150.6z"/>
			<path class="st39" d="M210.1,159.1c0,0-3.4,2.6-3.7,7.1l0.6,0.1c0,0,1.1-4.7,3.1-6.6C212.1,157.8,210.1,159.1,210.1,159.1z"/>
		</g>
		<path class="st19" d="M199.1,148.6c0,0,6.5-3.6,3.4-8.6c0,0-2.4-3-5-3.8c0,0,1.4,7.3,0,7.5c-1.4,0.2-1-8.3-1-8.3s-6.8-3.3-9.5-3
			c0,0,4.2,7.2,2.9,7s-6.1-7.4-6.1-7.4s-7-1.3-8.1,2.9c-1.1,4.1,0.7,6.2,1.7,6.5c1,0.3,7.7,0.2,7.5,1c-0.2,0.9-4.7,2.3-7.2,1.5
			c0,0,2.8,6.8,6.4,6.5c3.6-0.4,4.7-2.6,7-2.8c2.2-0.2,3.9,0.4,2.8,1c-1.1,0.6-4.9,0.2-6.7,1.8c-1.8,1.5-3.3,2.5,0.1,3.2
			c3.4,0.7,9.4,0.2,10.6-2.4C199.1,148.6,199.1,148.6,199.1,148.6z"/>
		<g>
			<path class="st18" d="M178.8,136.2c0,0,18.2,5.8,20.2,12.4c0,0-0.1,2.9,1.7,6.3l0,1.3c0,0-1.9-4.4-2.9-5
				C197.9,151.2,201.9,145.5,178.8,136.2z"/>
			<path class="st18" d="M200.8,154.9c0,0,2.8,4.2,1.2,9.4l-0.7-0.2c0,0,0.7-5.7-0.8-8.6C199,152.7,200.8,154.9,200.8,154.9z"/>
		</g>
		<path class="st19" d="M209.4,143.6c0,0-8.6-4.8-4.6-11.3c0,0,3.2-4,6.6-5c0,0-1.8,9.7,0,9.9c1.8,0.2,1.2-10.9,1.2-10.9
			s9-4.3,12.5-4c0,0-5.6,9.5-3.7,9.2c1.8-0.2,8.1-9.8,8.1-9.8s9.2-1.7,10.7,3.7c1.5,5.5-0.9,8.2-2.3,8.5c-1.4,0.3-10.1,0.2-9.9,1.4
			c0.2,1.1,6.2,3,9.5,1.9c0,0-3.6,9-8.4,8.6c-4.8-0.4-6.3-3.4-9.2-3.6c-3-0.2-5.1,0.6-3.6,1.4c1.5,0.8,6.5,0.3,8.9,2.3
			c2.4,2,4.3,3.3-0.1,4.2c-4.4,0.9-12.4,0.4-14-3.1C209.4,143.6,209.4,143.6,209.4,143.6z"/>
		<g>
			<path class="st18" d="M236,127.1c0,0-23.9,7.8-26.6,16.4c0,0,0.1,3.9-2.3,8.3l0,1.7c0,0,2.5-5.8,3.9-6.6
				C211,147,205.6,139.5,236,127.1z"/>
			<path class="st18" d="M207.1,151.9c0,0-3.7,5.6-1.6,12.4l0.9-0.3c0,0-0.9-7.5,1-11.3C209.4,149,207.1,151.9,207.1,151.9z"/>
		</g>
		<path class="st2" d="M209.1,179.1c9.2,0,16.7-7.5,16.7-16.8l-33.5,0.1C192.4,171.7,199.9,179.1,209.1,179.1z"/>
		<path class="st20" d="M213.2,179c-0.7,0.1-1.4,0.1-2.1,0.1c-9.2,0-16.7-7.5-16.8-16.7l4.2,0C198.6,170.9,205,178,213.2,179z"/>
		<path class="st2" d="M226.1,179.9l-33.9,0.1l0,0c0-1.1,0.9-2.1,2.1-2.1l29.8,0C225.2,177.9,226.1,178.8,226.1,179.9L226.1,179.9z"
			/>
		
			<rect x="191.8" y="162.4" transform="matrix(1 -1.614382e-03 1.614382e-03 1 -0.2623 0.3376)" class="st20" width="34.4" height="0.5"/>
	</g>
</g>
</svg>
