<?xml version="1.0" encoding="utf-8"?>
<!-- Generator: Adobe Illustrator 23.0.1, SVG Export Plug-In . SVG Version: 6.00 Build 0)  -->
<svg version="1.1" id="Layer_1" xmlns="http://www.w3.org/2000/svg" xmlns:xlink="http://www.w3.org/1999/xlink" x="0px" y="0px"
	 viewBox="0 0 250 180" style="enable-background:new 0 0 250 180;" xml:space="preserve">
<style type="text/css">
	.st0{fill:#EDF1F2;}
	.st1{fill:#3E5574;}
	.st2{fill:#283139;}
	.st3{opacity:0.6;fill:#283139;}
	.st4{fill:#5B35A8;}
	.st5{fill:#FFB0AE;}
	.st6{fill:#FF9100;}
	.st7{opacity:0.2;}
	.st8{fill:#FFFFFF;}
	.st9{fill:#5039A3;}
	.st10{fill:#0DACD1;}
	.st11{fill:#007CFF;}
	.st12{opacity:0.7;fill:#0078A0;}
	.st13{fill:url(#SVGID_1_);}
	.st14{fill:url(#SVGID_2_);}
	.st15{fill:url(#SVGID_3_);}
	.st16{fill:url(#SVGID_4_);}
	.st17{fill:url(#SVGID_5_);}
	.st18{fill:#61BC6C;}
	.st19{fill:#8BD692;}
	.st20{fill:#6D8699;}
	.st21{fill:#DB7A05;}
	.st22{fill:url(#SVGID_6_);}
	.st23{fill:#283549;}
	.st24{opacity:0.3;}
	.st25{opacity:0.9;fill:#FFFFFF;}
	.st26{opacity:0.2;fill:#FFFFFF;}
	.st27{opacity:0.3;fill:#FFFFFF;}
	.st28{fill:url(#SVGID_7_);}
	.st29{opacity:0.8;fill:#FFFFFF;}
	.st30{fill:url(#SVGID_8_);}
	.st31{fill:url(#SVGID_9_);}
	.st32{fill:#1A2E35;}
	.st33{fill:#FFC7AB;}
	.st34{fill:url(#SVGID_10_);}
	.st35{opacity:0.1;fill:#FFFFFF;}
	.st36{fill:#FFC3BD;}
	.st37{fill:#E1E1E1;}
	.st38{fill:#F5F5F5;}
	.st39{fill:#55AA5D;}
	.st40{fill:url(#SVGID_11_);}
	.st41{fill:#FF9F55;}
	.st42{fill:url(#SVGID_12_);}
	.st43{fill:url(#SVGID_13_);}
	.st44{fill:#0078A0;}
	.st45{opacity:0.1;fill:#FFFFFF;enable-background:new    ;}
	.st46{opacity:0.2;enable-background:new    ;}
	.st47{fill:#7D58FF;enable-background:new    ;}
	.st48{opacity:0.2;fill:#FFFFFF;enable-background:new    ;}
	.st49{fill:url(#SVGID_14_);}
	.st50{opacity:0.7;fill:#FFFFFF;}
	.st51{fill:url(#SVGID_15_);}
	.st52{fill:#FD897B;}
	.st53{opacity:0.6;fill:#FFFFFF;enable-background:new    ;}
	.st54{opacity:0.25;fill:#FFFFFF;}
	.st55{fill:#1A2E35;enable-background:new    ;}
	.st56{fill:#0DACD1;enable-background:new    ;}
	.st57{fill:#0AC3CC;enable-background:new    ;}
	.st58{opacity:0.3;fill:#FFFFFF;enable-background:new    ;}
	.st59{fill:#61BC6C;enable-background:new    ;}
	.st60{fill:#FF887B;}
	.st61{fill:#38A2F3;}
	.st62{clip-path:url(#SVGID_17_);}
	.st63{fill:url(#SVGID_18_);}
	.st64{fill:#F7F7F7;}
	.st65{opacity:0.5;}
	.st66{clip-path:url(#SVGID_20_);}
	.st67{fill:#5B35AF;}
	.st68{fill:#0AC3CC;}
	.st69{fill:none;}
	.st70{clip-path:url(#SVGID_22_);fill:#F7F7F7;}
	.st71{clip-path:url(#SVGID_24_);}
	.st72{clip-path:url(#SVGID_26_);fill:#FFFFFF;}
	.st73{clip-path:url(#SVGID_28_);fill:#FFFFFF;}
	.st74{clip-path:url(#SVGID_30_);fill:#FFFFFF;}
	.st75{fill:url(#SVGID_31_);}
	.st76{fill:#005E77;}
	.st77{clip-path:url(#SVGID_37_);fill:#FFFFFF;}
	.st78{clip-path:url(#SVGID_39_);fill:#FFFFFF;}
	.st79{clip-path:url(#SVGID_41_);fill:#FFFFFF;}
	.st80{clip-path:url(#SVGID_43_);fill:#FFFFFF;}
	.st81{clip-path:url(#SVGID_45_);fill:#FFFFFF;}
	.st82{clip-path:url(#SVGID_47_);fill:#FFFFFF;}
	.st83{clip-path:url(#SVGID_49_);fill:#FFFFFF;}
	.st84{clip-path:url(#SVGID_51_);fill:#FFFFFF;}
	.st85{clip-path:url(#SVGID_53_);fill:#FFFFFF;}
	.st86{clip-path:url(#SVGID_55_);fill:#FFFFFF;}
	.st87{clip-path:url(#SVGID_57_);fill:#FFFFFF;}
	.st88{clip-path:url(#SVGID_59_);fill:#FFFFFF;}
	.st89{opacity:0.6;fill:#FFFFFF;}
	.st90{opacity:0.5;fill:#FFFFFF;}
	.st91{fill:#FFCCA9;}
	.st92{fill:url(#SVGID_60_);}
	.st93{fill:url(#SVGID_61_);}
	.st94{fill:url(#SVGID_62_);}
	.st95{fill:#FFB570;}
	.st96{fill:#757D28;}
	.st97{fill:#5C9E33;}
	.st98{fill:#4D8B33;}
	.st99{fill:#B1C265;}
	.st100{fill:#92A05B;}
	.st101{fill:#C7CA7F;}
	.st102{fill:#518330;}
	.st103{fill:#6C9F44;}
	.st104{fill:#4A8A33;}
	.st105{fill:#689C2F;}
	.st106{fill:#478B33;}
	.st107{fill:#61A23E;}
	.st108{fill:#5C9B3B;}
	.st109{fill:url(#SVGID_63_);}
	.st110{fill:url(#SVGID_64_);}
	.st111{fill:url(#SVGID_65_);}
	.st112{fill:#FFBDA6;}
	.st113{fill:url(#SVGID_66_);}
	.st114{opacity:0.2;fill:#DB7A05;}
	.st115{fill:#CD5B51;}
	.st116{fill:url(#SVGID_67_);}
	.st117{fill:url(#SVGID_68_);}
	.st118{fill:url(#SVGID_69_);}
	.st119{fill:url(#SVGID_70_);}
	.st120{fill:url(#SVGID_71_);}
	.st121{fill:url(#SVGID_72_);}
	.st122{fill:#1C8BA5;}
	.st123{opacity:0.2;fill:#1C8BA5;}
	.st124{opacity:0.4;fill:#1C8BA5;}
	.st125{opacity:0.5;fill:#1C8BA5;}
	.st126{opacity:0.3;fill:#007CFF;}
	.st127{opacity:0.8;fill-rule:evenodd;clip-rule:evenodd;fill:#FFFFFF;}
	.st128{fill:#E0E2E2;}
	.st129{fill:url(#SVGID_73_);}
	.st130{fill:url(#SVGID_74_);}
	.st131{fill:#E7E7E7;}
	.st132{clip-path:url(#SVGID_76_);fill:#1A2E35;}
	.st133{clip-path:url(#SVGID_76_);fill:#FFB570;}
	.st134{clip-path:url(#SVGID_76_);fill:#1C8BA5;}
	.st135{opacity:0.2;clip-path:url(#SVGID_76_);fill:#FFFFFF;}
	.st136{opacity:0.2;clip-path:url(#SVGID_76_);}
	.st137{clip-path:url(#SVGID_78_);fill:#903C38;}
	.st138{clip-path:url(#SVGID_78_);fill:#1C8BA5;}
	.st139{opacity:0.5;clip-path:url(#SVGID_78_);}
	.st140{opacity:0.2;clip-path:url(#SVGID_78_);}
	.st141{clip-path:url(#SVGID_78_);fill:#1A2E35;}
	.st142{clip-path:url(#SVGID_80_);fill:#FF8B7B;}
	.st143{clip-path:url(#SVGID_80_);fill:#1A2E35;}
	.st144{opacity:0.2;clip-path:url(#SVGID_80_);}
	.st145{clip-path:url(#SVGID_80_);fill:#1C8BA5;}
</style>
<path class="st0" d="M58.6,166.2c10.3,0.6,21-1.6,31.2,0.2c12.3,2.2,21.4,8.4,33.5,10.9c17.8,3.7,37.7,3.6,55-1
	c8.3-2.2,16.1-5.4,21.5-9.8c8.3-6.7,10.1-15.6,9-23.9c-1.6-12.4-10.3-25.4-7.9-37.9c1.3-6.9,13.4-9,21.3-12.5
	c9-4,16.1-9.5,20.8-15.5c8.7-11.1,9.5-24.5,1.6-35.8c-8.4-12.1-28.9-22.7-52-22c-10.7,0.3-21.4,3-31.9,1.7
	c-13.2-1.5-25.2-7.7-36-12.1c-11.9-4.9-26.1-7.9-40.5-8.5c-0.2,0-0.3,0-0.5,0C58.7-0.9,36,8.8,28.2,23.5c0,0-16.6,31.1-16.6,31.1
	C-5.3,86.2-4.7,117.8,20,146.9c5.4,6.3,21.3,16.5,32.3,18.6C54.4,165.9,56.5,166.1,58.6,166.2z"/>
<g>
	<g>
		<path class="st96" d="M125.2,158.3c0,0-5.9,0.9-14.4,5.4C102.3,168.3,117.5,165.1,125.2,158.3z"/>
		<path class="st97" d="M109.7,164.4c0,0,4.3-8.1,10.9-11.8c0,0-1.9,5.6-8.9,11.7C104.7,170.3,109.7,164.4,109.7,164.4z"/>
		<path class="st98" d="M106.3,158.9c0,0-4.4-5.4-6.2-7.8c-1.8-2.4,3.7,11.4,4.1,12.9C104.7,165.4,106.6,166.7,106.3,158.9z"/>
		<path class="st99" d="M110.5,167.2c2-2.9,3.3-16.1,3.3-16.1c-3.4,2.8-6.6,15.6-6.6,15.6S108.5,170.1,110.5,167.2z"/>
		<path class="st100" d="M110,165.8c0.6-1.2-0.2-17.4-0.7-15.9c-0.5,1.5-3.1,7.5-3.1,7.5C105.8,161.1,109.4,167.1,110,165.8z"/>
		<path class="st101" d="M105.5,162.3c-1-1.9-11.3-12-11.3-12c0.1,3.1,6.4,10.5,6.4,10.5S106.6,164.1,105.5,162.3z"/>
		<path class="st97" d="M110.5,167c-11.8-4.4-22.9-2.1-22.9-2.1c1.6,2.2,17.1,2.1,17.1,2.1H110.5z"/>
		<path class="st102" d="M108,167.3c-6-6.5-20.2-9.7-20.2-9.7c4.2,4.3,10.2,8,10.2,8S114,173.9,108,167.3z"/>
		<path class="st103" d="M109.2,166.6c-3.5-6.5-16.9-12.9-16.9-12.9c0,2.1,10.8,11.6,10.8,11.6S112.7,173.1,109.2,166.6z"/>
		<path class="st104" d="M109.1,167.3c2.6-0.5,12.4-10.1,12.4-10.1c-2.5,0.5-12.4,6.7-12.4,6.7S106.5,167.8,109.1,167.3z"/>
		<path class="st105" d="M113.8,167.3c3.3,0.1,14-6.5,14-6.5c-3.2,0-10.5,1.9-14.1,2.9c-1.3,0.4-2.5,1.3-3.2,2.5
			C108.6,169.6,110.9,167.2,113.8,167.3z"/>
		<path class="st106" d="M126.1,164.4c-1-0.1-7.4,0.2-10.1,0.3c-1.1,0.1-2.1,0.4-3,1.2c-1.2,1-0.8,1.8,0.8,2.1
			C115.9,168.5,127.4,164.5,126.1,164.4z"/>
		<path class="st107" d="M108.8,166.2c0.2-1,0.3-2,0.1-3.1c-0.5-3.5-2.1-14.2-4.5-15.9c0,0-1.1,14,1.2,18.6
			C107.4,169.4,108.4,168.1,108.8,166.2z"/>
		<path class="st108" d="M108.8,168.1c1.3-1.3,6.8-13.7,6.8-13.7c-5.1,3-7.4,9.1-7.4,9.1S107.5,169.4,108.8,168.1z"/>
	</g>
	<linearGradient id="SVGID_1_" gradientUnits="userSpaceOnUse" x1="96.186" y1="174.5116" x2="119.4906" y2="174.5116">
		<stop  offset="0" style="stop-color:#1C3B47"/>
		<stop  offset="1" style="stop-color:#31535F"/>
	</linearGradient>
	<polygon class="st13" points="96.2,169 97.9,180 117.8,180 119.5,169 	"/>
	<linearGradient id="SVGID_2_" gradientUnits="userSpaceOnUse" x1="106.0201" y1="171.0877" x2="118.9664" y2="187.7329">
		<stop  offset="0" style="stop-color:#1C3B47"/>
		<stop  offset="1" style="stop-color:#31535F"/>
	</linearGradient>
	<path class="st14" d="M119.5,169H96.2l1.7,11h4.2c0,0,3.6-7,16.9-7.8L119.5,169z"/>
	<linearGradient id="SVGID_3_" gradientUnits="userSpaceOnUse" x1="106.5567" y1="162.8953" x2="108.3137" y2="170.5705">
		<stop  offset="0" style="stop-color:#1C3B47"/>
		<stop  offset="1" style="stop-color:#31535F"/>
	</linearGradient>
	<rect x="95.3" y="166.7" class="st15" width="25.2" height="3.7"/>
</g>
<g>
	<polygon class="st112" points="70.1,175.7 74,174.2 71.6,165 67.8,166.4 	"/>
	<polygon class="st112" points="41.3,175.8 45.4,175.8 46,166.3 41.9,166.3 	"/>
	<path class="st32" d="M45.8,175.3h-5c-0.2,0-0.3,0.1-0.3,0.3l-0.6,3.6c-0.1,0.4,0.2,0.7,0.6,0.7c1.6,0,2.8-0.1,4.8-0.1
		c1.2,0,5,0.1,6.7,0.1c1.7,0,1.9-1.7,1.2-1.9c-3.2-0.7-5.6-1.6-6.7-2.6C46.3,175.4,46.1,175.3,45.8,175.3z"/>
	<path class="st32" d="M73.8,173.8l-4.2,1.6c-0.2,0.1-0.3,0.2-0.2,0.4l0.5,3.7c0.1,0.4,0.5,0.6,0.8,0.5c1.5-0.6,2.8-1.4,4.7-2
		c2.2-0.8,4.5-1.7,6.3-2.8c1.4-0.9,0.8-2.6,0.2-2.4c-3.1,1.2-3.8,1.6-7,1C74.5,173.7,74.1,173.7,73.8,173.8z"/>
	<path class="st112" d="M63,50.7c1.3,2.3,2.7,4.6,4,6.9c1.4,2.3,2.8,4.5,4.3,6.7c0.4,0.5,0.8,1,1.1,1.5c0.1,0.2,0.2,0.3,0.3,0.4
		c0.1,0.1,0.4,0.1,0.7,0.1c0.4,0,0.9-0.1,1.4-0.3c1-0.4,2.1-1,3.2-1.7c0.5-0.3,1.1-0.7,1.6-1.1c0.5-0.4,1.1-0.8,1.5-1.2l2.3,2
		c-0.4,0.6-0.9,1.2-1.3,1.8c-0.5,0.6-1,1.1-1.5,1.6c-0.5,0.5-1.1,1-1.7,1.5c-0.6,0.5-1.2,0.9-2,1.3c-0.7,0.4-1.5,0.8-2.5,1
		c-0.9,0.2-2.1,0.3-3.3,0c-1.2-0.3-2.3-1.1-3-1.9c-0.5-0.6-1-1.1-1.4-1.7c-1.8-2.2-3.4-4.5-4.9-6.9c-1.5-2.4-2.9-4.7-4.2-7.2
		L63,50.7z"/>
	<linearGradient id="SVGID_4_" gradientUnits="userSpaceOnUse" x1="55.572" y1="56.2867" x2="70.219" y2="56.2867">
		<stop  offset="0" style="stop-color:#FF9F55"/>
		<stop  offset="1" style="stop-color:#FFD255"/>
	</linearGradient>
	<path class="st16" d="M55.7,50.9c-1.1,3.8,6.7,14,6.7,14l7.9-5.1c0,0-2.3-5.2-5.4-9.2C61.6,46.5,56.9,46.7,55.7,50.9z"/>
	<path class="st114" d="M60.5,55.3c1.6,0.7,4,4.6,5.2,7.5l-3.3,2.1c0,0-3-4-5-7.9C58.4,55.9,59.6,54.9,60.5,55.3z"/>
	<path class="st112" d="M80.6,63.3l1.4-4l4.1,1.9c0,0-0.8,3.6-3.8,3.6L80.6,63.3z"/>
	<polygon class="st115" points="85.7,56.7 87.4,58.6 86.1,61.3 82.1,59.3 	"/>
	<polygon class="st7" points="71.6,165 72.8,169.8 69,171.2 67.8,166.4 	"/>
	<polygon class="st7" points="41.9,166.3 46,166.3 45.7,171.2 41.6,171.2 	"/>
	<linearGradient id="SVGID_5_" gradientUnits="userSpaceOnUse" x1="37.3838" y1="65.8795" x2="64.425" y2="65.8795">
		<stop  offset="0" style="stop-color:#FF9F55"/>
		<stop  offset="1" style="stop-color:#FFD255"/>
	</linearGradient>
	<path class="st17" d="M37.4,49.2c4.4,15.6,3.7,32.1,4,35.5c3.2-0.1,15.3-0.6,21.9-0.8c3.7-23.2-3-36.2-3-36.2s-1.4-0.3-3.3-0.5
		c-0.6-0.1-1.2-0.1-1.9-0.2c-0.4,0-0.8,0-1.1,0c-2.5,0-6.5,0.4-9.3,0.7c-0.6,0.1-1.2,0.2-1.8,0.3c-0.5,0.1-1.1,0.2-1.5,0.3
		C39.1,48.7,37.4,49.2,37.4,49.2z"/>
	<path class="st114" d="M42.1,55.9c0.4,1.5-0.1,8.4-1.6,10.1c-0.2-2.2-0.5-4.5-0.9-6.9L42.1,55.9z"/>
	<path class="st112" d="M44.8,37.2c0.8,3,1.8,8.4-0.1,10.5c1.7,1.5,4,3.2,7.6,3.1c3.6-0.1,2.8-2.5,1.7-3.8c-3.4-0.5-3.5-3-3.1-5.4
		L44.8,37.2z"/>
	<linearGradient id="SVGID_6_" gradientUnits="userSpaceOnUse" x1="50.6001" y1="50.8663" x2="52.9626" y2="50.8663">
		<stop  offset="0" style="stop-color:#FF9F55"/>
		<stop  offset="1" style="stop-color:#FFD255"/>
	</linearGradient>
	<polygon class="st22" points="52.3,50.3 53,50.7 50.6,51.4 51.2,50.3 	"/>
	<linearGradient id="SVGID_7_" gradientUnits="userSpaceOnUse" x1="52.9626" y1="50.7513" x2="55.3347" y2="50.7513">
		<stop  offset="0" style="stop-color:#FF9F55"/>
		<stop  offset="1" style="stop-color:#FFD255"/>
	</linearGradient>
	<polygon class="st28" points="53.2,50.1 53,50.7 55.3,51.4 55.2,50.2 	"/>
	<path class="st8" d="M43.2,47.5l0.9-0.5c0.3-0.2,0.7-0.1,0.9,0.1c1,0.7,3.6,2.4,7.2,3.2c-1.9,0.9-1.4,3.3-1.4,3.3s-6-2-7.9-5.5
		C42.9,47.9,43,47.6,43.2,47.5z"/>
	<path class="st8" d="M55,46.9l-1.4-0.2c-0.2,0-0.3,0.2-0.2,0.3c0.5,0.7,1.3,2.2-0.2,3.1c1.9,0.9,2.5,3.1,2.5,3.1s2.4-2.6-0.4-6.1
		C55.2,47,55.1,46.9,55,46.9z"/>
	<path class="st7" d="M47.3,39l3.6,2.6c-0.1,0.6-0.2,1.1-0.2,1.7c-1.3-0.1-3.1-1.4-3.4-2.7C47.2,40,47.2,39.3,47.3,39z"/>
	<path class="st32" d="M55.2,31.1c-0.2,1.4-1.5,2.7-2.4,3l-1.1-6.2C54.2,26.2,55.4,29.1,55.2,31.1z"/>
	<path class="st112" d="M43.5,32.9c0.7,4,0.9,6.4,3.2,8.2c3.4,2.8,8.2,0.3,8.7-3.8c0.4-3.7-0.8-9.7-4.9-10.8
		C46.4,25.3,42.8,28.8,43.5,32.9z"/>
	<path class="st32" d="M44.3,35.6c1.9,1,2.7-1.2,2.7-2.1c0-1.4-0.6-3-1.3-3.6c3.6,0,10.7-0.2,8.9-3.6c-1.8-3.4-5.4-3-8.1-1.2
		c-1.4,1-6,0.1-4.9,2.8C39.2,29.2,41.3,33.9,44.3,35.6z"/>
	<path class="st32" d="M42,27.7c0,0-0.8,0.1-1.8-0.6c0.3,1.3,1.6,1.3,1.6,1.3L42,27.7z"/>
	<path class="st112" d="M42,36.2c0.5,1,1.4,1.7,2.2,1.9c1.3,0.4,1.6-0.8,1.3-2c-0.3-1.1-0.9-2.7-2.2-2.5C42,33.7,41.5,35,42,36.2z"
		/>
	<path class="st32" d="M68.1,127.3c-1.7-12.4-4.8-43.4-4.8-43.4l-14.4,0.5c0,0,6.8,31,9.3,43.5c2.5,12.6,9.3,42.8,9.3,42.8l6.5-2.5
		C73.9,168.3,69.8,140.2,68.1,127.3z"/>
	<path class="st7" d="M54.3,92.8c-0.9,0.2-2.3,0.8-3.2,1.6c1.4,6.3,3.1,14.5,4.7,21.8C56.8,109.9,56.8,98,54.3,92.8z"/>
	<path class="st32" d="M55.5,84.2c0,0-3.1,33.6-4.5,45.5c-1.5,13.1-3.5,40.5-3.5,40.5h-7.5c0,0-0.3-24.2,0.7-37
		c1.1-14.6,0.6-48.5,0.6-48.5L55.5,84.2z"/>
	<linearGradient id="SVGID_8_" gradientUnits="userSpaceOnUse" x1="39.5617" y1="168.9765" x2="49.4448" y2="168.9765">
		<stop  offset="0" style="stop-color:#FF9F55"/>
		<stop  offset="1" style="stop-color:#FFD255"/>
	</linearGradient>
	<polygon class="st30" points="48.6,170.4 39.7,170.4 39.6,167.7 49.4,167.6 	"/>
	<linearGradient id="SVGID_9_" gradientUnits="userSpaceOnUse" x1="66.127" y1="168.1411" x2="74.8197" y2="168.1411">
		<stop  offset="0" style="stop-color:#FF9F55"/>
		<stop  offset="1" style="stop-color:#FFD255"/>
	</linearGradient>
	<polygon class="st31" points="74.8,168.2 67.1,171.1 66.1,168.6 74.7,165.2 	"/>
	<path class="st112" d="M41.9,55c-1.2,2.5-2.5,5.2-3.7,7.7c-0.6,1.3-1.2,2.6-1.8,3.9l-0.9,1.9l-0.4,1l-0.1,0.2L35,70
		c-0.1,0.1-0.1,0.2-0.1,0.4c-0.3,0.9-0.4,1.9-0.2,3c0.2,1.1,0.7,2.2,1.3,3.3c0.6,1.1,1.4,2.1,2.3,3.2c0.4,0.5,0.9,1,1.4,1.5
		c0.2,0.2,0.5,0.5,0.7,0.7c0.2,0.2,0.5,0.5,0.7,0.7l-1.6,2.6c-0.8-0.4-1.4-0.8-2.1-1.2c-0.7-0.4-1.3-0.9-1.9-1.4
		c-1.2-1-2.4-2.1-3.4-3.4c-1-1.3-1.9-2.8-2.5-4.6c-0.5-1.8-0.7-3.8-0.2-5.7c0.1-0.2,0.1-0.5,0.2-0.7l0.2-0.6l0.3-1.1
		c0.2-0.7,0.5-1.4,0.7-2.1c0.5-1.4,1.1-2.8,1.6-4.2c1.1-2.8,2.4-5.4,3.8-8.1L41.9,55z"/>
	<linearGradient id="SVGID_10_" gradientUnits="userSpaceOnUse" x1="29.9574" y1="57.8683" x2="43.5583" y2="57.8683">
		<stop  offset="0" style="stop-color:#FF9F55"/>
		<stop  offset="1" style="stop-color:#FFD255"/>
	</linearGradient>
	<path class="st34" d="M37.4,49.2C33.6,50.4,30,63.1,30,63.1l8.7,3.8c0,0,2.8-6.1,4.4-10.9C44.8,50.7,41.9,47.8,37.4,49.2z"/>
	<path class="st112" d="M40.3,81.8l3.6,2.1l-3.5,3.5c0,0-3-2.3-2.1-4.2L40.3,81.8z"/>
	<polygon class="st112" points="46.3,87.3 42.7,89.8 40.4,87.4 43.9,83.9 	"/>
	<path class="st122" d="M230,143.3H88.2c-4.3,0-7.6-3.5-7.3-7.9l7.5-104.7c0.3-4.3,4.1-7.9,8.4-7.9h141.8c4.3,0,7.6,3.5,7.3,7.9
		l-7.5,104.7C238.1,139.8,234.3,143.3,230,143.3z"/>
	<polygon class="st122" points="197,180 151,180 142.8,123.1 188.8,123.1 	"/>
	<polygon class="st122" points="189.7,176.6 139.9,176.6 138.9,180 188.7,180 	"/>
	<polygon class="st32" points="191.2,150.5 146.4,148 142.8,123.1 187.3,123.1 	"/>
	<path class="st32" d="M228.4,143.3H86.6c-4.3,0-7.6-3.5-7.3-7.9l7.5-104.7c0.3-4.3,4.1-7.9,8.4-7.9H237c4.3,0,7.6,3.5,7.3,7.9
		l-7.5,104.7C236.5,139.8,232.7,143.3,228.4,143.3z"/>
	<path class="st8" d="M228.1,141.4H87.2c-3.4,0-5.9-2.8-5.7-6.1L89,31c0.2-3.4,3.2-6.1,6.6-6.1h140.9c3.4,0,5.9,2.8,5.7,6.1
		l-7.5,104.2C234.4,138.6,231.5,141.4,228.1,141.4z"/>
	<path class="st123" d="M228.1,141.4H87.2c-3.4,0-5.9-2.8-5.7-6.1L89,31c0.2-3.4,3.2-6.1,6.6-6.1h140.9c3.4,0,5.9,2.8,5.7,6.1
		l-7.5,104.2C234.4,138.6,231.5,141.4,228.1,141.4z"/>
	<path class="st90" d="M123.3,136.8H90.4c-1.6,0-2.9-1.3-2.7-3l7.3-101.3c0.1-1.6,1.5-3,3.2-3H131c1.6,0,2.9,1.3,2.7,3l-7.3,101.3
		C126.4,135.4,124.9,136.8,123.3,136.8z"/>
	<path class="st124" d="M122,43.8h-17c-1.5,0-2.6-1.2-2.5-2.7l0.2-2.6c0.1-1.5,1.4-2.7,2.9-2.7h17c1.5,0,2.6,1.2,2.5,2.7l-0.2,2.6
		C124.8,42.6,123.5,43.8,122,43.8z"/>
	<path class="st122" d="M111.2,84.8h-26c-2.6,0-4.5-2.1-4.3-4.7l1.9-26c0.2-2.6,2.4-4.7,5-4.7h26c2.6,0,4.5,2.1,4.3,4.7l-1.9,26
		C116,82.7,113.8,84.8,111.2,84.8z"/>
	<path class="st8" d="M114.9,63.5c-1,0-1.8,0.8-1.9,1.8l-0.3,3.8c-0.1,1,0.7,1.8,1.6,1.8h2.6c0.2,0,0.5-0.2,0.5-0.4l0.5-6.4
		c0-0.2-0.2-0.4-0.4-0.4H114.9z"/>
	<path class="st8" d="M104.9,56.1H88.5c-0.4,0-0.7-0.3-0.7-0.7l0,0c0-0.4,0.4-0.7,0.8-0.7H105c0.4,0,0.7,0.3,0.7,0.7l0,0
		C105.6,55.8,105.3,56.1,104.9,56.1z"/>
	<path class="st8" d="M104.7,59.7H88.3c-0.4,0-0.7-0.3-0.7-0.7l0,0c0-0.4,0.4-0.7,0.8-0.7h16.4c0.4,0,0.7,0.3,0.7,0.7l0,0
		C105.4,59.4,105,59.7,104.7,59.7z"/>
	<path class="st8" d="M98.7,63.3H88c-0.4,0-0.7-0.3-0.7-0.7l0,0c0-0.4,0.4-0.7,0.8-0.7h10.7c0.4,0,0.7,0.3,0.7,0.7l0,0
		C99.5,63,99.1,63.3,98.7,63.3z"/>
	<path class="st90" d="M105,80.6H89.1c-1.7,0-2.9-1.4-2.8-3l0.6-8.3c0.1-1.7,1.6-3,3.3-3H106c1.7,0,2.9,1.4,2.8,3l-0.6,8.3
		C108.1,79.2,106.6,80.6,105,80.6z"/>
	<path class="st124" d="M119.8,94.5H100c-0.7,0-1.3-0.6-1.2-1.3l0,0c0.1-0.7,0.7-1.3,1.4-1.3h19.7c0.7,0,1.3,0.6,1.2,1.3l0,0
		C121.1,93.9,120.5,94.5,119.8,94.5z"/>
	<path class="st29" d="M115.8,99.7h-12.5c-0.7,0-1.3-0.6-1.2-1.3l0,0c0.1-0.7,0.7-1.3,1.4-1.3H116c0.7,0,1.3,0.6,1.2,1.3l0,0
		C117.1,99.1,116.5,99.7,115.8,99.7z"/>
	<path class="st124" d="M118.7,108.8H99c-0.7,0-1.3-0.6-1.2-1.3l0,0c0.1-0.7,0.7-1.3,1.4-1.3h19.7c0.7,0,1.3,0.6,1.2,1.3l0,0
		C120.1,108.2,119.5,108.8,118.7,108.8z"/>
	<path class="st29" d="M114.8,114h-12.5c-0.7,0-1.3-0.6-1.2-1.3l0,0c0.1-0.7,0.7-1.3,1.4-1.3h12.5c0.7,0,1.3,0.6,1.2,1.3l0,0
		C116.1,113.4,115.5,114,114.8,114z"/>
	<path class="st124" d="M117.7,123.1H98c-0.7,0-1.3-0.6-1.2-1.3l0,0c0.1-0.7,0.7-1.3,1.4-1.3h19.7c0.7,0,1.3,0.6,1.2,1.3l0,0
		C119.1,122.5,118.4,123.1,117.7,123.1z"/>
	<path class="st29" d="M113.7,128.3h-12.5c-0.7,0-1.3-0.6-1.2-1.3v0c0.1-0.7,0.7-1.3,1.4-1.3h12.5c0.7,0,1.3,0.6,1.2,1.3v0
		C115.1,127.7,114.5,128.3,113.7,128.3z"/>
	<path class="st125" d="M229.6,107c0.9-1.3,2.8-0.8,2.7,0.8l-1.9,26.5c-0.1,1.4-1.1,2.5-2.3,2.5h-95.4c-1.2,0-2-1.1-1.9-2.5
		l1.1-15.7c0.2-2.1,2.3-3.7,4.3-3c5.4,1.7,10,0.7,14.3-1.4c9.2-4.5,16.8-14.3,27.4-14.3c0.4,0,0.8,0,1.2,0
		c15.7,0.9,20.4,20.4,32.6,20.4c3.6,0,6.9-1.5,9.7-3.8C224.8,113.8,227.6,110.1,229.6,107z"/>
	<path class="st125" d="M231.6,118l-1.2,16.3c-0.1,1.4-1.1,2.5-2.3,2.5h-95.4c-1.2,0-2-1.1-1.9-2.5l2.3-32.4
		c0.2-2.2,3.1-3.2,4.3-1.4c3,4.6,7.7,10.6,13.1,13.6c2.1,1.1,4.2,1.8,6.4,1.8c7.7,0,14.3-9.1,22.1-16.1c4.8-4.3,10.1-7.7,16.4-7.7
		c13.2,0,15.1,21.4,25.9,24.3c2.1,0.6,4.5,0.4,7.3-0.7C230.2,115.2,231.7,116.3,231.6,118z"/>
	<path class="st8" d="M232.1,111.6c-0.1,0-0.1,0-0.1-0.1c0,0,0,0,0-0.1c0,0,0-0.1,0-0.1c0-0.1,0-0.1,0.1-0.1c0.1-0.1,0.2-0.1,0.3,0
		c0,0,0.1,0.1,0.1,0.1c0,0,0,0.1,0,0.1c0,0,0,0,0,0.1C232.2,111.6,232.1,111.6,232.1,111.6z"/>
	<path class="st8" d="M139.3,125.2c-0.1,0-0.2-0.1-0.2-0.2l0,0c0-0.1,0.1-0.2,0.2-0.2v0c0.1,0,0.2,0.1,0.2,0.2l0,0
		C139.5,125.1,139.4,125.2,139.3,125.2L139.3,125.2C139.3,125.2,139.3,125.2,139.3,125.2z M137.3,125.1
		C137.3,125.1,137.3,125.1,137.3,125.1L137.3,125.1c-0.1,0-0.2-0.1-0.2-0.2l0,0c0-0.1,0.1-0.2,0.2-0.2l0,0c0.1,0,0.2,0.1,0.2,0.2
		l0,0C137.5,125,137.4,125.1,137.3,125.1L137.3,125.1C137.3,125.1,137.3,125.1,137.3,125.1z M141,124.9c0-0.1,0.1-0.2,0.2-0.2l0,0
		c0.1,0,0.2,0.1,0.2,0.2l0,0c0,0.1-0.1,0.2-0.2,0.2l0,0c0,0,0,0,0,0l0,0C141.1,125.1,141.1,125,141,124.9z M135.3,124.8
		c-0.1,0-0.2-0.1-0.2-0.2l0,0c0-0.1,0.1-0.2,0.2-0.2l0,0c0.1,0,0.2,0.1,0.2,0.2l0,0C135.6,124.7,135.5,124.8,135.3,124.8
		L135.3,124.8C135.4,124.8,135.4,124.8,135.3,124.8z M143,124.6c0-0.1,0-0.2,0.1-0.2l0,0c0.1,0,0.2,0,0.2,0.1l0,0
		c0,0.1,0,0.2-0.1,0.2l0,0c0,0,0,0,0,0l0,0c0,0,0,0,0,0l0,0C143.1,124.7,143,124.7,143,124.6z M206.3,124.7c-0.1,0-0.2-0.1-0.2-0.2
		l0,0c0-0.1,0.1-0.2,0.2-0.2l0,0c0.1,0,0.2,0.1,0.2,0.2l0,0C206.5,124.6,206.4,124.7,206.3,124.7L206.3,124.7L206.3,124.7z
		 M208,124.4c0-0.1,0.1-0.2,0.2-0.2l0,0c0.1,0,0.2,0.1,0.2,0.2l0,0c0,0.1-0.1,0.2-0.2,0.2l0,0c0,0,0,0,0,0l0,0
		C208.1,124.6,208.1,124.5,208,124.4z M204.3,124.5c-0.1,0-0.2-0.1-0.2-0.2l0,0c0-0.1,0.1-0.2,0.2-0.2l0,0c0.1,0,0.2,0.1,0.2,0.2
		l0,0C204.5,124.5,204.4,124.5,204.3,124.5L204.3,124.5C204.3,124.5,204.3,124.5,204.3,124.5z M133.4,124.3c-0.1,0-0.2-0.1-0.1-0.2
		l0,0c0-0.1,0.1-0.2,0.2-0.1l0,0c0.1,0,0.2,0.1,0.1,0.2l0,0C133.6,124.3,133.6,124.3,133.4,124.3L133.4,124.3
		C133.5,124.3,133.4,124.3,133.4,124.3z M210,124.1c0-0.1,0-0.2,0.2-0.2l0,0c0.1,0,0.2,0,0.2,0.2l0,0c0,0.1,0,0.2-0.2,0.2l0,0l0,0
		l0,0c0,0,0,0,0,0l0,0C210.1,124.3,210,124.2,210,124.1z M202.4,124.2c-0.1,0-0.2-0.1-0.1-0.2l0,0c0-0.1,0.1-0.2,0.2-0.1l0,0
		c0.1,0,0.2,0.1,0.1,0.2l0,0C202.6,124.1,202.5,124.2,202.4,124.2L202.4,124.2C202.4,124.2,202.4,124.2,202.4,124.2z M144.8,124
		c0-0.1,0-0.2,0.1-0.3l0,0c0.1,0,0.2,0,0.3,0.1l0,0c0,0.1,0,0.2-0.1,0.3l0,0c0,0,0,0-0.1,0l0,0C145,124.1,144.9,124.1,144.8,124z
		 M211.9,123.7c0-0.1,0-0.2,0.1-0.2l0,0c0.1,0,0.2,0,0.2,0.1l0,0c0,0.1,0,0.2-0.1,0.2l0,0l0,0l0,0c0,0,0,0-0.1,0l0,0
		C212,123.8,211.9,123.8,211.9,123.7z M200.5,123.6L200.5,123.6L200.5,123.6c-0.1,0-0.2-0.2-0.1-0.2l0,0c0-0.1,0.2-0.2,0.3-0.1l0,0
		c0.1,0,0.2,0.2,0.1,0.3l0,0C200.7,123.6,200.6,123.6,200.5,123.6L200.5,123.6C200.5,123.6,200.5,123.6,200.5,123.6z M146.6,123.2
		c-0.1-0.1,0-0.2,0.1-0.3l0,0c0.1,0,0.2,0,0.3,0.1l0,0c0,0.1,0,0.2-0.1,0.3l0,0l0,0l0,0c0,0-0.1,0-0.1,0l0,0
		C146.8,123.3,146.7,123.3,146.6,123.2z M213.8,123.1c0-0.1,0-0.2,0.1-0.2l0,0c0.1,0,0.2,0,0.2,0.1l0,0c0,0.1,0,0.2-0.1,0.3l0,0
		c0,0,0,0-0.1,0l0,0C213.9,123.2,213.8,123.2,213.8,123.1z M198.6,122.9L198.6,122.9L198.6,122.9c-0.1,0-0.1-0.2-0.1-0.3l0,0
		c0-0.1,0.2-0.1,0.3-0.1l0,0c0.1,0,0.1,0.2,0.1,0.3l0,0C198.9,122.8,198.8,122.9,198.6,122.9L198.6,122.9
		C198.7,122.9,198.7,122.9,198.6,122.9z M215.6,122.4c0-0.1,0-0.2,0.1-0.3l0,0c0.1,0,0.2,0,0.3,0.1l0,0c0,0.1,0,0.2-0.1,0.3l0,0l0,0
		l0,0c0,0-0.1,0-0.1,0l0,0C215.7,122.5,215.7,122.5,215.6,122.4z M148.4,122.3c-0.1-0.1,0-0.2,0.1-0.3l0,0c0.1-0.1,0.2,0,0.3,0.1
		l0,0c0.1,0.1,0,0.2-0.1,0.3l0,0l0,0l0,0c0,0-0.1,0-0.1,0l0,0C148.5,122.4,148.4,122.3,148.4,122.3z M196.9,122L196.9,122L196.9,122
		c-0.1-0.1-0.1-0.2-0.1-0.3l0,0c0.1-0.1,0.2-0.1,0.3-0.1l0,0c0.1,0.1,0.1,0.2,0.1,0.3l0,0C197.1,122,197,122,196.9,122L196.9,122
		C196.9,122,196.9,122,196.9,122z M217.4,121.6c0-0.1,0-0.2,0.1-0.3l0,0c0.1,0,0.2,0,0.3,0.1l0,0c0,0.1,0,0.2-0.1,0.3l0,0
		c0,0,0,0,0,0l0,0c0,0-0.1,0-0.1,0l0,0C217.5,121.7,217.5,121.7,217.4,121.6z M150,121.2c-0.1-0.1,0-0.2,0-0.3l0,0
		c0.1-0.1,0.2,0,0.3,0l0,0c0.1,0.1,0,0.2,0,0.3l0,0c0,0-0.1,0-0.1,0l0,0C150.1,121.3,150,121.3,150,121.2z M195.2,121
		C195.2,121,195.2,121,195.2,121L195.2,121c-0.1-0.1-0.1-0.2-0.1-0.3l0,0c0.1-0.1,0.2-0.1,0.3-0.1l0,0c0.1,0.1,0.1,0.2,0.1,0.3l0,0
		c0,0.1-0.1,0.1-0.2,0.1l0,0C195.2,121,195.2,121,195.2,121z M219.2,120.7c-0.1-0.1,0-0.2,0.1-0.3l0,0c0.1-0.1,0.2,0,0.3,0.1l0,0
		c0.1,0.1,0,0.2-0.1,0.3l0,0c0,0-0.1,0-0.1,0l0,0C219.3,120.8,219.2,120.8,219.2,120.7z M151.6,120c-0.1-0.1-0.1-0.2,0-0.3l0,0
		c0.1-0.1,0.2-0.1,0.3,0l0,0c0.1,0.1,0.1,0.2,0,0.3l0,0c0,0-0.1,0-0.1,0l0,0C151.7,120.1,151.6,120.1,151.6,120z M193.5,119.9
		C193.5,119.9,193.5,119.9,193.5,119.9L193.5,119.9c-0.1-0.1-0.1-0.2-0.1-0.3l0,0c0.1-0.1,0.2-0.1,0.3-0.1l0,0
		c0.1,0.1,0.1,0.2,0.1,0.3l0,0c0,0.1-0.1,0.1-0.2,0.1l0,0C193.6,120,193.5,119.9,193.5,119.9z M220.9,119.8c-0.1-0.1,0-0.2,0.1-0.3
		l0,0c0.1-0.1,0.2,0,0.3,0.1l0,0c0.1,0.1,0,0.2-0.1,0.3l0,0c0,0-0.1,0-0.1,0l0,0C221,119.9,220.9,119.8,220.9,119.8z M191.9,118.8
		c-0.1-0.1-0.1-0.2-0.1-0.3l0,0c0.1-0.1,0.2-0.1,0.3-0.1l0,0c0.1,0.1,0.1,0.2,0.1,0.3l0,0c0,0.1-0.1,0.1-0.2,0.1l0,0
		C191.9,118.9,191.9,118.9,191.9,118.8z M222.6,118.8c-0.1-0.1,0-0.2,0.1-0.3l0,0c0.1-0.1,0.2,0,0.3,0.1l0,0c0.1,0.1,0,0.2-0.1,0.3
		l0,0l0,0l0,0c0,0-0.1,0-0.1,0l0,0C222.7,118.9,222.6,118.8,222.6,118.8z M153.1,118.8c-0.1-0.1-0.1-0.2,0-0.3l0,0
		c0.1-0.1,0.2-0.1,0.3,0l0,0c0.1,0.1,0.1,0.2,0,0.3l0,0c0,0-0.1,0-0.1,0l0,0C153.2,118.8,153.1,118.8,153.1,118.8z M224.2,117.7
		c-0.1-0.1,0-0.2,0-0.3l0,0c0.1-0.1,0.2,0,0.3,0.1l0,0c0.1,0.1,0,0.2-0.1,0.3l0,0c0,0-0.1,0-0.1,0l0,0
		C224.3,117.8,224.3,117.7,224.2,117.7z M190.2,117.7c-0.1-0.1-0.1-0.2-0.1-0.3l0,0c0.1-0.1,0.2-0.1,0.3-0.1l0,0
		c0.1,0.1,0.1,0.2,0.1,0.3l0,0c0,0.1-0.1,0.1-0.2,0.1l0,0C190.3,117.8,190.3,117.8,190.2,117.7z M154.6,117.5
		c-0.1-0.1-0.1-0.2,0-0.3l0,0c0.1-0.1,0.2-0.1,0.3,0l0,0c0.1,0.1,0.1,0.2,0,0.3l0,0l0,0l0,0c0,0-0.1,0-0.1,0l0,0
		C154.7,117.6,154.6,117.6,154.6,117.5z M188.6,116.6c-0.1-0.1-0.1-0.2-0.1-0.3l0,0c0.1-0.1,0.2-0.1,0.3-0.1l0,0
		c0.1,0.1,0.1,0.2,0.1,0.3l0,0c0,0.1-0.1,0.1-0.2,0.1l0,0C188.7,116.7,188.6,116.7,188.6,116.6z M225.8,116.6c-0.1-0.1,0-0.2,0-0.3
		l0,0c0.1-0.1,0.2,0,0.3,0l0,0c0.1,0.1,0,0.2,0,0.3l0,0c0,0-0.1,0-0.1,0l0,0C225.9,116.6,225.9,116.6,225.8,116.6z M156.1,116.3
		c-0.1-0.1-0.1-0.2,0-0.3l0,0c0.1-0.1,0.2-0.1,0.3,0l0,0c0.1,0.1,0.1,0.2,0,0.3l0,0c0,0-0.1,0-0.1,0l0,0
		C156.2,116.3,156.2,116.3,156.1,116.3z M186.9,115.6c-0.1-0.1-0.1-0.2-0.1-0.3l0,0c0.1-0.1,0.2-0.1,0.3-0.1l0,0
		c0.1,0.1,0.1,0.2,0.1,0.3l0,0c0,0.1-0.1,0.1-0.2,0.1l0,0C187,115.6,187,115.6,186.9,115.6z M227.4,115.4c-0.1-0.1-0.1-0.2,0-0.3
		l0,0c0.1-0.1,0.2-0.1,0.3,0l0,0c0.1,0.1,0,0.2,0,0.3l0,0c0,0,0,0,0,0l0,0c0,0-0.1,0-0.1,0l0,0C227.5,115.5,227.5,115.4,227.4,115.4
		z M157.7,115c-0.1-0.1,0-0.2,0-0.3l0,0c0.1-0.1,0.2,0,0.3,0l0,0c0.1,0.1,0,0.2,0,0.3l0,0c0,0-0.1,0-0.1,0l0,0
		C157.8,115.1,157.7,115.1,157.7,115z M185.3,114.6c-0.1-0.1-0.1-0.2-0.1-0.3l0,0c0.1-0.1,0.2-0.1,0.3-0.1l0,0
		c0.1,0.1,0.1,0.2,0.1,0.3l0,0C185.5,114.6,185.4,114.6,185.3,114.6L185.3,114.6C185.3,114.6,185.3,114.6,185.3,114.6z M229,114.2
		c-0.1-0.1-0.1-0.2,0-0.3l0,0c0.1-0.1,0.2-0.1,0.3,0l0,0c0.1,0.1,0.1,0.2,0,0.3l0,0c0,0-0.1,0-0.1,0l0,0
		C229.1,114.2,229,114.2,229,114.2z M159.3,113.9c-0.1-0.1,0-0.2,0.1-0.3l0,0c0.1-0.1,0.2,0,0.3,0.1l0,0c0.1,0.1,0,0.2-0.1,0.3l0,0
		c0,0-0.1,0-0.1,0l0,0C159.3,114,159.3,113.9,159.3,113.9z M183.5,113.7c-0.1,0-0.1-0.2-0.1-0.3l0,0c0-0.1,0.2-0.1,0.3-0.1l0,0
		c0.1,0.1,0.1,0.2,0.1,0.3l0,0C183.8,113.6,183.7,113.7,183.5,113.7L183.5,113.7C183.6,113.7,183.6,113.7,183.5,113.7z M230.5,112.9
		c-0.1-0.1-0.1-0.2,0-0.3h0c0.1-0.1,0.2-0.1,0.3,0l0,0c0.1,0.1,0.1,0.2,0,0.3l0,0c0,0-0.1,0.1-0.1,0.1l0,0
		C230.6,113,230.5,112.9,230.5,112.9z M160.9,112.8c-0.1-0.1,0-0.2,0.1-0.3l0,0c0.1-0.1,0.2,0,0.3,0.1l0,0c0.1,0.1,0,0.2-0.1,0.3
		l0,0c0,0,0,0,0,0l0,0c0,0-0.1,0-0.1,0l0,0C161,112.9,160.9,112.9,160.9,112.8z M181.8,112.8L181.8,112.8L181.8,112.8
		c-0.1,0-0.1-0.2-0.1-0.3l0,0c0-0.1,0.2-0.1,0.3-0.1l0,0c0.1,0,0.1,0.2,0.1,0.3l0,0C182,112.8,181.9,112.8,181.8,112.8L181.8,112.8
		C181.8,112.8,181.8,112.8,181.8,112.8z M180,112.1c-0.1,0-0.2-0.2-0.1-0.3l0,0c0-0.1,0.2-0.2,0.3-0.1l0,0c0.1,0,0.2,0.2,0.1,0.3
		l0,0C180.2,112,180.1,112.1,180,112.1L180,112.1C180,112.1,180,112.1,180,112.1z M162.6,111.9c0-0.1,0-0.2,0.1-0.3l0,0
		c0.1,0,0.2,0,0.3,0.1l0,0c0,0.1,0,0.2-0.1,0.3l0,0c0,0-0.1,0-0.1,0l0,0C162.8,112.1,162.7,112,162.6,111.9z M178.1,111.5
		c-0.1,0-0.2-0.1-0.1-0.2l0,0c0-0.1,0.1-0.2,0.2-0.1l0,0c0.1,0,0.2,0.1,0.1,0.2l0,0C178.3,111.4,178.3,111.5,178.1,111.5
		L178.1,111.5C178.2,111.5,178.1,111.5,178.1,111.5z M164.5,111.2c0-0.1,0-0.2,0.1-0.2l0,0c0.1,0,0.2,0,0.2,0.1l0,0
		c0,0.1,0,0.2-0.1,0.2l0,0c0,0,0,0-0.1,0l0,0C164.6,111.3,164.5,111.3,164.5,111.2z M176.2,111c-0.1,0-0.2-0.1-0.2-0.2l0,0
		c0-0.1,0.1-0.2,0.2-0.2l0,0c0.1,0,0.2,0.1,0.2,0.2l0,0C176.5,110.9,176.4,111,176.2,111L176.2,111C176.3,111,176.3,111,176.2,111z
		 M166.3,110.7c0-0.1,0-0.2,0.2-0.2l0,0c0.1,0,0.2,0,0.2,0.2l0,0c0,0.1,0,0.2-0.2,0.2l0,0c0,0,0,0,0,0l0,0
		C166.5,110.8,166.4,110.8,166.3,110.7z M174.3,110.7L174.3,110.7L174.3,110.7c-0.1,0-0.2-0.1-0.2-0.2l0,0c0-0.1,0.1-0.2,0.2-0.2h0
		c0.1,0,0.2,0.1,0.2,0.2l0,0C174.5,110.6,174.4,110.7,174.3,110.7L174.3,110.7C174.3,110.7,174.3,110.7,174.3,110.7z M168.3,110.3
		c0-0.1,0.1-0.2,0.2-0.2l0,0c0.1,0,0.2,0.1,0.2,0.2l0,0c0,0.1-0.1,0.2-0.2,0.2l0,0c0,0,0,0,0,0l0,0
		C168.4,110.5,168.3,110.4,168.3,110.3z M172.4,110.5C172.4,110.5,172.4,110.5,172.4,110.5L172.4,110.5c-0.1,0-0.2-0.1-0.2-0.2l0,0
		c0-0.1,0.1-0.2,0.2-0.2l0,0c0.1,0,0.2,0.1,0.2,0.2l0,0C172.6,110.4,172.5,110.5,172.4,110.5L172.4,110.5
		C172.4,110.5,172.4,110.5,172.4,110.5z M170.2,110.2c0-0.1,0.1-0.2,0.2-0.2l0,0c0.1,0,0.2,0.1,0.2,0.2l0,0c0,0.1-0.1,0.2-0.2,0.2
		l0,0l0,0l0,0C170.3,110.4,170.2,110.3,170.2,110.2z"/>
	<path class="st8" d="M131.5,123.7C131.5,123.7,131.5,123.7,131.5,123.7c-0.1,0-0.1,0-0.1-0.1c0,0,0,0,0-0.1c0,0,0,0,0-0.1
		c0-0.1,0-0.1,0.1-0.1c0,0,0,0,0.1,0c0,0,0.1,0,0.2,0c0,0,0,0,0.1,0c0,0,0.1,0.1,0.1,0.1c0,0,0,0.1,0,0.1c0,0,0,0,0,0.1
		C131.7,123.6,131.6,123.7,131.5,123.7C131.6,123.7,131.6,123.7,131.5,123.7z"/>
	<path class="st8" d="M163.3,64.4L163.3,64.4l-1.4-1.5c-2.4,2.2-5.6,3.6-9,3.6c-5.7,0-10.3-3.9-11.3-9.2l-2,0.5c0,0,0,0,0,0
		l-1.9,0.5c0.5,2.8,1.8,5.3,3.7,7.3c5.9,6.3,16.3,6.3,23.1,0L163.3,64.4z"/>
	<path class="st32" d="M166.2,42.7l-1.8,1.7c0,0,0,0,0,0l-1.2,1.1c2.1,2.2,3.2,5.3,3,8.7c-0.2,3.4-1.9,6.5-4.2,8.7l1.1,1.1l0,0
		l1.5,1.6c3.3-3.1,5.3-7.2,5.6-11.5C170.4,49.9,169,45.7,166.2,42.7z"/>
	<path class="st122" d="M166.2,42.7c-5.9-6.3-16.3-6.3-23.1,0c-4.4,4.1-6.5,10.1-5.4,15.8l2.3-0.6c0,0,0,0,0,0l1.6-0.4
		c-0.2-1-0.3-2.1-0.2-3.2c0.5-6.8,6.4-12.4,13.3-12.4c3.4,0,6.4,1.4,8.5,3.6l1.6-1.5c0,0,0,0,0,0L166.2,42.7z"/>
	<path class="st8" d="M182.8,64.4L182.8,64.4l1.6-1.5c-2.1-2.2-3.2-5.3-3-8.7c0.4-5.7,4.6-10.5,10-12l-0.4-2c0,0,0,0,0,0l-0.4-1.8
		c-2.8,0.7-5.4,2.2-7.6,4.2c-6.8,6.3-7.5,16.7-1.7,23.1L182.8,64.4z"/>
	<path class="st32" d="M204.4,65.7l-1.5-1.7c0,0,0,0,0,0l-1.1-1.1c-2.4,2.2-5.6,3.6-9,3.6c-3.4,0-6.4-1.4-8.5-3.6l-1.2,1.1h0
		l-1.8,1.6c2.8,3.1,6.9,4.8,11.2,4.8C196.9,70.5,201.2,68.8,204.4,65.7z"/>
	<path class="st122" d="M204.4,65.7c6.8-6.3,7.5-16.7,1.7-23.1c-3.8-4.1-9.7-5.7-15.5-4.2l0.4,2.2c0,0,0,0,0,0l0.3,1.6
		c1-0.3,2.1-0.4,3.2-0.4c6.8,0,12,5.5,11.5,12.4c-0.2,3.4-1.9,6.5-4.2,8.7l1.4,1.5c0,0,0,0,0,0L204.4,65.7z"/>
	<path class="st126" d="M231.8,39.3c0.3,0,0.6,0.1,0.8,0.4c0.2,0.2,0.3,0.5,0.3,0.9l-0.7,10c-0.1,0.7-0.7,1.3-1.4,1.3h-10
		c-0.3,0-0.6-0.1-0.8-0.4c-0.2-0.2-0.3-0.5-0.3-0.9l0.7-10c0.1-0.7,0.7-1.3,1.4-1.3H231.8 M231.8,38.8h-10c-1,0-1.8,0.8-1.9,1.8
		l-0.7,10c-0.1,1,0.7,1.8,1.7,1.8h10c1,0,1.8-0.8,1.9-1.8l0.7-10C233.5,39.6,232.8,38.8,231.8,38.8L231.8,38.8z"/>
	<path class="st126" d="M230.5,56.5c0.3,0,0.6,0.1,0.8,0.4c0.2,0.2,0.3,0.5,0.3,0.9l-0.7,10c-0.1,0.7-0.7,1.3-1.4,1.3h-10
		c-0.3,0-0.6-0.1-0.8-0.4c-0.2-0.2-0.3-0.5-0.3-0.9l0.7-10c0.1-0.7,0.7-1.3,1.4-1.3H230.5 M230.5,56h-10c-1,0-1.8,0.8-1.9,1.8
		l-0.7,10c-0.1,1,0.7,1.8,1.7,1.8h10c1,0,1.8-0.8,1.9-1.8l0.7-10C232.3,56.8,231.5,56,230.5,56L230.5,56z"/>
	<path class="st122" d="M215.9,111.8c0.3,0,0.5,0.1,0.7,0.3c0.2,0.2,0.3,0.5,0.3,0.7c0,0.6-0.6,1.1-1.2,1.1c-0.3,0-0.5-0.1-0.7-0.3
		c-0.2-0.2-0.3-0.5-0.3-0.7C214.8,112.3,215.3,111.8,215.9,111.8 M215.9,111.3c-0.9,0-1.6,0.7-1.7,1.6c-0.1,0.9,0.6,1.6,1.5,1.6
		c0.9,0,1.6-0.7,1.7-1.6C217.5,112,216.8,111.3,215.9,111.3L215.9,111.3z"/>
	<polygon class="st122" points="216.1,111.3 215.8,111.3 215.8,110.7 216.1,110.8 	"/>
	<path class="st122" d="M216.2,109.7l-0.3,0l0.1-1l0.3,0L216.2,109.7z M216.3,107.6l-0.3,0l0.1-1l0.3,0L216.3,107.6z M216.5,105.5
		l-0.3,0l0.1-1l0.3,0L216.5,105.5z M216.6,103.4l-0.3,0l0.1-1l0.3,0L216.6,103.4z M216.8,101.4l-0.3,0l0.1-1l0.3,0L216.8,101.4z
		 M216.9,99.3l-0.3,0l0.1-1l0.3,0L216.9,99.3z M217.1,97.2l-0.3,0l0.1-1l0.3,0L217.1,97.2z M217.2,95.1l-0.3,0l0.1-1l0.3,0
		L217.2,95.1z M217.4,93l-0.3,0l0.1-1l0.3,0L217.4,93z M217.5,90.9l-0.3,0l0.1-1l0.3,0L217.5,90.9z M217.7,88.8l-0.3,0l0.1-1l0.3,0
		L217.7,88.8z"/>
	
		<rect x="217.4" y="86.3" transform="matrix(7.082759e-02 -0.9975 0.9975 7.082759e-02 116.0486 297.4839)" class="st122" width="0.5" height="0.3"/>
	<path class="st122" d="M228.5,86.5h-91.7c-0.5,0-1-0.2-1.3-0.6c-0.3-0.4-0.5-0.9-0.5-1.4l0.5-6.3c0.1-1.1,1-1.9,2.1-1.9h91.7
		c0.5,0,1,0.2,1.3,0.6c0.3,0.4,0.5,0.9,0.5,1.4l-0.5,6.3C230.5,85.6,229.6,86.5,228.5,86.5z M137.5,76.9c-0.8,0-1.4,0.6-1.5,1.4
		l-0.5,6.3c0,0.4,0.1,0.7,0.3,1c0.2,0.3,0.6,0.4,0.9,0.4h91.7c0.8,0,1.4-0.6,1.5-1.4l0.5-6.3c0-0.4-0.1-0.7-0.3-1
		c-0.2-0.3-0.6-0.4-0.9-0.4H137.5z"/>
	<path class="st127" d="M226.5,80.4h-86.9c-0.5,0-0.8-0.4-0.8-0.9l0,0c0-0.5,0.4-0.9,0.9-0.9h86.9c0.5,0,0.8,0.4,0.8,0.9l0,0
		C227.4,80,227,80.4,226.5,80.4z"/>
	<path class="st127" d="M212.1,84h-72.7c-0.5,0-0.8-0.4-0.8-0.9l0,0c0-0.5,0.4-0.9,0.9-0.9h72.7c0.5,0,0.8,0.4,0.8,0.9l0,0
		C212.9,83.6,212.5,84,212.1,84z"/>
</g>
</svg>
